<svg width="301" height="49" viewBox="0 0 301 49" fill="none" xmlns="http://www.w3.org/2000/svg">
<g filter="url(#filter0_dd_26_1170)">
<rect x="10" y="5" width="46.6143" height="30.0304" rx="5.37857" fill="white"/>
<rect x="9.88795" y="4.88795" width="46.8384" height="30.2545" rx="5.49062" stroke="#D6DCE5" stroke-width="0.224107"/>
<path d="M33.0222 15.1212L30.848 25.2848H28.2189L30.3935 15.1212H33.0222ZM44.0839 21.6839L45.4681 17.8671L46.2646 21.6839H44.0839ZM47.0173 25.2848H49.4492L47.3271 15.1212H45.0824C44.578 15.1212 44.1524 15.4146 43.963 15.8669L40.0185 25.2848H42.7795L43.3276 23.7671H46.7008L47.0173 25.2848ZM40.1555 21.9663C40.1668 19.2838 36.4459 19.1362 36.4716 17.9379C36.4794 17.5728 36.8271 17.1855 37.5866 17.0861C37.9639 17.0369 39.0013 16.9992 40.1793 17.5413L40.6406 15.386C40.0079 15.1563 39.1937 14.9353 38.1811 14.9353C35.5825 14.9353 33.7534 16.3169 33.738 18.2953C33.7216 19.7583 35.0437 20.5747 36.0399 21.0611C37.0642 21.5594 37.4084 21.8785 37.4039 22.324C37.3971 23.0063 36.5868 23.3068 35.8308 23.3187C34.5087 23.3396 33.7415 22.9619 33.13 22.6769L32.6536 24.9039C33.2677 25.186 34.4016 25.4312 35.578 25.4437C38.3396 25.4437 40.1465 24.0791 40.1555 21.9663ZM29.2653 15.1212L25.0056 25.2848H22.226L20.1299 17.1736C20.0025 16.674 19.8918 16.4913 19.5049 16.2806C18.8734 15.938 17.8295 15.616 16.9111 15.4165L16.9739 15.1212H21.4475C22.0175 15.1212 22.5306 15.5008 22.6599 16.1574L23.7671 22.039L26.503 15.1212H29.2653Z" fill="#1434CB"/>
</g>
<g filter="url(#filter1_dd_26_1170)">
<rect x="68.6143" y="5" width="46.6143" height="30.0304" rx="5.37857" fill="white"/>
<rect x="68.5022" y="4.88795" width="46.8384" height="30.2545" rx="5.49062" stroke="#D6DCE5" stroke-width="0.224107"/>
<path d="M95.27 13.8484H88.4068V26.1819H95.27V13.8484Z" fill="#FF5F00"/>
<path d="M88.8426 20.0151C88.8415 18.8273 89.1107 17.6548 89.6297 16.5864C90.1487 15.518 90.904 14.5817 91.8384 13.8484C90.6813 12.9389 89.2916 12.3732 87.8283 12.2162C86.3649 12.0591 84.8869 12.3169 83.5631 12.9602C82.2393 13.6034 81.1232 14.6061 80.3424 15.8537C79.5615 17.1013 79.1475 18.5434 79.1475 20.0151C79.1475 21.4869 79.5615 22.929 80.3424 24.1766C81.1232 25.4241 82.2393 26.4269 83.5631 27.0701C84.8869 27.7133 86.3649 27.9712 87.8283 27.8141C89.2916 27.657 90.6813 27.0914 91.8384 26.1819C90.904 25.4485 90.1487 24.5122 89.6297 23.4438C89.1107 22.3754 88.8415 21.2029 88.8426 20.0151Z" fill="#EB001B"/>
<path d="M104.529 20.0151C104.529 21.4869 104.115 22.929 103.334 24.1765C102.553 25.4241 101.437 26.4268 100.114 27.0701C98.7899 27.7133 97.3118 27.9712 95.8485 27.8141C94.3851 27.657 92.9955 27.0914 91.8384 26.1819C92.772 25.4478 93.5267 24.5113 94.0457 23.4431C94.5646 22.3749 94.8343 21.2028 94.8343 20.0151C94.8343 18.8275 94.5646 17.6554 94.0457 16.5872C93.5267 15.5189 92.772 14.5825 91.8384 13.8484C92.9955 12.9389 94.3851 12.3732 95.8485 12.2162C97.3118 12.0591 98.7899 12.3169 100.114 12.9602C101.437 13.6034 102.553 14.6062 103.334 15.8537C104.115 17.1013 104.529 18.5434 104.529 20.0151Z" fill="#F79E1B"/>
<path d="M103.781 24.8756V24.6231H103.882V24.5716H103.623V24.6231H103.725V24.8756H103.781ZM104.284 24.8756V24.5711H104.205L104.113 24.7805L104.022 24.5711H103.942V24.8756H103.998V24.6459L104.084 24.8439H104.142L104.228 24.6454V24.8756H104.284Z" fill="#F79E1B"/>
</g>
<g filter="url(#filter2_dd_26_1170)">
<rect x="127.229" y="5" width="46.6143" height="30.0304" rx="5.37857" fill="white"/>
<rect x="127.116" y="4.88795" width="46.8384" height="30.2545" rx="5.49062" stroke="#D6DCE5" stroke-width="0.224107"/>
<path fill-rule="evenodd" clip-rule="evenodd" d="M137.426 15.646H134.738C134.554 15.646 134.398 15.7796 134.369 15.9611L133.282 22.8518C133.261 22.9879 133.366 23.1104 133.504 23.1104H134.787C134.971 23.1104 135.127 22.9768 135.156 22.7949L135.449 20.9364C135.477 20.7544 135.634 20.6209 135.818 20.6209H136.668C138.439 20.6209 139.46 19.7643 139.727 18.0669C139.848 17.3243 139.732 16.7408 139.384 16.332C139.003 15.8835 138.325 15.646 137.426 15.646ZM137.736 18.1627C137.589 19.127 136.852 19.127 136.139 19.127H135.734L136.018 17.3261C136.035 17.2174 136.13 17.1372 136.24 17.1372H136.425C136.911 17.1372 137.369 17.1372 137.605 17.4138C137.746 17.5789 137.789 17.824 137.736 18.1627ZM145.459 18.1318H144.172C144.063 18.1318 143.968 18.212 143.951 18.3209L143.894 18.6808L143.804 18.5504C143.525 18.146 142.904 18.0109 142.284 18.0109C140.862 18.0109 139.647 19.0879 139.411 20.5988C139.288 21.3523 139.462 22.0729 139.89 22.5755C140.282 23.0375 140.843 23.2301 141.511 23.2301C142.657 23.2301 143.292 22.4933 143.292 22.4933L143.235 22.8509C143.213 22.9877 143.319 23.1102 143.456 23.1102H144.615C144.799 23.1102 144.955 22.9766 144.984 22.7948L145.68 18.3904C145.702 18.2549 145.597 18.1318 145.459 18.1318ZM143.665 20.6364C143.541 21.3715 142.957 21.865 142.213 21.865C141.84 21.865 141.541 21.7452 141.349 21.5181C141.159 21.2926 141.086 20.9715 141.147 20.614C141.263 19.8851 141.856 19.3756 142.589 19.3756C142.955 19.3756 143.252 19.4968 143.447 19.726C143.644 19.9574 143.721 20.2804 143.665 20.6364ZM151.02 18.1317H152.313C152.495 18.1317 152.6 18.3348 152.497 18.4833L148.196 24.6914C148.126 24.792 148.011 24.8518 147.889 24.8518H146.597C146.415 24.8518 146.309 24.6471 146.414 24.4982L147.754 22.6078L146.329 18.4279C146.28 18.2826 146.387 18.1317 146.542 18.1317H147.813C147.978 18.1317 148.123 18.24 148.171 18.398L148.927 20.9226L150.711 18.2955C150.781 18.1929 150.897 18.1317 151.02 18.1317Z" fill="#253B80"/>
<path fill-rule="evenodd" clip-rule="evenodd" d="M165.043 22.8512L166.146 15.8345C166.162 15.7256 166.257 15.6454 166.367 15.645H167.608C167.745 15.645 167.851 15.7679 167.829 15.9039L166.741 22.7943C166.713 22.9762 166.557 23.1098 166.372 23.1098H165.263C165.126 23.1098 165.021 22.9872 165.043 22.8512ZM156.596 15.6454H153.908C153.724 15.6454 153.568 15.779 153.539 15.9605L152.452 22.8512C152.431 22.9872 152.536 23.1098 152.673 23.1098H154.052C154.18 23.1098 154.29 23.0163 154.31 22.8891L154.619 20.9358C154.647 20.7538 154.804 20.6203 154.987 20.6203H155.838C157.608 20.6203 158.63 19.7637 158.897 18.0663C159.017 17.3237 158.902 16.7402 158.554 16.3314C158.172 15.8829 157.495 15.6454 156.596 15.6454ZM156.906 18.1621C156.759 19.1264 156.022 19.1264 155.309 19.1264H154.904L155.189 17.3255C155.206 17.2168 155.3 17.1366 155.41 17.1366H155.596C156.081 17.1366 156.539 17.1366 156.776 17.4132C156.917 17.5783 156.96 17.8234 156.906 18.1621ZM164.629 18.1312H163.342C163.232 18.1312 163.138 18.2114 163.122 18.3203L163.065 18.6802L162.974 18.5498C162.696 18.1454 162.075 18.0103 161.455 18.0103C160.032 18.0103 158.818 19.0873 158.582 20.5981C158.459 21.3517 158.633 22.0723 159.061 22.5748C159.454 23.0369 160.014 23.2294 160.682 23.2294C161.827 23.2294 162.463 22.4927 162.463 22.4927L162.406 22.8503C162.384 22.9871 162.489 23.1096 162.627 23.1096H163.786C163.97 23.1096 164.126 22.976 164.155 22.7941L164.851 18.3898C164.872 18.2543 164.767 18.1312 164.629 18.1312ZM162.835 20.6358C162.711 21.3709 162.127 21.8644 161.383 21.8644C161.01 21.8644 160.71 21.7446 160.518 21.5175C160.328 21.292 160.257 20.9709 160.317 20.6134C160.433 19.8845 161.026 19.375 161.759 19.375C162.124 19.375 162.421 19.4962 162.617 19.7253C162.814 19.9568 162.892 20.2798 162.835 20.6358Z" fill="#179BD7"/>
</g>
<g filter="url(#filter3_dd_26_1170)">
<rect x="185.843" y="5" width="46.6143" height="30.0304" rx="5.37857" fill="white"/>
<rect x="185.731" y="4.88795" width="46.8384" height="30.2545" rx="5.49062" stroke="#D6DCE5" stroke-width="0.224107"/>
<path d="M200.92 16.0815C201.231 15.6925 201.442 15.1702 201.386 14.6365C200.931 14.6591 200.376 14.9368 200.054 15.3261C199.765 15.6595 199.51 16.2036 199.576 16.715C200.087 16.7593 200.598 16.4595 200.92 16.0815Z" fill="#000008"/>
<path d="M201.381 16.8148C200.638 16.7706 200.007 17.236 199.653 17.236C199.298 17.236 198.756 16.8371 198.169 16.8479C197.405 16.8591 196.696 17.2911 196.308 17.9781C195.511 19.3526 196.098 21.3914 196.873 22.5108C197.25 23.0646 197.704 23.6744 198.302 23.6525C198.867 23.6303 199.088 23.2866 199.775 23.2866C200.461 23.2866 200.661 23.6525 201.259 23.6414C201.879 23.6303 202.267 23.0873 202.643 22.533C203.075 21.9016 203.252 21.292 203.263 21.2586C203.252 21.2475 202.067 20.7929 202.056 19.4299C202.045 18.2886 202.987 17.7458 203.031 17.7121C202.499 16.9258 201.669 16.8371 201.381 16.8148Z" fill="#000008"/>
<path d="M207.843 15.2703C209.456 15.2703 210.579 16.3822 210.579 18.001C210.579 19.6256 209.433 20.7433 207.802 20.7433H206.016V23.5835H204.726V15.2703L207.843 15.2703ZM206.016 19.6602H207.497C208.62 19.6602 209.26 19.0553 209.26 18.0068C209.26 16.9583 208.62 16.3592 207.503 16.3592H206.016V19.6602Z" fill="#000008"/>
<path d="M210.916 21.861C210.916 20.8008 211.728 20.1499 213.169 20.0692L214.828 19.9713V19.5047C214.828 18.8306 214.373 18.4274 213.612 18.4274C212.892 18.4274 212.443 18.773 212.333 19.3146H211.158C211.227 18.2199 212.16 17.4134 213.658 17.4134C215.127 17.4134 216.066 18.1911 216.066 19.4067V23.5835H214.874V22.5868H214.845C214.494 23.2609 213.727 23.6871 212.933 23.6871C211.746 23.6871 210.916 22.9497 210.916 21.861ZM214.828 21.3137V20.8355L213.336 20.9276C212.592 20.9795 212.172 21.3079 212.172 21.8264C212.172 22.3563 212.61 22.702 213.278 22.702C214.148 22.702 214.828 22.1029 214.828 21.3137Z" fill="#000008"/>
<path d="M217.192 25.813V24.8048C217.284 24.8278 217.492 24.8278 217.595 24.8278C218.171 24.8278 218.483 24.5859 218.673 23.9637C218.673 23.9522 218.782 23.595 218.782 23.5892L216.593 17.5228H217.941L219.474 22.4543H219.497L221.029 17.5228H222.343L220.073 23.9003C219.554 25.3694 218.955 25.8418 217.699 25.8418C217.595 25.8418 217.284 25.8303 217.192 25.813Z" fill="#000008"/>
</g>
<g filter="url(#filter4_dd_26_1170)">
<rect x="244.457" y="5" width="46.6143" height="30.0304" rx="5.37857" fill="white"/>
<rect x="244.345" y="4.88795" width="46.8384" height="30.2545" rx="5.49062" stroke="#D6DCE5" stroke-width="0.224107"/>
<path d="M266.751 23.6141H265.703V15.4558H268.482C269.186 15.4558 269.787 15.6906 270.279 16.1602C270.781 16.6299 271.032 17.2032 271.032 17.8803C271.032 18.5739 270.781 19.1472 270.279 19.6114C269.793 20.0755 269.192 20.3049 268.482 20.3049H266.751V23.6141ZM266.751 16.4606V19.3056H268.504C268.919 19.3056 269.268 19.1636 269.541 18.8851C269.82 18.6066 269.962 18.2681 269.962 17.8858C269.962 17.509 269.82 17.1759 269.541 16.8974C269.268 16.608 268.924 16.466 268.504 16.466H266.751V16.4606Z" fill="#3C4043"/>
<path d="M273.773 17.8476C274.549 17.8476 275.16 18.0551 275.608 18.4701C276.056 18.8851 276.28 19.453 276.28 20.1738V23.6141H275.28V22.8386H275.237C274.805 23.4775 274.226 23.7943 273.506 23.7943C272.889 23.7943 272.375 23.6141 271.96 23.2482C271.545 22.8823 271.338 22.4291 271.338 21.883C271.338 21.3042 271.556 20.8455 271.993 20.5069C272.43 20.1629 273.014 19.9936 273.74 19.9936C274.363 19.9936 274.876 20.1083 275.275 20.3377V20.0974C275.275 19.7315 275.133 19.4257 274.844 19.1691C274.554 18.9124 274.216 18.7868 273.828 18.7868C273.244 18.7868 272.779 19.0325 272.441 19.5295L271.518 18.9506C272.026 18.2134 272.779 17.8476 273.773 17.8476ZM272.419 21.8994C272.419 22.1724 272.534 22.4018 272.768 22.582C272.998 22.7622 273.271 22.855 273.582 22.855C274.024 22.855 274.418 22.6912 274.762 22.3636C275.106 22.0359 275.28 21.6537 275.28 21.2114C274.953 20.9547 274.5 20.8237 273.915 20.8237C273.489 20.8237 273.134 20.9274 272.85 21.1294C272.561 21.3424 272.419 21.5991 272.419 21.8994Z" fill="#3C4043"/>
<path d="M281.981 18.0278L278.486 26.066H277.405L278.704 23.2537L276.4 18.0278H277.541L279.201 22.036H279.223L280.839 18.0278H281.981Z" fill="#3C4043"/>
<path d="M262.581 19.6441C262.581 19.3023 262.55 18.9752 262.493 18.6607H258.098V20.4627L260.63 20.4633C260.527 21.0628 260.196 21.574 259.69 21.9147V23.0838H261.197C262.077 22.2696 262.581 21.0661 262.581 19.6441Z" fill="#4285F4"/>
<path d="M259.691 21.9148C259.271 22.1976 258.731 22.3631 258.1 22.3631C256.879 22.3631 255.844 21.5407 255.473 20.4322H253.919V21.6379C254.689 23.1658 256.271 24.2142 258.1 24.2142C259.363 24.2142 260.425 23.7987 261.197 23.0833L259.691 21.9148Z" fill="#34A853"/>
<path d="M255.327 19.5377C255.327 19.2264 255.378 18.9255 255.473 18.6427V17.4369H253.919C253.6 18.0687 253.421 18.7819 253.421 19.5377C253.421 20.2934 253.601 21.0066 253.919 21.6384L255.473 20.4327C255.378 20.1498 255.327 19.8489 255.327 19.5377Z" fill="#FABB05"/>
<path d="M258.1 16.7118C258.789 16.7118 259.407 16.9493 259.894 17.4135L261.23 16.0794C260.419 15.3242 259.362 14.8606 258.1 14.8606C256.272 14.8606 254.689 15.909 253.919 17.4369L255.473 18.6427C255.844 17.5341 256.879 16.7118 258.1 16.7118Z" fill="#E94235"/>
</g>
<defs>
<filter id="filter0_dd_26_1170" x="0.811593" y="0.293736" width="64.9911" height="48.4071" filterUnits="userSpaceOnUse" color-interpolation-filters="sRGB">
<feFlood flood-opacity="0" result="BackgroundImageFix"/>
<feColorMatrix in="SourceAlpha" type="matrix" values="0 0 0 0 0 0 0 0 0 0 0 0 0 0 0 0 0 0 127 0" result="hardAlpha"/>
<feOffset dy="0.448214"/>
<feGaussianBlur stdDeviation="2.24107"/>
<feColorMatrix type="matrix" values="0 0 0 0 0.717647 0 0 0 0 0.717647 0 0 0 0 0.717647 0 0 0 0.08 0"/>
<feBlend mode="normal" in2="BackgroundImageFix" result="effect1_dropShadow_26_1170"/>
<feColorMatrix in="SourceAlpha" type="matrix" values="0 0 0 0 0 0 0 0 0 0 0 0 0 0 0 0 0 0 127 0" result="hardAlpha"/>
<feOffset dy="4.48214"/>
<feGaussianBlur stdDeviation="4.48214"/>
<feColorMatrix type="matrix" values="0 0 0 0 0.717647 0 0 0 0 0.717647 0 0 0 0 0.717647 0 0 0 0.08 0"/>
<feBlend mode="normal" in2="effect1_dropShadow_26_1170" result="effect2_dropShadow_26_1170"/>
<feBlend mode="normal" in="SourceGraphic" in2="effect2_dropShadow_26_1170" result="shape"/>
</filter>
<filter id="filter1_dd_26_1170" x="59.4259" y="0.293736" width="64.9911" height="48.4071" filterUnits="userSpaceOnUse" color-interpolation-filters="sRGB">
<feFlood flood-opacity="0" result="BackgroundImageFix"/>
<feColorMatrix in="SourceAlpha" type="matrix" values="0 0 0 0 0 0 0 0 0 0 0 0 0 0 0 0 0 0 127 0" result="hardAlpha"/>
<feOffset dy="0.448214"/>
<feGaussianBlur stdDeviation="2.24107"/>
<feColorMatrix type="matrix" values="0 0 0 0 0.717647 0 0 0 0 0.717647 0 0 0 0 0.717647 0 0 0 0.08 0"/>
<feBlend mode="normal" in2="BackgroundImageFix" result="effect1_dropShadow_26_1170"/>
<feColorMatrix in="SourceAlpha" type="matrix" values="0 0 0 0 0 0 0 0 0 0 0 0 0 0 0 0 0 0 127 0" result="hardAlpha"/>
<feOffset dy="4.48214"/>
<feGaussianBlur stdDeviation="4.48214"/>
<feColorMatrix type="matrix" values="0 0 0 0 0.717647 0 0 0 0 0.717647 0 0 0 0 0.717647 0 0 0 0.08 0"/>
<feBlend mode="normal" in2="effect1_dropShadow_26_1170" result="effect2_dropShadow_26_1170"/>
<feBlend mode="normal" in="SourceGraphic" in2="effect2_dropShadow_26_1170" result="shape"/>
</filter>
<filter id="filter2_dd_26_1170" x="118.04" y="0.293736" width="64.9911" height="48.4071" filterUnits="userSpaceOnUse" color-interpolation-filters="sRGB">
<feFlood flood-opacity="0" result="BackgroundImageFix"/>
<feColorMatrix in="SourceAlpha" type="matrix" values="0 0 0 0 0 0 0 0 0 0 0 0 0 0 0 0 0 0 127 0" result="hardAlpha"/>
<feOffset dy="0.448214"/>
<feGaussianBlur stdDeviation="2.24107"/>
<feColorMatrix type="matrix" values="0 0 0 0 0.717647 0 0 0 0 0.717647 0 0 0 0 0.717647 0 0 0 0.08 0"/>
<feBlend mode="normal" in2="BackgroundImageFix" result="effect1_dropShadow_26_1170"/>
<feColorMatrix in="SourceAlpha" type="matrix" values="0 0 0 0 0 0 0 0 0 0 0 0 0 0 0 0 0 0 127 0" result="hardAlpha"/>
<feOffset dy="4.48214"/>
<feGaussianBlur stdDeviation="4.48214"/>
<feColorMatrix type="matrix" values="0 0 0 0 0.717647 0 0 0 0 0.717647 0 0 0 0 0.717647 0 0 0 0.08 0"/>
<feBlend mode="normal" in2="effect1_dropShadow_26_1170" result="effect2_dropShadow_26_1170"/>
<feBlend mode="normal" in="SourceGraphic" in2="effect2_dropShadow_26_1170" result="shape"/>
</filter>
<filter id="filter3_dd_26_1170" x="176.654" y="0.293736" width="64.9911" height="48.4071" filterUnits="userSpaceOnUse" color-interpolation-filters="sRGB">
<feFlood flood-opacity="0" result="BackgroundImageFix"/>
<feColorMatrix in="SourceAlpha" type="matrix" values="0 0 0 0 0 0 0 0 0 0 0 0 0 0 0 0 0 0 127 0" result="hardAlpha"/>
<feOffset dy="0.448214"/>
<feGaussianBlur stdDeviation="2.24107"/>
<feColorMatrix type="matrix" values="0 0 0 0 0.717647 0 0 0 0 0.717647 0 0 0 0 0.717647 0 0 0 0.08 0"/>
<feBlend mode="normal" in2="BackgroundImageFix" result="effect1_dropShadow_26_1170"/>
<feColorMatrix in="SourceAlpha" type="matrix" values="0 0 0 0 0 0 0 0 0 0 0 0 0 0 0 0 0 0 127 0" result="hardAlpha"/>
<feOffset dy="4.48214"/>
<feGaussianBlur stdDeviation="4.48214"/>
<feColorMatrix type="matrix" values="0 0 0 0 0.717647 0 0 0 0 0.717647 0 0 0 0 0.717647 0 0 0 0.08 0"/>
<feBlend mode="normal" in2="effect1_dropShadow_26_1170" result="effect2_dropShadow_26_1170"/>
<feBlend mode="normal" in="SourceGraphic" in2="effect2_dropShadow_26_1170" result="shape"/>
</filter>
<filter id="filter4_dd_26_1170" x="235.269" y="0.293736" width="64.9911" height="48.4071" filterUnits="userSpaceOnUse" color-interpolation-filters="sRGB">
<feFlood flood-opacity="0" result="BackgroundImageFix"/>
<feColorMatrix in="SourceAlpha" type="matrix" values="0 0 0 0 0 0 0 0 0 0 0 0 0 0 0 0 0 0 127 0" result="hardAlpha"/>
<feOffset dy="0.448214"/>
<feGaussianBlur stdDeviation="2.24107"/>
<feColorMatrix type="matrix" values="0 0 0 0 0.717647 0 0 0 0 0.717647 0 0 0 0 0.717647 0 0 0 0.08 0"/>
<feBlend mode="normal" in2="BackgroundImageFix" result="effect1_dropShadow_26_1170"/>
<feColorMatrix in="SourceAlpha" type="matrix" values="0 0 0 0 0 0 0 0 0 0 0 0 0 0 0 0 0 0 127 0" result="hardAlpha"/>
<feOffset dy="4.48214"/>
<feGaussianBlur stdDeviation="4.48214"/>
<feColorMatrix type="matrix" values="0 0 0 0 0.717647 0 0 0 0 0.717647 0 0 0 0 0.717647 0 0 0 0.08 0"/>
<feBlend mode="normal" in2="effect1_dropShadow_26_1170" result="effect2_dropShadow_26_1170"/>
<feBlend mode="normal" in="SourceGraphic" in2="effect2_dropShadow_26_1170" result="shape"/>
</filter>
</defs>
</svg>
