<svg width="50" height="51" viewBox="0 0 50 51" fill="none" xmlns="http://www.w3.org/2000/svg">
<g clip-path="url(#clip0_104_181)">
<path d="M11.8164 8.08081C12.8951 8.08081 13.7695 7.20637 13.7695 6.12769C13.7695 5.049 12.8951 4.17456 11.8164 4.17456C10.7377 4.17456 9.86328 5.049 9.86328 6.12769C9.86328 7.20637 10.7377 8.08081 11.8164 8.08081Z" fill="#FEE431"/>
<path d="M38.1836 8.08081C39.2623 8.08081 40.1367 7.20637 40.1367 6.12769C40.1367 5.049 39.2623 4.17456 38.1836 4.17456C37.1049 4.17456 36.2305 5.049 36.2305 6.12769C36.2305 7.20637 37.1049 8.08081 38.1836 8.08081Z" fill="#FEE431"/>
<path d="M47.0429 7.60337C48.8751 5.66128 50 3.04497 50 0.170654H47.0703C47.0703 4.53237 43.5218 8.08081 39.1602 8.08081H38.1836H30.8594V11.0105H39.1602C40.8867 11.0105 42.5198 10.6041 43.97 9.88296L42.1741 39.6053L43.7693 44.7899C40.8961 45.5771 33.7831 47.241 25 47.241C16.2375 47.241 9.10938 45.5757 6.23096 44.7889L7.82588 39.6053L6.02998 9.88296C7.48018 10.6041 9.11328 11.0105 10.8398 11.0105H19.1406V8.08081H11.8164H10.8398C6.47822 8.08081 2.92969 4.53237 2.92969 0.170654H0C0 3.04497 1.1249 5.66128 2.95713 7.60337L4.86943 39.2516L2.57354 46.7132L3.93125 47.1659C4.29932 47.2885 13.0829 50.1707 25 50.1707C36.9171 50.1707 45.7007 47.2885 46.0687 47.1658L47.4264 46.7131L45.1305 39.2515L47.0429 7.60337Z" fill="#FEE431"/>
<path d="M36.2305 25.1707C36.2305 18.9782 31.1925 13.9402 25 13.9402C18.8075 13.9402 13.7695 18.9782 13.7695 25.1707C13.7695 27.0553 12.2362 28.5886 10.3516 28.5886V31.5183C13.8517 31.5183 16.6992 28.6708 16.6992 25.1707C16.6992 20.5936 20.4229 16.8699 25 16.8699C29.5771 16.8699 33.3008 20.5936 33.3008 25.1707C33.3008 28.6708 36.1483 31.5183 39.6484 31.5183V28.5886C37.7638 28.5886 36.2305 27.0553 36.2305 25.1707Z" fill="#FEE431"/>
<path d="M30.8594 29.6628V26.7332H26.4648V19.7996H23.5352V26.7332H19.1406V29.6628H23.5352V35.5222H19.1406V38.4519H23.5352V41.3816H26.4648V38.4519H30.8594V35.5222H26.4648V29.6628H30.8594Z" fill="#FEE431"/>
</g>
<defs>
<clipPath id="clip0_104_181">
<rect width="50" height="50" fill="white" transform="translate(0 0.170654)"/>
</clipPath>
</defs>
</svg>
