<svg width="70" height="70" viewBox="0 0 70 70" fill="none" xmlns="http://www.w3.org/2000/svg">
<mask id="path-1-inside-1_104_230" fill="white">
<path d="M35 2.99576C35 1.34125 36.3438 -0.013321 37.9922 0.128113C44.2344 0.663674 50.2384 2.86746 55.3637 6.53386C61.3036 10.7831 65.7655 16.784 68.1243 23.6959C70.4831 30.6079 70.6206 38.0845 68.5175 45.0785C66.4145 52.0725 62.1762 58.2334 56.3965 62.6982C50.6168 67.1629 43.5853 69.7078 36.2869 69.9763C28.9885 70.2449 21.7889 68.2236 15.6967 64.1956C9.60459 60.1677 4.92507 54.3349 2.31374 47.5143C0.0605815 41.6293 -0.555416 35.2633 0.502852 29.0882C0.782326 27.4575 2.43236 26.4994 4.03324 26.9172C5.63412 27.3351 6.57675 28.971 6.32615 30.6065C5.5663 35.5653 6.10325 40.6551 7.90919 45.372C10.0735 51.025 13.9519 55.8593 19.0012 59.1977C24.0505 62.5361 30.0176 64.2114 36.0666 63.9889C42.1156 63.7663 47.9434 61.6571 52.7337 57.9566C57.524 54.2562 61.0367 49.1499 62.7798 43.3532C64.5228 37.5565 64.4088 31.3597 62.4538 25.631C60.4989 19.9023 56.8008 14.9287 51.8777 11.4069C47.7697 8.4682 42.9806 6.66323 37.9906 6.14606C36.3448 5.97551 35 4.65028 35 2.99576Z"/>
</mask>
<path d="M35 2.99576C35 1.34125 36.3438 -0.013321 37.9922 0.128113C44.2344 0.663674 50.2384 2.86746 55.3637 6.53386C61.3036 10.7831 65.7655 16.784 68.1243 23.6959C70.4831 30.6079 70.6206 38.0845 68.5175 45.0785C66.4145 52.0725 62.1762 58.2334 56.3965 62.6982C50.6168 67.1629 43.5853 69.7078 36.2869 69.9763C28.9885 70.2449 21.7889 68.2236 15.6967 64.1956C9.60459 60.1677 4.92507 54.3349 2.31374 47.5143C0.0605815 41.6293 -0.555416 35.2633 0.502852 29.0882C0.782326 27.4575 2.43236 26.4994 4.03324 26.9172C5.63412 27.3351 6.57675 28.971 6.32615 30.6065C5.5663 35.5653 6.10325 40.6551 7.90919 45.372C10.0735 51.025 13.9519 55.8593 19.0012 59.1977C24.0505 62.5361 30.0176 64.2114 36.0666 63.9889C42.1156 63.7663 47.9434 61.6571 52.7337 57.9566C57.524 54.2562 61.0367 49.1499 62.7798 43.3532C64.5228 37.5565 64.4088 31.3597 62.4538 25.631C60.4989 19.9023 56.8008 14.9287 51.8777 11.4069C47.7697 8.4682 42.9806 6.66323 37.9906 6.14606C36.3448 5.97551 35 4.65028 35 2.99576Z" stroke="#FAA432" stroke-width="12" mask="url(#path-1-inside-1_104_230)"/>
</svg>
