<svg width="70" height="70" viewBox="0 0 70 70" fill="none" xmlns="http://www.w3.org/2000/svg">
<mask id="path-1-inside-1_104_221" fill="white">
<path d="M35 2.99576C35 1.34125 36.3438 -0.0133285 37.9923 0.128087C45.2546 0.751098 52.1695 3.63017 57.747 8.39975C64.0862 13.8207 68.2811 21.3273 69.5758 29.5672C70.8705 37.8072 69.1799 46.2386 64.8087 53.3424C60.4374 60.4462 53.6729 65.7554 45.7338 68.3134C37.7947 70.8715 29.2031 70.5101 21.5069 67.2945C13.8106 64.0789 7.51578 58.2205 3.75645 50.7747C-0.0028836 43.3289 -0.979525 34.7853 1.00248 26.6832C2.74634 19.5546 6.67969 13.1802 12.2122 8.43458C13.468 7.35739 15.3499 7.67265 16.3158 9.01594C17.2817 10.3592 16.9634 12.2203 15.7269 13.3196C11.3446 17.2151 8.22681 22.366 6.8224 28.1069C5.17969 34.8221 5.98914 41.9031 9.10492 48.0743C12.2207 54.2454 17.438 59.101 23.8167 61.7661C30.1955 64.4313 37.3163 64.7308 43.8963 62.6106C50.4763 60.4905 56.0829 56.0902 59.7058 50.2024C63.3288 44.3147 64.7299 37.3266 63.6569 30.4973C62.5838 23.6679 59.1071 17.4463 53.853 12.9534C49.3612 9.1122 43.8228 6.75044 37.9906 6.14604C36.3449 5.9755 35 4.65028 35 2.99576Z"/>
</mask>
<path d="M35 2.99576C35 1.34125 36.3438 -0.0133285 37.9923 0.128087C45.2546 0.751098 52.1695 3.63017 57.747 8.39975C64.0862 13.8207 68.2811 21.3273 69.5758 29.5672C70.8705 37.8072 69.1799 46.2386 64.8087 53.3424C60.4374 60.4462 53.6729 65.7554 45.7338 68.3134C37.7947 70.8715 29.2031 70.5101 21.5069 67.2945C13.8106 64.0789 7.51578 58.2205 3.75645 50.7747C-0.0028836 43.3289 -0.979525 34.7853 1.00248 26.6832C2.74634 19.5546 6.67969 13.1802 12.2122 8.43458C13.468 7.35739 15.3499 7.67265 16.3158 9.01594C17.2817 10.3592 16.9634 12.2203 15.7269 13.3196C11.3446 17.2151 8.22681 22.366 6.8224 28.1069C5.17969 34.8221 5.98914 41.9031 9.10492 48.0743C12.2207 54.2454 17.438 59.101 23.8167 61.7661C30.1955 64.4313 37.3163 64.7308 43.8963 62.6106C50.4763 60.4905 56.0829 56.0902 59.7058 50.2024C63.3288 44.3147 64.7299 37.3266 63.6569 30.4973C62.5838 23.6679 59.1071 17.4463 53.853 12.9534C49.3612 9.1122 43.8228 6.75044 37.9906 6.14604C36.3449 5.9755 35 4.65028 35 2.99576Z" stroke="#FAA432" stroke-width="12" mask="url(#path-1-inside-1_104_221)"/>
</svg>
