<svg width="64" height="70" viewBox="0 0 64 70" fill="none" xmlns="http://www.w3.org/2000/svg">
<mask id="path-1-inside-1_104_211" fill="white">
<path d="M29 2.99576C29 1.34125 30.3437 -0.0133166 31.9922 0.128126C37.0111 0.558765 41.8905 2.06903 46.2907 4.56921C51.5613 7.56395 55.9637 11.8763 59.0668 17.0838C62.1698 22.2914 63.8672 28.2156 63.9925 34.2763C64.1179 40.337 62.6669 46.3263 59.7818 51.6577C56.8967 56.9892 52.6763 61.4798 47.534 64.6899C42.3918 67.9 36.5039 69.7194 30.4471 69.9701C24.3903 70.2207 18.3722 68.8939 12.9823 66.1197C8.48248 63.8035 4.5493 60.5449 1.44358 56.5788C0.423511 55.2761 0.822512 53.4103 2.20759 52.5054C3.59267 51.6004 5.43767 52.0013 6.4806 53.2858C9.00277 56.3919 12.1476 58.9514 15.7243 60.7924C20.1915 63.0917 25.1794 64.1914 30.1994 63.9837C35.2193 63.7759 40.0993 62.2679 44.3613 59.6074C48.6232 56.9468 52.1211 53.2249 54.5124 48.8062C56.9036 44.3874 58.1062 39.4234 58.0023 34.4002C57.8984 29.377 56.4916 24.4669 53.9197 20.1508C51.3479 15.8347 47.6991 12.2606 43.3307 9.77855C39.8332 7.79125 35.9704 6.55856 31.9905 6.14608C30.3448 5.97551 29 4.65028 29 2.99576Z"/>
</mask>
<path d="M29 2.99576C29 1.34125 30.3437 -0.0133166 31.9922 0.128126C37.0111 0.558765 41.8905 2.06903 46.2907 4.56921C51.5613 7.56395 55.9637 11.8763 59.0668 17.0838C62.1698 22.2914 63.8672 28.2156 63.9925 34.2763C64.1179 40.337 62.6669 46.3263 59.7818 51.6577C56.8967 56.9892 52.6763 61.4798 47.534 64.6899C42.3918 67.9 36.5039 69.7194 30.4471 69.9701C24.3903 70.2207 18.3722 68.8939 12.9823 66.1197C8.48248 63.8035 4.5493 60.5449 1.44358 56.5788C0.423511 55.2761 0.822512 53.4103 2.20759 52.5054C3.59267 51.6004 5.43767 52.0013 6.4806 53.2858C9.00277 56.3919 12.1476 58.9514 15.7243 60.7924C20.1915 63.0917 25.1794 64.1914 30.1994 63.9837C35.2193 63.7759 40.0993 62.2679 44.3613 59.6074C48.6232 56.9468 52.1211 53.2249 54.5124 48.8062C56.9036 44.3874 58.1062 39.4234 58.0023 34.4002C57.8984 29.377 56.4916 24.4669 53.9197 20.1508C51.3479 15.8347 47.6991 12.2606 43.3307 9.77855C39.8332 7.79125 35.9704 6.55856 31.9905 6.14608C30.3448 5.97551 29 4.65028 29 2.99576Z" stroke="#FAA432" stroke-width="12" mask="url(#path-1-inside-1_104_211)"/>
</svg>
