<svg width="407" height="699" viewBox="0 0 407 699" fill="none" xmlns="http://www.w3.org/2000/svg">
<g clip-path="url(#clip0_104_199)">
<path d="M168.677 382.461C172.031 386.029 176.081 389.176 180.796 390.739C184.908 392.105 190.952 393.239 193.719 388.919C195.379 386.327 194.933 383.73 193.765 381.023C192.582 378.419 191.281 375.901 189.876 373.369C188.122 370.361 186.369 367.354 184.615 364.346C188.311 369.125 192.363 373.643 196.653 377.986C198.928 380.336 201.22 382.583 203.63 384.742C205.85 386.767 208.275 388.824 211.049 389.985C216.817 392.235 223.396 389.868 225.868 384.028C227.33 380.668 227.381 376.883 226.68 373.193C228.479 374.521 230.413 375.66 232.6 376.52C236.664 378.195 240.989 378.855 245.409 378.898C249.194 378.949 253.685 379.213 257.136 377.317C261.031 375.277 263.52 370.704 262.177 366.389C260.977 362.518 257.741 358.863 254.911 356.007C253.452 354.519 251.977 353.135 250.281 351.822C253.497 352.84 256.745 353.652 260.041 354.156C267.97 355.366 277.156 354.556 284.367 350.81C287.802 349.016 290.817 346.526 292.619 343.007C294.555 339.299 294.835 334.705 293.753 330.746C292.79 326.7 290.529 322.877 286.97 320.648C283.515 318.434 279.593 317.203 275.593 316.487C273.343 316.038 271.078 315.692 268.781 315.552C271.013 314.734 273.158 313.797 275.232 312.638C278.43 311.019 281.659 309.194 284.333 306.862C286.889 304.618 289.23 301.709 289.353 298.145C289.563 294.699 288.062 291.414 285.699 288.946C280.522 283.519 273.076 282.593 265.956 282.981C263.937 283.094 262.005 283.326 260.041 283.763C260.278 283.589 260.413 283.399 260.65 283.224C264.709 279.418 267.539 274.687 268.8 269.189C269.848 264.396 269.121 258.806 265.545 255.309C261.692 251.559 255.428 251.867 250.542 252.807C247.383 253.484 244.208 254.264 241.104 255.265C242.995 253.236 244.814 250.984 246.237 248.567C248.545 244.494 248.682 239.456 248.122 234.84C247.906 232.805 247.262 230.809 245.922 229.235C244.495 227.542 242.545 226.506 240.43 225.867C235.803 224.423 230.98 224.951 226.316 225.82C223.498 226.338 220.647 227.062 217.9 227.801C216.688 228.143 215.461 228.588 214.147 228.914C213.004 226.737 211.062 224.966 208.487 224.572C201.881 223.669 195.662 228.515 191.493 233.042C186.312 238.679 183.254 245.588 180.078 252.585C179.296 254.257 178.498 256.032 177.716 257.704C178.876 253.561 179.711 249.473 180.149 245.22C180.487 242.321 180.737 239.303 180.353 236.294C180.01 233.712 179.048 231.036 176.584 229.922C172.242 227.995 167.344 231.778 164.662 234.846C160.85 239.111 158.377 244.951 156.395 250.339C154.2 256.432 152.592 262.825 151.498 269.297C149.075 283.785 148.886 298.825 150.78 313.34C147.264 314.279 144.216 315.605 141.526 318.039C140.292 319.22 139.145 320.521 138.189 321.955C138.07 322.042 138.038 322.248 137.92 322.336C137.904 322.439 137.801 322.423 137.785 322.526C137.516 322.906 137.351 323.302 137.185 323.699C137.169 323.802 137.169 323.802 137.05 323.889C137.035 323.992 136.916 324.079 136.9 324.182C136.403 325.371 136.008 326.575 135.803 327.914C135.576 330.092 135.761 332.333 136.626 334.257C130.974 336.766 126.163 340.668 120.916 343.976C115.076 347.721 109.163 351.244 103.323 354.989C93.7149 361.319 84.1788 367.872 74.9201 374.678C78.2808 369.922 81.261 364.897 83.742 359.691C88.6725 349.485 91.9154 338.599 94.4532 327.501C97.0067 316.299 99.267 304.947 99.9512 293.566C100.34 286.881 99.9759 280.292 99.6278 273.6C99.4817 270.416 99.2326 267.217 99.3954 264.08C99.5582 260.944 99.0717 257.919 97.9516 254.903C97.1019 252.876 94.7893 252.839 93.3177 254.195C90.8493 256.558 90.4263 260.709 89.8359 263.885C88.9695 268.179 87.5725 272.497 86.5002 276.759C85.1991 281.829 84.0167 286.812 82.4224 291.732C80.931 296.668 79.0278 301.541 76.8314 306.263C68.1171 325.376 57.0415 343.39 49.0324 362.716C44.5224 373.619 41.5098 385.066 39.527 396.671C39.3697 397.701 39.7746 398.5 40.4325 399.022C39.982 399.902 39.5159 400.885 39.0497 401.867C38.5835 402.85 38.236 403.745 37.8729 404.743C37.8571 404.846 37.8257 405.052 37.707 405.14C29.8271 412.577 22.3119 420.387 15.439 428.821C2.38098 444.636 -9.55142 461.361 -21.0004 478.369C-16.3544 468.647 -11.9143 458.892 -7.75175 448.885C0.328895 429.781 8.13207 410.424 14.8182 390.791C18.1098 380.966 21.1082 370.992 23.5917 360.939C26.1066 350.68 28.0037 340.326 29.9165 329.87C31.3962 321.56 32.6699 313.219 33.9278 304.981C33.975 304.672 34.1094 304.482 34.2596 304.189C34.7729 302.897 35.5795 301.756 36.1958 300.48C37.4842 298.253 37.7743 295.663 38.8726 293.301C40.0895 290.853 41.7183 288.467 43.2284 286.169C46.2487 281.572 49.9426 277.394 53.5335 273.2C57.3776 268.729 61.0472 264.02 64.9785 259.668C68.6567 255.593 72.5094 251.755 75.8228 247.309C79.255 242.775 81.8232 237.687 84.2885 232.584C86.7695 227.378 89.0603 222.037 91.2481 216.681C93.6333 210.723 96.0184 204.764 98.6967 198.956C100.111 195.905 101.51 192.957 102.718 189.875C103.926 186.793 105.031 183.695 106.533 180.763C107.118 179.693 106.601 178.244 105.532 177.659C104.477 176.972 103.266 177.314 102.388 178.233C99.7537 180.992 96.4773 183.126 93.5498 185.735C90.3693 188.622 87.3789 191.643 84.3013 194.545C78.3678 200.277 72.5059 206.232 67.4048 212.724C62.4382 219.026 58.1137 225.953 54.2012 232.942C50.17 240.019 46.3447 247.128 43.1059 254.537C41.3442 258.483 39.7727 262.563 38.2012 266.644C38.9026 256.529 39.1765 246.455 38.4048 236.326C37.6803 225.889 36.5282 215.491 35.582 205.125C35.4304 204.048 35.3974 202.884 35.2457 201.807C35.8392 201.371 36.3454 200.816 36.7487 200.245C40.9063 199.931 45.174 198.897 49.1327 197.815C54.9521 196.28 60.454 194.065 65.7412 191.184C68.274 189.779 70.9255 188.287 73.2838 186.645C75.6421 185.003 78.0633 182.949 79.3117 180.295C79.928 179.019 80.0451 177.561 79.9406 176.175C79.7402 174.037 77.8781 173.121 75.9687 172.513C72.855 171.511 69.6242 171.966 66.4964 172.436C60.8743 173.369 55.5069 175.395 50.5443 178.22C57.3411 165.453 61.4275 151.114 63.5102 136.784C64.5237 129.457 65.2282 122.083 64.8715 114.758C64.5463 107.226 63.1284 99.9494 61.0612 92.7842C58.7951 84.851 55.864 77.1324 51.6901 69.9616C49.6904 66.495 47.4533 63.2028 44.8758 60.0694C43.7258 58.6293 42.5601 57.2921 41.3944 55.9549C40.2444 54.5148 38.8884 53.0432 37.0978 52.3483C36.3054 52.0165 35.1569 51.9465 34.4133 52.676C27.3085 59.1783 22.4235 67.7056 18.3624 76.3587C13.9853 85.7011 10.2102 95.2409 8.24161 105.373C6.19437 116.019 5.74758 127.226 6.40917 138.076C7.11794 148.617 8.97517 159.227 12.5028 169.25C14.4097 174.705 16.8315 180.238 19.6408 185.303C20.5534 186.918 21.569 188.548 22.7033 190.092C17.1151 185.972 11.4397 181.733 4.69755 179.65C1.06902 178.569 -2.91561 177.749 -6.67703 178.229C-8.50625 178.476 -10.2081 179.27 -11.807 180.08C-13.6276 180.961 -14.4971 182.514 -14.4712 184.415C-14.7943 185.841 -14.6025 187.346 -13.6428 188.651C-12.58 189.973 -11.533 191.397 -10.2329 192.544C-7.63256 194.838 -4.39158 196.387 -1.22213 197.714C5.83759 200.478 13.4736 201.538 21.0066 202.583C22.7572 202.85 24.5078 203.118 26.3928 203.195C27.6442 203.281 29.0859 203.501 30.456 203.499C30.7427 211.973 31.663 220.438 32.2744 228.857C33.1333 239.104 33.596 249.186 33.0848 259.434C32.4123 274.19 30.6786 288.994 28.6359 303.751C27.768 306.675 27.0031 309.614 26.3411 312.569C26.0307 311.151 25.6329 309.615 25.3225 308.198C23.3567 299.678 21.185 291.127 18.0079 282.95C14.8308 274.772 10.6639 266.865 4.9383 260.195C-1.03338 253.066 -7.97038 246.737 -15.5795 241.36C-19.9548 238.269 -24.4959 235.573 -29.2901 233.155C-34.4806 230.571 -39.9713 228.573 -45.7136 228.223C-47.377 228.075 -48.6112 229.256 -48.5538 230.951C-48.4564 233.073 -47.1791 235.06 -45.9733 236.825C-44.6645 238.605 -43.3714 240.489 -42.0627 242.269C-39.0403 246.63 -36.0494 251.196 -33.2487 255.628C-27.6316 264.389 -22.5765 273.38 -17.7589 282.546C-12.7352 291.744 -7.81462 300.925 -2.33193 309.876C0.365787 314.293 3.16648 318.725 6.07015 323.172C8.79932 327.383 11.394 331.783 14.4793 335.732C15.8038 337.409 17.1283 339.087 17.6376 341.272C18.1312 343.561 18.3002 345.905 18.3662 348.233C18.4007 350.767 18.0076 353.342 17.5115 355.9C16.9997 358.562 16.7811 361.374 16.2693 364.036C16.1435 364.859 16.461 365.54 16.9287 365.928C15.549 371.513 13.9791 376.963 12.1874 382.486C5.92891 402.079 -1.54961 421.38 -9.09965 440.459C-11.3661 446.331 -13.8385 452.17 -16.3109 458.01C-16.248 457.598 -16.0821 457.202 -16.0035 456.687C-12.9382 442.824 -11.9167 428.543 -12.5027 414.438C-12.9842 401.72 -14.7015 388.812 -17.8832 376.524C-20.8661 365.004 -25.2977 354 -31.7716 343.949C-35.6036 337.99 -40.1478 332.554 -45.4042 327.642C-50.9381 322.476 -56.891 317.984 -62.4249 312.819C-63.2573 312.059 -64.7304 312.045 -65.68 312.743C-66.7483 313.528 -66.937 314.764 -66.5794 315.873C-64.7668 321.945 -62.408 327.89 -60.255 333.804C-58.0864 339.615 -55.8148 345.441 -54.2082 351.482C-51.0107 363.668 -52.1525 376.665 -53.7147 388.967C-55.3242 401.577 -57.1238 414.053 -56.3334 426.819C-55.5358 438.848 -53.5183 451.169 -49.6959 462.712C-47.6931 468.919 -45.1597 475.102 -42.2703 481.023C-41.5479 482.503 -40.7068 483.896 -39.85 485.186C-38.9932 486.476 -38.3738 487.94 -37.8574 489.389C-36.9362 491.637 -36.1337 493.973 -35.4341 496.293C-36.3122 497.212 -36.6196 498.535 -35.9373 499.588C-36.5222 500.658 -37.107 501.728 -37.6919 502.797C-37.8421 503.091 -37.8892 503.399 -37.9364 503.708C-50.8082 523.135 -63.5771 542.576 -78.1452 560.69C-80.3676 563.512 -82.6772 566.215 -84.8995 569.037C-84.7336 568.641 -84.5835 568.347 -84.4176 567.951C-79.244 555.464 -77.7548 541.571 -78.5539 528.171C-79.4803 514.225 -83.3444 500.884 -88.0951 487.83C-90.6214 480.911 -93.4723 474.047 -96.4577 467.374C-99.3558 460.82 -102.373 454.353 -105.951 448.116C-109.951 441.182 -114.9 434.947 -120.545 429.132C-123.186 426.411 -125.961 423.879 -128.735 421.348C-131.526 418.92 -134.538 416.563 -138.332 415.878C-139.774 415.658 -141.349 416.998 -141.054 418.519C-139.59 424.116 -138.411 430.198 -137.541 436.232C-136.743 442.044 -136.063 447.943 -134.956 453.803C-132.741 465.522 -128.562 476.803 -126.007 488.363C-123.468 500.026 -121.712 511.991 -119.172 523.655C-116.633 535.318 -113.341 546.885 -111.554 558.644C-111.099 561.875 -110.659 565.209 -110.426 568.511C-110.177 571.71 -110.149 574.981 -109.797 578.196C-109.532 581.293 -109.03 584.215 -107.673 587.056C-107.109 588.196 -106.53 589.233 -106.172 590.342C-106.101 590.563 -105.958 591.006 -105.902 591.331C-106.171 591.712 -106.337 592.108 -106.415 592.623C-106.478 593.035 -106.422 593.359 -106.279 593.803C-114.411 602.888 -122.526 611.87 -130.555 620.971C-132.73 623.484 -134.89 625.894 -137.065 628.407C-139.359 631.008 -135.149 634.496 -132.84 631.792C-119.804 616.817 -106.286 602.126 -93.1475 587.167C-90.915 586.349 -88.6267 585.855 -86.6002 585.005C-79.8713 582.345 -73.3011 579.344 -66.4134 577.023C-59.7474 574.774 -53.1128 572.732 -46.5898 570.039C-40.0668 567.347 -33.6869 564.212 -27.656 560.601C-2.98597 546.033 17.6146 525.679 41.1661 509.465C54.5879 500.239 69.2399 493.308 82.892 484.644C84.5224 483.629 83.9415 481.222 82.4598 480.574C80.4073 479.523 77.7472 480.381 75.5061 480.566C72.5127 480.847 69.4878 481.333 66.5502 481.938C60.8094 482.958 55.0529 484.082 49.4709 485.442C37.998 488.116 26.8426 491.471 15.8861 495.594C5.26992 499.558 -5.14736 504.289 -15.1598 509.821C-25.0536 515.265 -34.3681 521.746 -43.3335 528.702C-46.7916 531.335 -50.1624 534.087 -53.4302 536.855C-46.5273 526.844 -39.8304 516.802 -33.1178 506.657C-28.034 498.898 -22.8629 491.257 -17.6762 483.514C-15.9672 481.983 -14.068 480.587 -12.1845 479.294C-9.94491 477.739 -7.3563 476.659 -4.7119 475.904C1.32919 474.297 7.94248 474.464 14.2068 474.156C21.4136 473.887 28.5646 473.293 35.6913 472.168C42.4932 471.099 49.3424 469.721 55.834 467.235C62.1038 464.82 68.0876 461.519 73.8096 457.862C79.7532 454.133 85.3479 449.929 90.9425 445.725C96.4185 441.608 101.997 437.508 107.561 433.51C113.836 428.988 119.818 424.317 125.38 418.949C131.045 413.596 136.36 407.769 141.66 402.045C143.298 400.293 141.528 397.388 139.271 397.676C136.484 397.988 133.911 398.965 131.322 400.045C128.734 401.125 126.161 402.102 123.66 403.301C118.585 405.477 113.44 407.431 108.079 408.72C102.497 410.08 96.788 410.895 91.0315 412.018C85.275 413.141 79.6458 414.81 74.0166 416.48C63.3046 419.691 52.3135 421.28 41.9591 425.6C31.8107 429.951 22.163 435.855 13.0702 442.264C12.0176 442.946 11.0523 443.747 10.1027 444.445C11.0279 443.217 11.9689 441.885 12.9971 440.672C20.9769 430.51 29.3057 420.823 38.5857 411.807C47.7469 402.879 57.5346 394.679 67.5841 386.835C77.6179 379.094 87.9134 371.709 98.4707 364.68C109.518 357.199 120.971 350.518 131.932 342.918C134.512 341.205 137.107 339.388 139.846 338.015C139.965 337.928 140.083 337.84 140.305 337.769C142.366 339.453 144.933 340.583 147.524 340.873C150.732 341.258 153.891 340.581 156.558 338.986C156.914 338.724 157.27 338.463 157.714 338.32C157.588 339.143 157.478 339.864 157.352 340.688C156.684 345.75 156.516 350.993 157.116 356.037C158.053 365.77 161.984 375.222 168.677 382.461ZM29.3333 92.1545C30.5629 86.8626 31.6895 81.555 32.5072 76.2003C33.0104 72.905 33.6165 69.6255 34.3414 66.2587C34.3414 66.2587 34.3414 66.2587 34.3256 66.3617C35.5974 70.4549 36.4101 74.7941 37.2385 79.0303C39.0785 88.3737 40.2849 97.7258 41.1509 107.237C41.9854 116.953 42.3767 126.813 41.7224 136.619C40.9966 146.203 40.0648 155.755 39.133 165.308C38.46 172.476 37.6839 179.628 37.4227 186.86C36.2626 183.416 34.9994 179.956 33.9422 176.528C31.2156 167.471 28.4889 158.413 26.6332 149.173C24.7932 139.829 24.3391 130.382 24.9462 120.885C25.7907 111.214 27.2688 101.534 29.3333 92.1545ZM53.345 182.652C56.7959 180.755 60.5243 179.112 64.3644 178.117C66.3437 177.577 68.3789 177.361 70.3111 177.129C71.9186 176.953 73.2888 176.951 74.596 177.362C74.4144 177.861 74.1299 178.344 73.6236 178.899C72.5954 180.112 71.2739 181.175 69.881 182.016C67.2853 183.832 64.5151 185.412 61.6577 186.872C55.4994 189.936 49.0708 192.01 42.4276 193.42C41.9842 193.563 41.4536 193.587 41.0102 193.73C41.9669 192.295 43.0423 190.774 43.8803 189.426C46.8078 186.817 49.894 184.549 53.345 182.652ZM36.5576 57.9562C36.8193 58.3123 37.1998 58.5811 37.4615 58.9372C38.2625 59.9026 39.1665 60.8836 40.0547 61.9676C42.0215 64.2701 43.8537 66.7629 45.5673 69.3428C48.8043 74.3683 51.4635 79.7271 53.5448 85.4192C57.7792 97.025 60.3745 109.013 59.945 121.487C59.4282 133.843 57.3038 146.374 53.4046 158.108C51.4471 164.027 49.0776 169.882 46.1218 175.437C44.3515 178.75 42.3909 181.928 40.4303 185.106C40.7488 179.57 41.289 173.962 41.8135 168.457C42.7453 158.904 43.677 149.352 44.4901 139.887C45.3189 130.318 45.1894 120.815 44.5451 111.232C43.885 101.753 42.6944 92.2979 41.0761 82.883C40.1675 77.7915 39.1402 72.7873 37.8913 67.8546C37.3662 65.7722 36.445 63.524 35.9357 61.3387C35.9829 61.0297 36.133 60.7365 36.1645 60.5306C36.3618 59.9285 36.1157 59.4694 35.7196 59.3035C35.7982 58.7886 36.1857 58.3209 36.5576 57.9562ZM7.53335 194.203C4.5942 193.438 1.58353 192.452 -1.17401 191.187C-3.4324 190.105 -5.67506 188.92 -7.27705 186.989C-7.72903 186.498 -8.11811 185.596 -8.6888 185.193C-8.79178 185.177 -8.77604 185.074 -8.77604 185.074C-8.7446 184.868 -8.71315 184.662 -8.78468 184.44C-8.4443 184.282 -8.07248 183.917 -7.8508 183.845C-5.68983 182.805 -3.18695 182.977 -0.818487 183.338C5.25712 184.266 10.5906 187.294 15.6395 190.804C18.4057 192.702 21.0932 195.115 23.9781 196.925C18.4732 196.401 12.9282 195.448 7.53335 194.203ZM25.7534 183.919C23.1272 179.724 21.1975 175.109 19.3551 170.612C15.6144 161.295 13.5441 151.389 12.535 141.435C11.5731 131.172 11.6009 120.638 13.1734 110.341C14.6986 100.352 17.9273 90.9397 21.9641 81.756C24.8712 75.1396 28.1187 68.3645 32.4761 62.6018C30.3472 71.0231 29.351 79.6173 27.428 88.07C25.2605 97.4337 23.6079 106.876 22.6604 116.532C21.7601 125.878 21.6993 135.247 23.1274 144.528C24.4682 153.69 27.0047 162.613 29.6598 171.448C31.202 176.531 32.7598 181.511 34.5237 186.522C34.8813 187.631 35.2232 188.842 35.5809 189.95C34.7028 190.87 33.706 191.877 32.9309 192.812C30.4407 189.798 27.7846 187.179 25.7534 183.919ZM45.5662 259.127C48.8208 251.616 52.6618 244.404 56.6057 237.209C60.3838 230.409 64.4708 223.657 69.2158 217.426C74.2139 210.919 79.9729 204.948 85.7877 199.303C89.1184 196.123 92.4648 192.841 95.8828 189.78C96.492 189.241 97.1013 188.701 97.7105 188.162C96.7467 190.333 95.9016 192.417 94.8348 194.573C92.4411 199.897 90.1503 205.238 87.9625 210.594C85.7747 215.951 83.5868 221.307 81.2088 226.529C78.8465 231.648 76.4685 236.87 73.3452 241.451C70.222 246.032 66.4409 250.091 62.6597 254.15C58.6254 258.487 54.9873 262.99 51.1432 267.461C48.6992 270.354 46.168 273.129 43.8112 276.141C46.5941 271.719 49.171 267.265 51.7636 262.708C54.1031 258.429 56.3396 254.134 58.7821 249.87C61.2245 245.606 63.9602 241.493 66.7831 237.498C69.8906 233.02 73.0854 228.66 75.9154 223.929C76.619 222.772 74.6852 221.634 73.8944 222.672C68.2643 230.559 62.5469 238.327 57.5904 246.632C52.634 254.938 48.3354 263.765 43.276 272.055C41.2997 275.336 39.1174 278.586 36.9352 281.836C39.6906 274.142 42.4303 266.552 45.5662 259.127ZM5.70886 311.737C0.0917416 302.975 -5.06628 293.968 -10.1056 284.874C-15.1135 275.574 -20.2401 266.361 -25.707 257.307C-28.8253 252.194 -32.1652 247.153 -35.5052 242.111C-37.1472 239.753 -38.6863 237.41 -40.3441 235.155C-40.7803 234.562 -41.3196 233.952 -41.8431 233.24C-38.6823 233.934 -35.6001 235.142 -32.6523 236.54C-28.619 238.421 -24.6485 240.713 -20.9155 243.18C-13.6396 247.979 -6.93295 253.745 -1.17585 260.209C4.50972 266.452 8.80232 273.535 12.0581 281.198C15.3295 288.758 17.6986 296.707 19.537 304.68C20.6115 309.375 21.9076 313.999 22.7761 318.663C23.3098 321.379 23.7247 324.182 23.7121 327.026C23.3976 329.085 23.0831 331.145 22.7529 333.307C22.6114 334.234 23.0005 335.136 23.6584 335.658C23.4854 336.791 23.2095 337.908 23.0365 339.041C22.8534 338.17 22.5673 337.283 22.1467 336.587C21.988 336.246 21.7262 335.89 21.5674 335.55C21.4244 335.106 21.2813 334.663 21.2412 334.235C20.7162 332.153 19.835 330.332 19.0883 328.322C17.4361 323.96 16.2115 319.558 14.8839 315.14C13.5563 310.722 12.213 306.407 10.4264 302.235C8.44951 297.929 6.14797 293.679 3.81499 289.634C1.16444 284.909 -1.72349 280.358 -4.37404 275.633C-5.19939 274.137 -7.43898 275.692 -6.51066 277.204C-1.86041 285.395 3.35189 293.357 7.40864 301.985C11.1321 310.036 12.9477 318.848 15.8874 327.201C15.3796 326.385 14.8718 325.57 14.2611 324.739C11.326 320.498 8.50955 316.169 5.70886 311.737ZM-93.1857 574.305C-92.9184 572.554 -92.857 570.772 -92.7957 568.99C-92.7445 565.205 -92.3686 561.363 -92.1115 557.609C-91.8543 553.854 -92.0248 550.14 -92.314 546.513C-92.8766 539.156 -93.7325 531.649 -95.1661 524.475C-96.5596 517.729 -98.4838 511.007 -100.748 504.444C-103.268 496.788 -106.23 489.276 -109.09 481.779C-109.622 480.433 -111.751 481.267 -111.219 482.613C-106.421 495.358 -101.402 508.033 -98.3772 521.35C-96.8806 528.112 -96.0177 534.883 -95.3765 541.725C-94.9843 545.368 -94.7108 549.098 -94.6433 552.796C-94.5758 556.495 -95.0389 560.218 -95.2961 563.972C-95.5689 567.829 -95.0652 572.121 -96.2806 575.94C-96.8411 577.54 -97.5046 579.125 -97.6532 580.788C-98.1752 581.446 -98.6814 582.001 -99.2034 582.659C-99.5752 583.024 -99.8441 583.404 -100.216 583.769L-100.335 583.856C-100.453 583.944 -100.469 584.047 -100.588 584.134C-101.213 584.776 -101.735 585.434 -102.257 586.092C-103.035 584.287 -103.829 582.585 -104.164 580.637C-104.579 577.834 -104.669 574.975 -104.862 572.1C-105.04 569.123 -105.336 566.232 -105.617 563.239C-107.048 551.218 -110.339 539.651 -112.966 527.869C-115.609 516.19 -117.483 504.312 -119.991 492.443C-121.202 486.568 -122.618 480.661 -124.359 474.811C-126.029 469.181 -127.801 463.536 -129.249 457.836C-130.793 451.383 -131.671 444.715 -132.653 438.032C-133.411 432.647 -134.479 427.215 -135.34 421.815C-133.905 422.772 -132.518 424.037 -131.321 425.168C-128.824 427.447 -126.429 429.709 -124.066 432.177C-119.135 437.146 -114.796 442.55 -111.186 448.581C-107.663 454.493 -104.821 460.723 -101.978 466.953C-98.993 473.626 -96.1263 480.386 -93.6 487.305C-88.8178 500.154 -84.7879 513.098 -83.6084 526.767C-82.5247 539.683 -83.8166 552.974 -88.5311 565.216C-89.7394 568.298 -91.2723 571.436 -93.1857 574.305ZM-16.99 516.286C2.12388 504.978 23.3719 496.947 44.8604 491.482C51.0045 489.891 57.22 488.522 63.5071 487.375C66.2231 486.841 68.8203 486.395 71.5205 485.964C61.714 491.527 51.7644 496.646 42.2912 502.787C30.238 510.641 19.073 519.579 7.89231 528.621C-3.39135 537.646 -14.675 546.672 -26.9027 554.288C-38.7901 561.746 -51.7016 566.94 -64.9865 571.129C-72.3018 573.49 -79.2996 576.531 -86.3689 579.35C-84.3125 576.924 -82.1373 574.411 -80.0652 571.883C-79.6776 571.415 -79.29 570.947 -78.9025 570.48C-76.7344 568.703 -74.4791 567.045 -72.1366 565.506C-65.6709 561.119 -59.015 556.867 -52.3906 552.82C-45.4258 548.615 -38.358 544.425 -31.1315 540.576C-24.2453 536.885 -18.4062 531.77 -12.2895 526.909C-5.19183 521.143 1.80289 515.362 8.44859 509.105C9.44537 508.098 8.23957 506.334 7.13981 507.325C1.06326 512.614 -5.21925 517.872 -11.5733 522.908C-17.7056 527.873 -23.7979 533.265 -30.6283 537.281C-33.992 539.296 -37.6332 541.058 -40.9969 543.074C-44.5823 545.161 -48.1676 547.248 -51.65 549.35C-58.4961 553.468 -65.2707 557.808 -71.8551 562.282C-72.0924 562.457 -72.2112 562.544 -72.4486 562.719C-70.3606 560.087 -68.2728 557.455 -66.2878 554.808C-51.3275 540.337 -35.0356 526.808 -16.99 516.286ZM-19.8253 452.731C-21.242 460.629 -23.4668 468.298 -25.7946 475.951C-26.6468 478.772 -27.499 481.592 -28.3669 484.516C-28.6475 481.522 -29.0467 478.616 -29.3273 475.623C-29.9214 468.472 -30.6341 461.408 -31.1253 454.273C-32.1947 439.883 -32.5276 425.501 -32.7576 411.135C-32.8855 403.001 -33.0134 394.868 -33.1413 386.734C-33.1987 385.039 -35.8831 385.367 -35.8258 387.062C-35.5401 401.753 -35.476 416.515 -34.9686 431.135C-34.7306 438.548 -34.3896 445.976 -33.8427 453.436C-33.3673 460.674 -32.6703 467.841 -32.0762 474.992C-31.7713 478.516 -31.3477 481.953 -31.027 485.374C-30.9068 486.657 -30.9053 488.027 -30.5791 489.341C-30.7449 489.738 -30.8951 490.031 -31.061 490.427C-32.2369 487.086 -33.6344 483.817 -35.5068 480.896C-37.0302 478.451 -38.0944 475.759 -39.1587 473.068C-40.3417 470.463 -41.406 467.772 -42.4703 465.08C-46.6645 453.902 -49.0539 441.946 -50.1761 429.972C-50.7372 423.985 -50.9579 417.84 -50.5608 411.788C-50.1008 405.325 -49.2131 398.822 -48.3412 392.422C-46.7317 379.811 -45.2496 366.655 -47.6319 353.962C-48.994 347.01 -51.5674 340.399 -54.0379 333.805C-55.3726 330.124 -56.723 326.545 -58.0734 322.967C-55.4573 325.158 -52.8413 327.349 -50.344 329.627C-45.7141 333.811 -41.559 338.345 -37.9101 343.433C-31.1359 352.898 -26.3639 363.743 -23.2309 374.97C-19.9548 386.64 -18.2305 398.811 -17.4329 410.84C-16.5222 424.889 -17.1876 438.908 -19.8253 452.731ZM12.8004 448.862C17.208 445.53 21.8774 442.555 26.5311 439.683C31.1848 436.811 35.807 434.144 40.7783 431.953C45.7653 429.659 50.8953 427.807 56.1526 426.503C61.5287 425.111 66.8575 424.028 72.2336 422.636C77.6097 421.244 82.8427 419.408 88.1873 418.222C93.7535 416.965 99.3442 416.238 104.895 415.083C111.095 413.817 117.151 412.107 123.025 409.527C125.392 408.518 127.878 407.422 130.245 406.414C127.863 408.896 125.482 411.377 123.117 413.756C118.299 418.394 113.219 422.677 107.862 426.706C102.164 430.894 96.3951 434.861 90.7847 439.167C85.3088 443.284 79.8171 447.504 74.1666 451.383C68.6506 455.072 62.96 458.523 56.9676 461.191C50.7536 463.93 44.2849 465.577 37.6888 466.677C30.7524 467.936 23.7916 468.665 16.7908 468.966C9.99587 469.298 3.07364 469.084 -3.55385 470.39C-4.63079 470.542 -5.6362 470.916 -6.62589 471.186C-3.667 468.371 -0.620863 465.675 2.68704 463.335C8.13155 459.424 14.2426 456.669 20.4252 454.136C27.1542 451.475 34.2007 449.495 41.303 447.84C48.1836 446.256 54.9927 444.451 61.4284 441.64C68.8695 438.455 75.9216 434.369 83.1882 430.947C84.4468 430.296 83.6843 428.388 82.3385 428.921C75.5782 431.787 69.1353 435.335 62.4622 438.32C55.7891 441.305 48.9485 443.317 41.8305 445.075C34.8312 446.746 27.9034 448.639 21.0872 451.181C14.7143 453.58 8.3816 456.406 2.64388 460.167C1.23521 461.111 -0.189196 462.158 -1.62934 463.308C-0.719809 462.182 0.205441 460.954 1.21794 459.844C4.61865 455.516 8.51141 452.106 12.8004 448.862ZM63.4746 380.622C59.662 384.888 55.5004 388.678 51.1328 392.437C50.5393 392.873 50.0331 393.428 49.5425 393.88C58.6002 377.349 67.6736 360.715 74.5759 343.117C76.645 337.848 78.4924 332.651 80.4586 327.366C80.9876 325.971 78.9195 325.023 78.3904 326.418C74.6783 335.546 71.2436 344.927 67.2383 353.904C63.0986 363.072 58.3724 371.94 53.6462 380.808C50.9907 385.776 48.3352 390.745 45.5924 395.595C45.5052 395.477 45.3149 395.342 45.2277 395.223C46.9833 385.797 49.3567 376.464 52.9344 367.527C56.7251 357.884 61.4985 348.707 66.2718 339.531C71.0452 330.354 75.9215 321.193 80.4016 311.867C82.701 307.16 84.7945 302.421 86.4918 297.517C88.2048 292.51 89.6088 287.455 90.9099 282.385C92.1324 277.83 93.3392 273.377 94.5617 268.822C94.5946 269.986 94.6433 271.047 94.795 272.124C95.0786 277.858 95.584 283.52 95.4399 289.294C95.0647 300.723 92.9231 311.987 90.4726 323.205C88.1007 333.907 85.2296 344.428 80.6551 354.372C76.1436 363.905 70.3719 372.719 63.4746 380.622ZM219.92 383.647C218.638 385.137 216.319 385.837 214.188 385.3C211.748 384.717 209.805 382.945 207.935 381.395C205.715 379.37 203.511 377.242 201.306 375.114C197.001 370.874 193.052 366.372 189.34 361.695C184.931 356.069 180.774 350.166 176.617 344.262C174.452 341.192 172.373 338.24 170.326 335.082C169.644 334.029 168.962 332.977 168.28 331.924C171.037 333.188 173.692 334.437 176.449 335.701C182.036 338.451 187.338 341.684 192.387 345.195C196.001 347.749 199.528 350.184 203.143 352.738C206.551 355.261 209.928 357.99 213.083 360.79C214.573 362.071 215.945 363.44 217.404 364.927C217.666 365.283 217.84 365.52 218.102 365.877C220.395 369.493 221.881 374.252 221.577 378.315C221.587 380.318 221.217 382.053 219.92 383.647ZM247.944 294.667C247.856 294.548 247.841 294.651 247.944 294.667C247.912 294.873 247.778 295.063 247.762 295.166C247.177 296.236 246.109 297.021 245.159 297.719C242.801 299.361 240.371 300.782 237.767 301.965C232.202 304.592 226.407 306.658 220.397 308.059C214.166 309.531 207.895 310.575 201.623 311.62C193.935 312.975 186.262 314.227 178.66 315.701C176.815 316.051 175.073 316.417 173.228 316.768C175.302 315.609 177.494 314.363 179.584 313.102C185.037 309.825 190.474 306.651 196.071 303.817C201.873 301.015 207.905 298.775 214.009 296.756C220.098 294.841 226.329 293.369 232.64 292.752C235.531 292.455 238.493 292.381 241.407 292.615C241.978 293.018 242.802 293.144 243.483 292.827C243.895 292.889 244.307 292.952 244.718 293.015C245.13 293.078 245.424 293.228 245.835 293.291C246.232 293.457 246.731 293.639 247.127 293.805C247.333 293.836 247.42 293.955 247.61 294.089C247.492 294.176 247.769 294.43 247.944 294.667C247.959 294.564 247.959 294.564 247.944 294.667C247.856 294.548 247.856 294.548 247.944 294.667ZM179.33 305.792C176.291 307.752 173.339 309.83 170.388 311.908C172.713 309.102 175.038 306.296 177.261 303.474C181.689 297.933 185.722 292.226 189.755 286.519C192.958 282.793 196.146 279.17 199.437 275.563C203.605 271.036 208.052 266.762 213.545 263.913C216.181 262.524 218.872 261.46 221.62 260.72C224.042 260.036 226.996 259.328 229.507 260.133C234.72 261.877 230.08 269.494 227.889 272.11C224.148 276.597 219.368 280.293 214.636 283.68C209.429 287.416 203.976 290.693 198.523 293.97C192.136 297.842 185.646 301.698 179.33 305.792ZM178.652 322.654C185.803 322.06 192.97 321.363 200.177 321.094C214.59 320.555 229.061 321.711 243.178 324.499C246.853 325.271 250.632 326.058 254.229 327.345C256.02 328.04 257.692 328.822 259.348 329.708C260.125 330.142 261.02 330.49 261.781 331.028C262.439 331.549 263.081 332.174 263.636 332.681C263.851 333.346 263.7 333.639 262.854 334.353C261.635 335.431 260.258 336.169 258.809 336.686C255.793 337.806 252.356 338.229 249.157 338.478C241.8 339.041 234.22 338.305 226.846 337.601C219.281 336.762 211.748 335.717 204.278 334.26C196.998 332.938 189.615 331.599 182.627 329.057C178.531 327.589 174.553 326.033 170.394 324.976C168.984 324.55 167.455 324.211 165.942 323.769C166.694 323.674 167.344 323.562 168.08 323.569C171.517 323.145 175.128 322.959 178.652 322.654ZM255.197 364.481C256.07 365.668 257.291 367.329 257.364 368.921C257.382 370.188 256.425 371.623 255.46 372.424C254.494 373.225 253.196 373.448 251.897 373.671C249.965 373.903 248.048 374.032 246.148 374.058C242.346 374.11 238.402 373.718 234.805 372.431C230.621 370.844 227.244 368.116 224.017 365.094C219.2 355.928 209.365 350.633 201.201 344.749C197.5 342.077 193.782 339.507 189.946 337.024C194.208 338.097 198.621 338.876 203.017 339.758C210.693 341.246 218.313 342.41 226.1 343.177C227.026 343.319 227.969 343.357 228.896 343.499C229.681 344.567 230.957 345.183 232.232 345.8C234.007 346.597 235.529 347.673 237.051 348.748C240.578 351.184 243.884 353.691 247.261 356.419C250.185 358.657 252.945 361.291 255.197 364.481ZM269.761 320.865C275.986 321.5 284.431 322.789 287.613 328.86C289.161 331.836 289.64 335.598 288.622 338.814C287.754 341.738 285.745 343.855 283.181 345.465C277.475 349.02 269.54 349.916 262.989 349.337C256.13 348.711 249.61 346.556 243.224 344.211C245.227 344.201 247.128 344.175 249.044 344.046C252.671 343.757 256.33 343.262 259.774 342.102C262.98 341.116 266.653 339.148 268.392 336.041C269.245 334.591 269.291 332.912 268.909 331.273C268.368 329.294 266.513 327.64 264.801 326.431C263.279 325.355 261.401 324.542 259.729 323.759C258.557 323.159 257.265 322.645 255.958 322.235C256.282 322.179 256.607 322.123 256.948 321.965C261.302 321.049 265.404 320.411 269.761 320.865ZM261.424 288.506C267.149 287.589 274.3 286.995 279.5 290.212C281.52 291.469 283.534 293.463 284.131 295.767C284.799 298.293 283.526 300.416 281.683 302.137C279.468 304.223 276.682 305.905 274.046 307.294C271.173 308.857 268.006 310.27 264.887 311.375C257.746 313.973 250.279 315.256 242.868 316.864C241.997 317.047 241.166 317.658 240.937 318.466C237.967 317.907 235.084 317.467 232.082 317.114C224.842 316.219 217.539 315.736 210.189 315.562C220.491 313.658 230.752 311.326 240.314 306.674C243.172 305.214 246.029 303.753 248.641 301.834C251.03 299.986 253.546 297.314 253.297 294.114C253.264 292.95 252.875 292.048 252.264 291.217C255.265 290.2 258.281 289.08 261.424 288.506ZM240.547 259.606C242.898 258.7 245.424 258.032 247.831 257.451C251.995 256.401 257.68 255.056 261.722 257.57C264.797 259.515 265.095 263.776 264.592 267.071C263.9 271.602 261.695 275.691 258.555 279.005C254.908 282.874 250.071 284.876 245.147 286.758C244.585 286.988 244.213 287.353 244.047 287.749C242.091 287.451 240.103 287.358 238.63 287.343C231.589 287.217 224.668 288.373 217.756 290.163C215.998 290.632 214.241 291.101 212.467 291.673C219.257 287.231 225.786 282.432 231.133 276.399C233.174 274.076 235.056 271.413 236.042 268.402C236.8 266.199 237.106 263.506 236.612 261.218L236.731 261.131C238.093 260.496 239.32 260.051 240.547 259.606ZM214.794 241.237C215.425 238.488 215.762 235.589 215.466 232.698L215.569 232.714C216.662 232.459 217.667 232.086 218.657 231.816C220.739 231.291 222.924 230.781 225.094 230.375C229.006 229.602 233.004 228.948 237.005 229.665C238.652 229.916 240.356 230.493 241.569 231.521C242.694 232.43 243.123 233.76 243.347 235.059C243.961 238.63 243.949 242.844 242.282 246.172C241.247 248.121 239.712 249.889 238.296 251.57C236.762 253.338 235.125 255.09 233.503 256.739C229.405 253.9 223.071 255.357 218.74 256.803C213.42 258.52 208.354 261.329 204.002 264.985C204.287 264.501 204.587 263.915 204.975 263.447C209.022 256.267 213.069 249.087 214.794 241.237ZM164.807 279.443C162.415 286.138 160.728 293.046 159.247 299.986C158.506 303.455 157.781 306.822 157.144 310.308C156.924 311.749 156.585 313.278 156.349 314.823C156.143 314.791 155.953 314.657 155.747 314.625C155.747 314.625 155.747 314.625 155.644 314.61C156.134 314.158 156.466 313.365 156.402 312.407C154.78 300.252 154.663 287.905 156.21 275.707C157.662 264.126 160.397 252.425 166.08 242.123C167.218 240.189 168.491 238.065 170.184 236.638C170.912 236.011 171.625 235.488 172.44 234.98C172.899 234.734 173.683 234.432 174.213 234.408C174.213 234.408 174.419 234.439 174.538 234.352C174.538 234.352 174.641 234.368 174.744 234.383C175.164 235.08 175.363 235.848 175.515 236.925C175.843 239.609 175.449 242.184 175.144 244.877C173.731 256.885 168.85 268.153 164.807 279.443ZM162.676 314.103C162.154 314.761 161.648 315.316 161.126 315.974C161.189 315.562 161.355 315.166 161.418 314.754C162.245 311.403 162.867 308.02 163.885 304.804C166.182 297.356 169.492 290.169 172.2 282.785C174.909 275.4 178.013 268.182 181.22 260.979C182.816 257.429 184.412 253.879 186.008 250.329C187.454 247.073 188.987 243.935 190.916 240.963C194.189 236.088 198.674 230.872 204.612 229.25C205.72 228.892 207.241 228.597 208.429 229.095C209.427 229.458 210.007 230.495 210.396 231.397C211.357 234.073 210.751 237.353 210.136 239.999C208.592 247.35 204.711 254.134 200.98 260.624C197.131 267.202 192.885 273.614 188.655 279.923C187.145 282.222 185.547 284.401 183.934 286.684C179.956 291.345 176.183 296.038 172.395 300.834C170.022 303.949 167.65 307.064 165.365 310.298C164.558 311.44 163.617 312.771 162.676 314.103ZM162.116 344.682C162.233 343.225 162.438 341.886 162.658 340.444C163.428 341.616 164.197 342.787 165.085 343.871C168.068 347.804 170.978 351.515 173.486 355.797C176.081 360.198 178.557 364.685 181.136 369.189C183.556 373.352 186.198 377.444 188.262 381.869C188.651 382.771 189.246 383.705 189.414 384.679C189.612 385.447 189.344 385.827 188.956 386.295C189.09 386.105 188.837 386.382 188.837 386.382C188.719 386.469 188.616 386.454 188.616 386.454C188.616 386.454 188.616 386.454 188.513 386.438C188.291 386.51 188.188 386.494 187.982 386.462C187.348 386.471 186.303 386.417 185.376 386.275C181.257 385.646 177.596 383.401 174.543 380.617C168.439 375.048 164.375 367.156 162.774 359.009C161.905 354.345 161.702 349.466 162.116 344.682Z" fill="#10934B"/>
</g>
<defs>
<clipPath id="clip0_104_199">
<rect width="470.217" height="635.045" fill="white" transform="translate(-58.1404 -0.000488281) rotate(8.68195)"/>
</clipPath>
</defs>
</svg>
