<svg width="488" height="787" viewBox="0 0 488 787" fill="none" xmlns="http://www.w3.org/2000/svg">
<g clip-path="url(#clip0_104_197)">
<path d="M316.988 466.411C320.835 467.598 324.51 469.205 328.29 470.742C332.173 472.208 336.161 473.603 340.077 474.895C344.589 476.39 349.171 477.989 353.886 478.89C357.554 479.591 361.355 479.593 365.09 479.944C365.035 481.654 364.98 483.363 365.274 485.139C365.896 488.516 367.662 491.116 370.435 493.185C375.631 497.255 382.03 499.292 388.421 500.422C394.813 501.553 401.479 502.193 407.825 502.138C414.625 502.079 421.383 501.289 428.087 502.207C431.089 502.6 433.746 503.379 436.132 505.102C438.589 506.929 440.597 509.213 442.467 511.743C446.701 517.53 448.265 524.979 453.332 530.201C462.235 539.505 478.222 537.31 489.461 534.388C497.185 532.333 504.128 528.682 511.39 525.725C514.831 524.3 518.587 523.117 522.28 522.736C523.569 522.621 524.825 522.679 525.977 522.809C528.218 523.871 530.355 525.003 532.596 526.065C532.841 526.202 533.016 526.235 533.261 526.373C552.419 560.173 568.003 596.097 582.09 632.277C591.255 655.841 598.266 680.261 601.517 705.411C604.701 730.91 603.668 756.69 602.494 782.261C602.27 788.645 601.942 795.099 601.718 801.483C601.512 805.878 608.483 805.4 608.585 801.075C609.584 775.47 611.42 749.753 610.082 724.064C608.748 698.828 603.618 674.043 595.879 650.117C587.82 625.497 577.569 601.454 566.869 577.868C555.99 553.795 543.964 530.047 530.169 507.499C515.136 482.904 497.607 460.005 478.796 438.128C479.104 437.462 479.167 436.66 478.847 435.965C477.605 433.465 477.715 430.047 478.39 427.46C479.028 424.595 480.219 421.202 482.013 418.92C484.185 416.077 486.956 413.891 488.638 410.773C490.353 407.48 490.913 403.604 491.439 399.903C492.491 392.501 494.171 385.128 496.271 377.927C498.166 371.319 500.412 364.779 503.742 358.717C506.935 352.901 511.358 348.225 516.625 344.343C521.996 340.391 527.579 336.751 532.385 331.967C537.087 327.254 540.243 321.159 540.987 314.422C541.442 310.617 540.608 306.927 537.761 304.302C536.531 303.162 535.059 302.337 533.45 301.758C532.015 301.213 530.477 300.738 529.284 299.876C528.968 299.635 528.826 299.427 528.473 298.907L528.261 298.595C528.153 298.212 528.045 297.83 527.938 297.447C527.684 296.403 527.602 294.939 527.732 293.787C527.883 291.101 528.558 288.514 529.408 285.961C531.374 279.458 534.493 273.084 537.893 267.127C541.636 260.329 546.002 253.108 547.154 245.182C547.714 241.306 547.292 236.881 543.887 234.33C538.974 230.676 532.922 232.507 528.487 235.823C516.222 245.065 510.105 259.555 505.659 273.821C504.472 277.668 503.459 281.547 502.272 285.393C501.66 287.177 501.047 288.961 500.365 290.641C500.023 291.481 499.578 292.391 499.236 293.231C498.928 293.896 498.895 294.071 498.583 294.283C498.408 294.249 498.163 294.112 498.059 294.183C497.813 294.045 497.464 293.979 497.148 293.737C496.973 293.704 496.903 293.6 496.728 293.567C496.554 293.533 496.483 293.429 496.238 293.292C496.483 293.429 496.483 293.429 496.167 293.188C494.554 292.156 492.974 290.949 490.982 290.478C485.215 288.923 482.483 295.642 480.847 299.946C478.289 306.698 476.431 313.584 475.516 320.741C475.253 322.591 474.99 324.442 474.902 326.326C474.843 327.582 474.888 328.767 474.443 329.677C473.569 329.511 472.235 328.441 471.603 327.958C470.339 326.993 469.562 325.849 468.365 324.534C467.168 323.219 465.659 322.116 463.983 321.886C461.713 321.453 459.77 322.62 458.143 324.029C454.128 327.516 451.767 332.767 450.45 337.766C449.03 342.834 448.553 348.174 448.284 353.372C447.291 351.463 446.019 349.591 444.506 348.034C443.837 347.273 442.548 347.389 441.82 347.883C437.347 350.921 436.034 356.372 435.241 361.471C434.415 366.743 434.637 372.216 435.624 377.474C436.905 384.507 438.918 391.499 441.555 398.067C439.373 395.749 437.087 393.502 434.976 391.289C427.968 383.433 421.481 375.224 416.275 365.993C409.44 353.917 404.133 340.955 399.973 327.67C395.78 314.559 392.21 301.025 389.165 287.59C386.124 274.609 383.881 261.237 383.731 247.813C383.629 244.082 383.701 240.385 383.599 236.655C383.588 235.295 383.472 234.006 383.531 232.75C383.855 233.898 384.282 234.975 384.781 236.156C385.208 237.234 385.67 238.136 386.097 239.214C386.205 239.596 386.559 240.116 386.912 240.637C385.601 242.287 385.446 244.52 385.989 246.887C386.641 249.636 388.095 252.448 390.548 253.822C395.524 256.673 400.159 252.309 400.674 247.248C400.966 244.77 400.56 242.158 398.939 240.219C397.493 238.313 395.077 237.218 392.777 237.413C392.457 236.718 392.138 236.023 391.818 235.328C390.858 233.244 390.073 231.194 389.392 229.072C388.101 224.934 386.981 220.375 387.083 216.05C387.119 212.074 386.734 207.928 387.921 204.082C388.33 202.892 388.842 201.633 389.425 200.477C389.943 203.925 390.843 207.265 392.231 210.426C392.338 210.809 392.621 211.225 392.729 211.607C393.745 216.237 394.97 220.725 396.577 225.105C400.293 235.499 406.417 246.083 415.093 253.261C415.164 253.365 415.338 253.399 415.409 253.503C414.997 254.238 414.726 255.182 414.908 256.122C414.957 257.761 415.946 259.217 417.143 260.532C417.163 262.798 419.508 263.789 421.388 263.424C421.737 263.491 422.053 263.733 422.402 263.799C422.648 263.937 423.384 264.349 423.908 264.449C425.55 264.853 427.222 264.63 428.645 263.815C430.067 263.001 430.925 261.354 431.155 259.679C431.247 258.248 430.957 256.925 430.388 255.64C430.658 254.696 430.439 253.477 429.84 252.82C427.691 250.328 425.131 248.571 421.579 249.16C421.404 249.127 421.3 249.197 421.196 249.268C419.616 248.061 418.141 246.783 416.769 245.435C413.427 242.082 410.743 238.129 408.337 234.14C406.958 231.885 405.715 229.385 404.648 226.918C405.064 226.636 405.376 226.424 405.792 226.141C408.121 225.319 410.056 223.245 410.698 220.833C411.344 218.875 410.908 216.891 409.919 215.434C409.945 214.353 409.692 213.309 409.23 212.407C409.688 212.856 410.216 213.409 410.777 213.788C414.327 217.001 417.98 220.142 421.701 222.935C423.701 224.313 425.771 225.794 427.908 226.927C428.398 227.201 429.064 227.509 429.554 227.784C429.525 228.412 429.599 228.969 429.57 229.597C429.574 230.051 429.611 230.329 429.719 230.712C429.448 231.656 429.281 232.529 429.115 233.402C428.852 235.253 428.834 237.241 429.477 239.083C430.192 241.03 432.303 243.244 434.399 243.644C439.534 244.716 442.345 239.007 442.867 234.853C442.863 234.4 443.034 233.98 443.03 233.526C443.367 232.233 443.459 230.803 443.24 229.584C443.165 229.027 442.987 228.54 442.737 227.949C442.48 226.452 442.119 225.025 441.376 223.707C440.416 221.623 438.762 219.858 436.387 219.495C434.466 219.128 432.624 219.772 431.346 221.248C431.275 221.144 431.171 221.214 431.101 221.11C429.209 220.115 427.351 218.946 425.7 217.635C421.98 214.842 418.397 211.804 414.918 208.696C413.687 207.556 412.457 206.416 411.226 205.275C413.43 206.058 415.563 206.737 417.696 207.416C423.185 209.008 428.948 210.109 434.675 210.932C440.155 211.617 445.811 212.335 451.172 211.277C453.505 210.909 455.731 210.157 457.919 209.127C458.629 210.62 459.86 211.76 461.573 212.269C465.311 213.073 468.353 209.943 468.671 206.384C468.767 205.406 468.688 204.396 468.506 203.456C468.639 202.757 468.702 201.955 468.661 201.223C468.471 199.376 467.515 197.745 466.181 196.676C465.304 196.056 464.256 195.855 463.245 195.934C462.546 195.8 461.64 195.808 460.875 196.024C458.961 196.564 458.137 198.036 457.945 199.99C457.911 200.165 457.911 200.165 457.878 200.339C457.741 200.585 457.778 200.863 457.64 201.109C457.503 201.354 457.47 201.528 457.332 201.774C456.5 202.339 455.772 202.833 454.869 203.295C452.856 204.358 450.664 204.935 448.539 205.163C443.802 205.796 439.019 205.245 434.341 204.623C424.286 203.245 414.048 200.927 405.081 196.227C403.434 195.369 401.892 194.441 400.349 193.513C399.925 192.889 399.468 192.439 399.044 191.815C400.092 192.015 401.244 192.145 402.292 192.345C407.074 192.897 411.786 193.344 416.564 193.442C420.96 193.649 425.285 193.751 429.64 193.225C432.148 192.889 434.547 192.171 436.948 191.453C436.885 192.256 437.101 193.021 437.142 193.753C437.503 195.18 438.246 196.498 439.336 197.431C441.023 199.02 442.591 198.867 444.679 198.361C446.384 197.963 447.454 196.628 448.594 195.398C449.734 194.167 450.558 192.696 450.963 191.053C451.809 188.047 451.187 184.67 449.005 182.352C446.12 179.448 442.189 180.598 439.876 183.233C436.157 184.695 432.542 186.086 428.641 186.608C424.39 187.063 420.065 186.961 415.74 186.859C412.322 186.749 408.937 186.464 405.481 186.075C410.032 184.048 414.512 181.917 418.71 179.37C428.598 173.566 437.568 166.409 442.743 155.903C443.36 154.573 443.976 153.242 444.521 151.808C450.199 150.992 455.984 142.502 451.2 137.696C446.062 132.37 436.462 135.243 435.165 142.508C434.598 145.477 435.394 148.887 437.989 150.469C437.41 152.078 436.552 153.725 435.799 155.3C433.43 159.645 430.184 163.37 426.41 166.541C420.248 171.79 413.031 175.932 405.668 179.413C406.775 178.357 407.881 177.302 408.988 176.246C414.968 170.057 419.925 162.586 423.659 154.882C427.053 148.018 429.319 139.943 428.903 132.17C428.862 131.438 428.821 130.706 428.709 129.87C431.565 125.347 430.183 118.838 425.14 116.335C421.918 114.724 417.917 115.77 415.216 118.06C414.592 118.484 414.143 118.941 413.835 119.606C412.973 120.799 412.394 122.409 412.373 123.943C412.388 125.756 412.828 128.194 413.992 129.683C414.415 130.307 415.014 130.965 415.646 131.447C416.809 132.937 418.281 133.761 420.202 134.128C420.901 134.262 421.495 134.466 422.227 134.424C422.251 137.144 421.821 139.868 421.113 142.629C420.337 145.739 419.246 148.608 417.98 151.444C417.943 151.165 417.872 151.061 417.835 150.783C417.694 150.575 417.623 150.471 417.586 150.192C416.834 147.967 415.11 146.098 412.839 145.665C411.966 145.498 411.059 145.506 410.327 145.547C407.533 145.013 404.784 145.664 402.815 147.913C400.847 150.162 400.458 153.618 401.459 156.434C401.816 157.407 402.419 158.518 403.158 159.383C403.337 159.87 403.653 160.111 404.039 160.457C404.954 161.355 406.214 161.868 407.574 161.856C407.678 161.785 407.852 161.819 407.852 161.819C406.961 163.64 405.896 165.427 405.005 167.248C403.015 171.032 400.746 174.852 398.02 178.224C397.883 178.469 397.675 178.61 397.538 178.856C396.568 179.666 395.599 180.476 394.629 181.287C398.89 169.882 401.226 157.656 400.317 145.354C399.768 138.28 398.208 131.284 395.188 124.824C396.77 122.23 397.125 118.949 395.775 116.066C394.994 114.468 394.213 112.871 392.288 112.051C390.608 111.368 388.754 110.651 386.741 111.715C385.734 112.247 384.973 112.916 384.352 113.793C383.308 114.046 382.231 114.474 381.295 115.11C380.013 116.132 379.052 117.849 378.718 119.596C378.481 120.365 378.418 121.167 378.53 122.003C378.91 125.697 381.654 128.393 385.251 128.99C386.648 129.257 388.112 129.174 389.539 128.813C393.239 137.395 394.369 147.114 393.682 156.396C393.309 161.665 392.238 166.801 390.921 171.799C390.236 161.169 386.936 150.491 382.042 141.048C378.743 134.625 374.156 128.318 368.053 124.256C366.44 123.224 364.897 122.295 363.043 121.579C361.259 120.967 359.23 120.217 357.309 119.85C356.993 119.609 356.677 119.367 356.257 119.197C355.276 118.647 354.299 118.551 353.463 118.663C353.043 118.492 352.519 118.392 352.169 118.325C349.97 117.995 348.343 119.404 346.995 120.776C344.818 123.166 344.883 126.618 346.682 129.044C347.085 131.202 348.252 133.145 349.902 134.456C351.869 136.008 354.451 136.23 356.531 134.817C358.82 133.263 359.807 130.465 359.783 127.745C360.378 127.949 360.868 128.224 361.463 128.428C363.284 129.319 364.897 130.351 366.443 131.733C369.956 134.666 372.532 138.236 374.867 142.122C372.905 141.023 370.389 140.451 368.339 141.236C368.131 141.378 367.852 141.415 367.644 141.556C366.321 141.847 364.969 142.765 364.245 143.713C363.005 145.467 362.958 148.083 363.289 150.137C363.729 152.575 364.967 154.621 367.245 155.962C369.524 157.302 372.489 157.416 374.602 155.829C374.706 155.758 374.914 155.617 375.018 155.546C376.892 158.529 378.525 161.828 379.808 165.06C381.694 169.402 382.918 173.89 383.864 178.416C374.949 167.752 365.169 157.828 352.904 150.959C350.942 149.86 348.63 148.695 346.285 147.704C346.107 147.217 345.999 146.834 345.716 146.418C344.445 144.546 342.096 143.102 339.9 143.225C338.157 143.345 336.56 144.126 335.349 145.252C334.135 145.925 333.132 146.91 332.412 148.312C332.103 148.977 331.795 149.642 331.732 150.445C330.912 152.37 331.14 154.495 332.482 156.471C332.623 156.679 332.765 156.887 332.906 157.095C334.427 159.558 337.125 161.069 340.015 160.626C340.573 160.551 340.955 160.443 341.442 160.265C341.617 160.298 341.895 160.261 341.999 160.19C344.715 159.713 346.442 157.78 347.121 155.647C353.25 158.628 358.97 162.799 364.099 167.218C365.891 168.737 367.649 170.43 369.233 172.091C367.096 170.958 364.855 169.897 362.58 169.009C358.102 167.339 352.688 166.305 347.635 166.697C343.145 163.667 335.343 164.711 336.063 171.366C336.133 171.47 336.029 171.54 336.1 171.644C335.749 175.379 337.839 179.127 341.889 179.72C343.111 179.953 344.434 179.663 345.37 179.027C346.622 178.632 347.8 177.681 348.557 176.558C349.456 175.644 350.18 174.696 350.484 173.578C350.833 173.644 351.287 173.64 351.565 173.603C354.776 173.854 357.99 174.559 361.104 175.787C364.219 177.016 367.266 178.594 369.864 180.629C370.251 180.974 370.567 181.216 370.953 181.561C369.07 181.473 367.36 181.418 365.547 181.433C356.202 181.549 346.895 181.943 337.778 184.184C333.427 185.163 329.043 186.317 324.767 187.853C324.206 187.474 323.611 187.27 322.913 187.137C322.247 186.829 321.653 186.625 320.85 186.562C315.789 186.047 312.302 190.088 312.308 194.796C311.766 196.683 311.678 198.567 312.251 200.306C313.401 204.237 317.574 207.025 321.572 205.526C322.545 205.169 323.307 204.5 324.068 203.831C326.156 203.324 327.85 201.566 328.35 198.946C328.521 198.526 328.517 198.073 328.513 197.62C328.85 196.327 328.839 194.967 328.619 193.748C329.002 193.64 329.28 193.603 329.592 193.391C334.288 192.025 339.088 190.589 343.892 189.606C348.871 188.656 353.995 188.368 359.189 188.184C362.117 188.019 365.115 187.958 368.114 187.897C362.44 189.167 356.912 191.098 351.812 194.106C346.92 196.973 342.63 200.95 339.217 205.548C337.873 207.373 336.425 209.269 335.118 211.372C332.818 211.567 330.6 213.225 329.68 215.674C329.305 216.688 329.176 217.84 329.15 218.921C328.95 219.969 328.995 221.155 329.423 222.232C329.78 223.205 330.345 224.037 330.91 224.869C331.122 225.181 331.334 225.493 331.65 225.735C331.862 226.047 332.074 226.359 332.215 226.567C332.676 227.469 333.312 228.406 334.223 228.851C334.958 229.263 336.285 229.426 336.738 229.422C339.599 229.607 341.364 227.952 342.459 225.537C342.733 225.046 342.938 224.452 343.038 223.928C343.828 222.631 344.095 221.233 343.838 219.736C344.135 217.711 343.279 215.556 341.454 214.212C342.52 212.424 343.935 210.703 345.142 209.124C348.246 205.191 351.845 201.987 356.114 199.544C361.388 196.569 367.336 194.809 373.326 193.781C371.732 195.015 370.035 196.32 368.512 197.658C365.778 200.123 363.464 202.758 361.504 205.914C361.229 206.404 360.954 206.895 360.784 207.315C360.434 207.248 360.085 207.181 359.632 207.185C357.328 206.926 355.419 207.919 354.39 209.985C353.046 211.81 352.75 213.836 353.988 215.882C354.062 216.44 354.312 217.03 354.594 217.446C354.677 218.91 355.142 220.266 355.989 221.514C357.049 223.074 358.733 224.211 360.546 224.195C356.733 230.889 353.094 237.615 348.055 243.622C346.881 245.027 345.708 246.432 344.534 247.837C342.223 246.672 339.291 246.383 336.824 247.45C332.203 249.373 329.842 254.625 332.705 259.064C335.285 263.087 340.599 264.645 344.622 262.064L344.726 261.994C345.733 261.462 346.702 260.652 347.356 259.6C347.356 259.6 347.356 259.6 347.46 259.529C348.804 257.704 349.412 255.467 349.01 253.308C350.425 251.587 351.736 249.937 353.151 248.216C356.776 243.93 359.839 239.266 362.586 234.36C365.3 229.629 367.944 224.794 370.729 220.167C373.513 215.539 376.93 211.395 380.101 207.113C380.239 206.868 380.48 206.552 380.617 206.307C380.451 207.18 380.388 207.983 380.396 208.889C380.37 209.97 380.345 211.052 380.423 212.062C380.39 212.237 380.252 212.482 380.219 212.657C379.773 213.567 379.328 214.478 378.953 215.492C377.866 218.815 377.336 222.062 377.122 225.552C376.761 232.18 377.306 238.801 377.502 245.356C377.865 259.092 379.899 272.605 382.945 286.04C385.99 299.474 389.767 312.867 393.856 326.049C398.157 339.542 403.502 352.782 410.27 365.208C411.263 367.118 412.36 368.956 413.386 370.691C406.179 363.883 398.693 357.113 391.277 350.447C390.857 350.276 390.612 350.139 390.225 349.793C389.065 348.757 387.939 347.546 386.779 346.51C386.077 345.923 385.2 345.303 384.568 344.82C384.181 344.475 383.724 344.026 383.616 343.643C383.545 343.539 383.545 343.539 383.475 343.435C358.946 321.642 334.313 299.92 312.651 274.964C295.075 254.681 278.638 233.167 263.072 211.366C256.506 202.147 249.832 192.545 244.061 182.482C246.377 184.101 249.724 184.107 252.116 182.482C254.405 180.928 255.288 178.2 255.16 175.551C255.096 172.099 253.284 168.314 250.441 166.141C250.471 165.513 250.255 164.748 249.901 164.228C248.912 162.772 247.686 162.085 246.214 161.261C245.337 160.641 244.423 159.742 243.683 158.876C241.605 156.488 239.593 153.751 237.827 151.15C235.849 148.238 234.254 145.218 232.555 142.269C233.465 142.714 234.376 143.16 235.39 143.534C238.766 146.714 241.762 150.454 244.48 154.232C247.409 158.321 250.027 162.623 252.541 166.995C255.478 171.991 258.174 177.303 261.528 182.017C263.539 184.755 265.829 187.455 268.082 189.877C269.208 191.087 270.368 192.124 271.599 193.264C270.974 193.688 270.35 194.112 269.693 194.71C267.687 196.68 266.808 199.861 267.006 202.614C267.312 205.75 268.77 209.016 272.055 209.824C272.825 210.062 273.557 210.02 274.288 209.979C274.638 210.046 274.916 210.009 275.195 209.971C278.194 209.911 280.578 207.379 281.286 204.618C283.696 201.006 284.842 196.427 282.195 192.754C281.418 191.61 280.225 190.748 279.14 190.269C278.999 190.061 278.753 189.924 278.612 189.716C277.523 188.784 276.226 187.993 275.137 187.061C272.992 185.022 270.881 182.808 268.977 180.453C265.029 175.536 262.088 170.086 258.971 164.603C255.573 158.704 252.07 152.876 248.014 147.575C248.434 147.746 248.887 147.742 249.411 147.842C256.433 153.257 263.458 159.124 271.374 163.171C273.44 164.199 275.681 165.261 277.918 165.869C278.617 166.003 279.245 166.032 279.839 166.236L280.014 166.27L279.981 166.444C279.918 167.247 279.68 168.016 279.792 168.852C279.945 170.42 280.655 171.914 281.47 173.336C284.125 177.916 290.518 183.301 296.258 181.683C299.702 180.711 301.205 177.106 301.282 173.863C301.325 170.794 299.592 168.019 297.656 165.838C296.621 163.197 294.789 160.946 291.753 160.728C290.497 160.669 289.382 160.819 288.446 161.454C287.61 161.566 286.845 161.782 286.08 161.998C284.812 160.579 282.679 159.9 280.758 159.533C278.209 159.136 275.652 157.833 273.095 156.53C270.222 154.986 267.661 153.229 265.03 151.369C264.223 150.853 263.521 150.266 262.818 149.679C271.959 150.158 281.262 149.311 289.665 145.124C291.749 144.164 293.796 142.926 295.598 141.55C296.453 143.705 298.037 145.365 300.415 146.182C303.633 147.339 307.605 146.922 310.555 145.222C314.232 143.028 314.405 138.807 312.527 135.371C312.245 134.955 311.962 134.539 311.75 134.227C311.776 133.146 311.556 131.927 310.779 130.783C309.15 127.938 306.069 126.534 303.32 127.186C302.829 126.911 302.306 126.811 301.748 126.886C298.579 127.366 296.577 129.79 295.59 132.588C290.543 137.688 283.945 140.953 276.737 142.201C277.254 141.395 277.699 140.484 277.97 139.54C278.545 137.478 278.355 135.631 277.711 133.789C277.691 131.522 276.765 129.263 275.286 127.532C277.266 126.644 279.104 125.547 281.047 124.379C288.053 119.925 293.509 113.636 298.158 106.83C300.09 108.557 302.577 109.756 305.155 109.525C307.734 109.293 309.881 107.531 310.768 105.257C311.826 102.562 311.07 99.8837 309.62 97.5249C308.49 95.8608 306.802 94.2713 304.873 92.9976C301.431 90.1678 296.637 88.2563 293.433 92.7128C293.054 93.274 292.746 93.9392 292.438 94.6045C292.096 95.4444 291.929 96.3176 292.112 97.2576C292.182 97.3616 292.149 97.5362 292.149 97.5362C292.44 98.8589 292.971 99.8656 293.748 101.01L293.644 101.08C293.507 101.326 293.403 101.396 293.266 101.642C291.097 104.938 288.613 107.994 286.128 111.049C281.33 116.74 274.807 120.562 267.786 123.203C266.53 123.144 265.486 123.398 264.587 124.312C262.187 125.03 259.787 125.748 257.42 126.292C253.07 127.271 248.682 127.971 244.153 128.464C245.367 127.791 246.408 127.084 247.552 126.307C252.544 122.916 256.622 118.627 259.96 113.472C263.127 108.737 265.559 103.589 266.976 98.0673C268.289 92.6159 268.587 86.7897 268.016 81.2499C267.905 80.4139 267.826 79.4033 267.714 78.5673C270.363 78.4399 272.971 77.5804 274.732 75.4729C276.559 73.0161 276.669 69.5976 275.668 66.7816C273.845 61.6362 268.898 58.1568 263.625 57.3305C261.076 56.934 258.044 57.1694 256.251 59.4516C254.594 61.4885 254.792 64.2417 255.615 66.5711C255.307 67.2363 255.173 67.9349 255.214 68.6669C255.301 70.5841 256.394 71.9695 257.279 73.4963C258.093 74.919 259.253 75.9552 260.446 76.8167C260.703 78.314 260.785 79.7779 261.005 80.9966C261.605 85.9084 261.403 90.7574 260.398 95.5436C259.964 97.814 259.148 100.192 258.261 102.467C256.628 99.1679 253.744 96.2636 250.247 95.143C249.931 94.9016 249.79 94.6936 249.474 94.4522C248.526 93.728 247.233 93.3905 246.155 93.8182C245.078 94.246 244.142 94.8818 243.626 95.6883C241.995 96.6439 240.788 98.2236 240.421 100.145C239.983 101.962 240.523 103.875 241.583 105.435C241.728 106.097 242.048 106.791 242.368 107.486C242.197 107.906 242.026 108.326 241.751 108.816C240.794 110.987 239.732 113.228 238.458 115.157C236.119 118.873 233.077 122.003 229.72 124.892C231.18 116.301 233.268 107.739 232.844 99.0594C232.664 94.3183 231.681 89.5144 230.282 84.993C228.883 80.4717 227.272 75.6384 224.762 71.7195C225.316 71.1916 225.902 70.4891 226.173 69.5452C226.719 68.1107 226.566 66.5428 225.335 65.4026C224.633 64.8159 223.93 64.2291 223.124 63.713C222.488 62.7769 221.748 61.9115 220.942 61.3953C218.377 59.1856 215.341 58.9677 212.425 60.4924C211.938 60.671 211.593 61.0576 211.422 61.4775C210.104 62.2212 209.279 63.693 209.956 65.361C211.306 68.2437 213.95 71.464 216.889 72.6592C218.053 74.1487 219.146 75.5341 219.997 77.2355C221.31 79.8396 222.278 82.8303 223.208 85.5423C224.1 87.9757 224.715 90.4463 225.225 92.9876C226.029 97.3048 226.206 101.593 225.825 105.955C225.393 104.424 224.928 103.068 224.288 101.679C223.005 98.4468 221.826 95.1441 220.264 91.9494C221.088 90.4776 221.247 88.6977 220.604 86.8551C220.637 86.6804 220.496 86.4724 220.529 86.2978C219.383 82.8204 216.665 79.0428 212.719 78.3794C210.519 78.0496 207.945 78.7345 206.496 80.6301C205.427 81.9644 205.301 83.5696 205.733 85.1003C205.711 86.6349 206.143 88.1655 206.92 89.3096C207.273 89.8296 207.73 90.279 208.188 90.7284C209.496 92.8792 211.637 94.4649 214.012 94.828C214.153 95.036 214.261 95.4187 214.332 95.5227C215.682 98.4054 216.649 101.396 217.895 104.349C219.569 108.38 220.581 112.556 220.828 116.948C220.832 117.401 220.836 117.855 220.84 118.308C218.788 114.838 216.456 111.406 213.917 108.115C210.106 102.952 206.192 97.8596 201.619 93.3657C199.088 90.9813 196.419 88.8423 193.438 86.9151C191.51 85.6415 189.581 84.3679 187.444 83.2356C187.406 82.9569 187.369 82.6782 187.261 82.2956C187.257 81.8423 187.183 81.285 187.108 80.7276C186.461 78.4317 184.32 76.846 182.187 76.167C178.648 74.3144 174.145 73.7256 171.382 76.8182C168.964 79.5242 171.378 84.4204 173.905 86.3514C174.15 86.4888 174.466 86.7302 174.712 86.8675C176.478 89.4677 181.197 90.8219 184.047 89.6465C184.325 89.6092 184.637 89.3973 184.845 89.256C185.581 89.6681 186.317 90.0803 186.878 90.459C187.439 90.8378 188.105 91.1459 188.737 91.6286C188.807 91.7326 188.911 91.662 188.982 91.766L189.052 91.87C189.368 92.1114 189.684 92.3528 190.104 92.5235C197.575 97.4806 203.04 104.408 208.297 111.477C211.119 115.184 213.628 119.102 216.034 123.092C211.794 120.653 207.586 118.039 203.483 115.354C197.767 111.637 192.325 107.43 186.746 103.468C184.431 101.849 182.115 100.229 179.766 98.7851C177.885 94.8957 174.056 91.7204 169.768 91.8969C168.966 91.8341 168.059 91.842 167.223 91.9538C166.562 92.099 165.904 92.6975 165.526 93.2587C165.214 93.4706 164.902 93.6826 164.66 93.9985C162.193 95.066 161.206 97.8643 161.612 100.476C162.172 104.656 165.992 106.925 170.005 107.239C172.692 107.39 175.021 106.568 176.927 105.122C185.516 110.383 193.314 116.941 201.87 122.377C205.412 124.683 208.987 126.814 212.633 129.05C211.348 129.619 210.096 130.013 208.703 130.199C204.801 130.721 200.859 130.511 196.95 130.127C195.623 129.964 194.193 129.871 192.9 129.534C193.278 128.973 193.657 128.411 194.036 127.85C194.585 126.869 194.432 125.301 193.797 124.365C189.101 117.675 178.41 115.361 172.256 121.517C169.422 124.506 169.112 128.972 171.651 132.263C173.874 135.312 178.044 137.648 181.8 136.465C182.079 136.427 182.287 136.286 182.391 136.215C183.68 136.1 184.966 135.531 186.006 134.824C189.083 135.774 192.401 136.408 195.578 136.834C199.94 137.215 204.477 137.629 208.832 137.103C210.886 136.771 212.941 136.44 214.817 135.622C214.542 136.112 214.442 136.636 214.168 137.127C213.96 137.268 213.751 137.409 213.614 137.655C212.095 139.446 210.543 141.412 208.953 143.1C207.913 143.806 206.803 144.409 205.692 145.011C200.833 147.704 195.446 149.842 189.981 150.971C180.826 152.933 171.945 150.15 163.888 145.895C163.842 144.71 163.448 143.458 162.812 142.522C162.094 140.122 160.889 137.9 159.098 136.382C157.165 134.655 154.192 133.634 151.651 134.144C148.831 134.692 147.282 137.111 147.027 139.868C146.45 145.732 151.801 155.624 158.548 153.474C159.384 153.362 160.149 153.146 160.981 152.581C161.085 152.51 161.189 152.44 161.293 152.369C161.468 152.402 161.609 152.61 161.784 152.644C165.954 154.979 170.814 156.541 175.497 157.617C182.52 159.23 189.453 158.473 196.27 156.426C194.61 158.01 192.879 159.489 191.044 161.04C186.855 164.493 182.557 167.564 177.873 170.29C173.292 172.945 168.538 175.566 163.671 177.352C162.697 177.709 161.654 177.962 160.61 178.215C158.865 174.081 154.059 170.809 149.634 171.231C144.477 171.694 142.428 176.733 143.478 181.188C143.657 181.674 143.764 182.057 143.943 182.544C143.806 182.789 143.739 183.138 143.776 183.417C143.547 185.093 144.257 186.586 145.313 187.693C145.982 188.454 146.822 188.796 147.728 188.788C149.1 190.136 150.85 190.923 153.042 190.346C153.704 190.201 154.224 189.848 154.744 189.495C157.04 188.847 159.224 187.364 160.427 185.331C162.028 185.003 163.629 184.675 165.193 184.069C170.443 182.176 175.302 179.483 180.161 176.791C183.006 175.162 185.885 173.359 188.589 171.522C189.137 174.342 190.765 177.188 192.943 179.052C194.103 180.088 195.575 180.913 197.076 181.109C197.147 181.213 197.251 181.142 197.321 181.246C197.567 181.384 197.987 181.554 198.44 181.55C199.7 182.063 201.064 182.504 202.461 182.771C203.509 182.971 204.761 182.577 205.626 181.837C203.191 186.531 200.298 190.776 197.372 195.195C196.477 196.562 195.478 198.001 194.725 199.577C194.038 200.803 193.526 202.063 192.768 203.185C192.527 203.501 192.285 203.817 191.973 204.029C190.502 203.205 188.859 202.801 187.57 202.916C187.012 202.991 186.455 203.065 185.864 203.315C183.319 203.371 180.366 204.617 179.761 207.308C178.135 208.717 177.983 211.403 178.731 213.175C179.549 215.051 181.27 216.466 183.195 217.287C184.526 217.903 186.168 218.307 187.528 218.295C190.148 218.796 192.864 218.319 194.52 216.282L194.624 216.212L194.728 216.141C194.865 215.896 194.97 215.825 195.107 215.58L195.211 215.509C195.211 215.509 195.315 215.438 195.244 215.334C195.278 215.16 195.382 215.089 195.415 214.914C195.586 214.494 195.582 214.041 195.649 213.692C195.786 213.447 195.994 213.305 196.131 213.06C196.922 211.763 197.085 210.436 196.691 209.184C198.384 207.426 199.621 205.218 200.786 202.907C203.701 197.128 207.983 192.244 211.072 186.498C214.298 180.507 216.368 173.933 218.405 167.534C219.73 163.442 220.951 159.421 222.101 155.297C223.394 163.69 224.861 172.116 225.564 180.758C226.139 186.751 226.26 192.748 225.579 198.683C224.868 205.245 223.285 211.64 221.701 218.035C221.563 218.281 221.601 218.559 221.463 218.805C218.312 217.297 214.756 217.433 212.097 220.455C208.402 224.636 210.303 230.792 214.581 233.51C214.722 233.718 214.863 233.926 215.075 234.238C218.712 239.368 228.015 238.521 229.458 231.917C229.958 229.298 228.991 226.307 227.295 223.811C227.941 221.852 228.516 219.79 228.916 217.694C230.363 211.544 231.913 205.323 232.486 199.007C233.352 190.211 232.683 181.394 231.632 172.685C235.179 179.699 239.11 186.605 243.248 193.369C257.292 216.508 274.252 238.122 291.138 259.178C307.637 279.889 325.313 299.649 344.858 317.684C348.304 320.967 351.854 324.179 355.508 327.321C350.531 324.47 345.417 321.864 340.062 319.573C332.852 316.567 325.543 314.084 318.062 312.022C313.239 310.738 308.244 309.874 303.262 310.371C300.509 310.569 297.656 311.291 295.509 313.053C294.019 314.217 293.091 315.759 292.653 317.576C291.115 317.101 289.68 316.556 288.212 316.185C285.659 315.335 283.04 314.835 280.387 314.509C274.939 313.649 269.358 313.488 263.852 313.884C259.531 314.235 254.128 314.561 251.124 317.97C250.433 318.743 249.883 319.724 249.613 320.668C247.587 320.371 245.562 320.075 243.504 319.953C238.688 319.576 233.947 319.757 229.284 320.948C225.109 321.96 220.695 323.742 217.267 326.527C215.536 328.006 214.154 329.552 213.442 331.86C213.271 332.28 213.171 332.804 213.104 333.153C212.265 332.812 211.321 332.541 210.377 332.27C208.106 331.836 205.91 331.96 203.644 331.98C199.181 332.123 194.856 332.021 190.365 332.792C186.151 333.525 182.013 334.817 178.759 337.634C175.921 340.17 174.102 343.533 173.751 347.268C173.529 349.85 173.827 352.079 174.928 354.371C175.46 355.378 175.921 356.281 176.349 357.358L176.245 357.429C175.167 357.857 174.335 358.422 173.399 359.057C171.423 360.4 169.555 362.124 167.861 363.883C164.578 367.329 162.172 371.395 159.941 375.494C157.917 379.452 156.139 383.547 156.632 388.076C157.095 393.234 159.471 397.851 162.401 401.941C164.13 404.262 165.996 406.338 167.933 408.519C169.587 410.283 171.345 411.976 173.79 412.444C175.362 412.744 176.539 411.792 177.297 410.67C179.465 407.373 176.532 402.83 177.162 399.058C177.896 395.216 180.064 391.919 182.515 389.039C185.071 386.087 188.257 383.619 192.013 382.436C195.491 381.29 199.916 380.868 203.617 381.394C206.865 381.924 209.184 383.996 211.508 386.522C214.288 389.497 216.931 392.717 220.644 394.603C228.211 398.583 237.183 395.681 242.746 389.774C247.756 384.396 250.555 377.327 255.918 372.469C258.098 370.532 260.807 369.148 263.913 369.47C267.926 369.784 271.813 371.704 275.66 372.891C284.437 375.745 293.6 374.689 301.936 370.851C306.416 368.72 310.368 366.035 314.246 362.794C318.02 359.623 321.727 356.801 326.207 354.67C330.375 352.751 334.684 351.04 339.139 349.99C343.593 348.94 348.193 348.552 352.722 348.059C357.426 347.6 362.03 347.665 366.775 347.938C371.241 348.248 375.704 348.105 380.137 348.59C380.241 348.519 380.311 348.623 380.415 348.553C388.567 355.631 396.614 362.78 404.524 370.175C424.106 388.488 442.652 407.961 460.678 427.787C478.704 447.614 495.83 468.354 511.085 490.367C516.982 498.825 522.496 507.39 527.769 516.272C521.324 513.05 514.88 509.828 508.781 506.219C499.668 500.857 490.863 494.831 482.749 488.031C474.635 481.231 467.765 473.13 460.479 465.312C458.367 463.098 456.185 460.781 454.003 458.463C451.891 456.249 449.397 454.144 446.562 452.878C442.608 451.308 438.186 452.183 435.847 455.9C434.644 457.933 434.56 460.27 434.438 462.328C434.413 463.41 434.142 464.353 433.871 465.297C433.164 464.257 432.354 463.288 431.718 462.352C429.283 458.99 427.16 455.417 424.933 451.914C420.761 445.324 415.861 439.229 410.096 433.873C405.49 429.554 399.621 424.269 392.892 424.432C389.615 424.53 386.669 426.683 385.441 429.797C384.245 432.736 384.169 435.98 384.3 439.083C384.324 441.802 384.592 444.66 384.267 447.313C384.104 448.639 383.8 449.758 383.354 450.668C383.15 451.263 382.909 451.579 382.563 451.966C382.459 452.036 382.426 452.211 382.322 452.281C382.322 452.281 382.218 452.352 382.147 452.248C382.147 452.248 382.251 452.177 382.322 452.281C382.218 452.352 382.043 452.319 381.973 452.215C382.077 452.144 382.147 452.248 382.147 452.248L381.973 452.215C381.798 452.181 381.623 452.148 381.274 452.081C380.783 451.807 380.259 451.706 379.769 451.432C379.349 451.261 379.033 451.02 378.542 450.745C378.472 450.641 378.052 450.47 378.052 450.47C377.806 450.333 377.736 450.229 377.491 450.091C376.543 449.367 375.595 448.643 374.751 447.848C370.536 444.328 366.529 440.666 362.971 436.547C357.722 430.385 353.201 423.728 348.127 417.6C341.29 409.324 333.131 401.339 323.119 396.892C318.113 394.669 312.661 393.356 307.259 393.681C301.578 394.044 294.723 395.812 291.876 401.242C289.407 406.11 290.955 411.746 291.522 416.833C291.638 418.122 291.754 419.411 291.587 420.285C291.553 420.459 291.52 420.634 291.416 420.704L291.212 421.299C291.212 421.299 291.179 421.474 291.075 421.544C290.937 421.79 290.625 422.002 290.696 422.106C290.142 422.633 289.065 423.061 288.092 423.418C286.632 423.954 285.03 424.282 283.463 424.435C277.016 425.013 270.621 423.43 264.3 422.403C257.455 421.277 250.469 419.942 243.391 420.038C240.114 420.136 236.699 420.479 233.571 421.692C229.853 423.154 226.532 426.321 226.987 430.571C227.26 433.882 230.49 436.4 233.018 438.331C235.965 440.433 239.187 442.044 242.58 443.235C249.611 445.755 256.697 446.566 264.191 446.187C270.675 445.887 277.084 445.03 283.405 446.056C284.104 446.19 284.802 446.323 285.501 446.456C284.319 446.955 283.313 447.487 282.131 447.985C279.319 449.439 277.006 452.074 277.174 455.456C277.451 459.219 280.681 461.737 283.936 463.174C287.017 464.577 290.443 465.594 293.899 465.982C297.912 466.296 301.78 465.949 305.789 465.81C308.954 464.876 312.968 465.19 316.988 466.411ZM399.015 208.554C398.977 208.275 398.94 207.997 398.799 207.789C398.11 204.761 397.596 201.766 396.907 198.738C400.008 202.408 403.283 206.111 406.799 209.498C406.379 209.328 405.959 209.157 405.435 209.057C403.689 208.723 401.85 209.82 400.606 211.121C400.041 210.289 399.476 209.457 399.015 208.554ZM376.03 200C373.72 203.088 371.339 206.073 369.03 209.162C368.606 208.538 368.148 208.088 367.517 207.605C368.928 205.431 370.863 203.357 372.731 201.632C374.358 200.223 375.984 198.814 377.753 197.613C377.236 198.42 376.65 199.122 376.03 200ZM245.678 115.269C246.365 114.042 247.189 112.571 247.872 110.891C248.362 111.166 248.853 111.44 249.273 111.611C250.042 111.849 250.882 112.19 251.685 112.253C249.683 114.676 247.469 116.788 244.973 118.483C244.141 119.048 243.205 119.684 242.373 120.249C243.58 118.67 244.612 117.057 245.678 115.269ZM258.197 135.491C259.869 135.268 261.47 134.94 263.142 134.716C263.025 137.228 263.535 139.769 264.91 141.571C262.748 141.52 260.619 141.294 258.489 141.068C256.464 140.772 254.51 140.58 252.414 140.179C250.834 138.972 249.255 137.766 247.779 136.488C247.392 136.143 246.831 135.764 246.341 135.489C250.32 135.978 254.296 136.013 258.197 135.491ZM230.08 150.485C230.753 151.7 231.459 152.74 232.237 153.884C234.003 156.484 235.873 159.014 237.951 161.402C238.902 162.579 239.958 163.686 241.118 164.722C240.981 164.968 240.877 165.038 240.739 165.284C240.09 166.789 239.964 168.394 240.292 169.995C240.087 170.59 240.058 171.218 240.099 171.95C240.14 172.682 240.182 173.414 240.223 174.146C236.077 166.475 232.696 158.588 230.08 150.485ZM209.708 169.945C209.355 169.425 209.002 168.905 208.648 168.385C208.648 168.385 208.648 168.385 208.578 168.281C209.477 167.367 210.271 166.523 211.1 165.504C210.799 167.076 210.254 168.511 209.708 169.945ZM208.625 157.61C207.11 159.855 205.387 162.241 203.24 164.003C201.839 163.283 200.334 162.633 198.9 162.088C201.425 159.764 203.951 157.441 206.302 155.084C208.79 152.482 211.279 149.88 213.626 147.07C212.297 150.708 210.69 154.384 208.625 157.61ZM361.198 340.175C356.349 339.973 351.471 340.398 346.663 340.928C341.68 341.424 336.91 342.233 332.18 343.773C327.555 345.243 323.004 347.27 318.665 349.609C314.119 352.089 310.453 355.643 306.504 358.78C299.715 364 290.717 367.984 281.988 366.769C273.609 365.62 265.607 359.657 257.125 362.833C249.721 365.582 245.6 372.941 241.434 379.115C239.436 381.991 237.509 384.972 234.597 386.95C231.685 388.928 228.17 389.795 224.64 388.85C221.109 387.904 218.466 384.683 216.143 382.158C213.466 379.112 210.827 376.345 206.806 375.124C202.96 373.937 198.568 374.184 194.667 374.706C190.104 375.373 186.074 377.047 182.471 379.798C176.201 384.664 169.784 392.671 170.415 401.209C169.463 400.031 168.337 398.821 167.489 397.573C165.195 394.419 163.143 390.95 162.654 386.874C162.17 383.251 163.748 380.204 165.255 377.052C167.107 373.514 169.172 370.288 171.727 367.337C172.901 365.932 174.215 364.735 175.775 363.675C176.191 363.392 176.608 363.11 177.024 362.827C177.128 362.757 178.517 362.117 177.544 362.474C178.342 362.084 179.212 361.797 180.01 361.407C181.608 360.626 182.711 359.117 182.624 357.199C182.55 356.642 182.338 356.33 182.159 355.843C182.159 355.843 182.047 355.007 181.977 354.903C181.549 353.826 181.017 352.819 180.485 351.813C179.6 350.286 179.102 349.104 179.086 347.291C179.179 345.861 179.446 344.463 180.132 343.237C181.54 340.609 184.352 339.155 187.064 338.225C191.306 336.864 196.014 336.858 200.476 336.715C202.568 336.662 204.764 336.538 206.927 336.589C209.439 336.707 211.472 337.91 213.713 338.972C215.043 339.588 216.399 339.123 217.298 338.208C218.717 336.941 218.456 334.99 218.511 333.281C218.511 333.281 218.44 333.177 218.544 333.106C218.577 332.932 218.577 332.932 218.611 332.757C218.678 332.408 218.711 332.233 218.882 331.813C219.086 331.219 219.535 330.761 219.985 330.304C222.718 327.839 226.682 326.515 230.23 325.473C233.953 324.465 237.858 324.396 241.626 324.573C244.836 324.824 248.292 325.213 251.369 326.162C252.421 326.816 253.68 327.328 255.248 327.175C258.525 327.077 259.46 322.187 256.449 320.888C256.03 320.717 255.68 320.65 255.26 320.48C256.092 319.914 257.307 319.241 258.804 318.984C262.286 318.292 265.912 318.26 269.468 318.125C273.548 318.09 277.631 318.508 281.648 319.275C285.944 320.006 289.969 321.68 294.231 322.584C296.048 323.022 298.091 321.33 297.83 319.38C297.722 318.997 297.714 318.091 297.748 317.916C297.781 317.741 297.744 317.463 297.881 317.217L297.914 317.043C297.914 317.043 297.914 317.043 298.018 316.972C298.36 316.132 298.568 315.991 299.088 315.638C299.92 315.073 300.199 315.035 301.347 314.711C302.287 314.529 303.227 314.347 304.412 314.301C308.978 314.088 313.415 315.026 317.819 316.139C330.925 319.548 343.315 324.811 355.056 331.58C352.54 331.008 350.025 330.437 347.475 330.041C341.608 329.01 335.711 328.608 329.855 328.937C324.278 329.23 318.523 329.035 312.871 328.77C301.289 328.277 289.704 327.331 278.212 329.209C272.152 330.133 266.133 331.789 260.219 333.374C254.2 335.03 248.219 336.965 242.383 339.561C228.764 345.468 215.718 353.113 203.516 361.552C201.643 362.824 203.621 365.736 205.423 364.361C216.377 356.769 228.071 350.042 240.122 344.289C251.374 338.926 263.69 335.576 275.839 333.1C287.048 330.806 298.597 331.474 309.9 332.004C315.552 332.269 321.378 332.568 327.096 332.483C329.92 332.389 332.848 332.225 335.742 332.234C338.708 332.348 341.639 332.637 344.642 333.029C351.241 334.019 357.707 335.706 364.206 337.22C364.381 337.253 364.556 337.286 364.73 337.32C366.098 338.215 367.466 339.109 368.867 339.83C366.292 340.515 363.781 340.397 361.198 340.175ZM451.369 407.816C449.175 404.139 447.26 400.424 445.586 396.393C443.589 391.214 441.974 385.928 440.741 380.533C439.617 375.521 438.946 370.505 439.111 365.378C439.262 362.691 439.692 359.968 440.367 357.381C440.805 355.564 441.521 353.71 442.695 352.305C444.494 354.73 445.428 357.895 446.429 360.711C447.002 362.45 447.645 364.293 448.218 366.031C448.256 366.31 448.468 366.622 448.505 366.901C448.87 368.781 449.164 370.557 449.808 372.399C450.597 374.903 453.87 374.352 454.582 372.044C455.124 370.157 454.202 368.351 453.525 366.683C453.011 363.688 452.879 360.586 452.993 357.621C453.062 353.47 453.235 349.249 453.757 345.095C454.279 340.941 455.325 336.887 457.107 333.244C457.861 331.669 458.718 330.022 459.892 328.617C460.478 327.915 461.065 327.212 461.793 326.718C462.209 326.435 462.105 326.506 462.417 326.294C462.521 326.223 462.625 326.153 462.625 326.153C462.625 326.153 462.625 326.153 462.8 326.186C462.8 326.186 463.291 326.461 463.361 326.565C463.922 326.944 464.38 327.393 464.662 327.809C465.473 328.778 466.424 329.956 467.339 330.855C469.413 332.79 472.71 334.958 475.667 334.165C480.051 333.012 479.547 327.122 480.039 323.596C480.595 319.267 481.254 314.868 482.334 310.639C483.209 307.004 484.434 303.437 485.729 299.973C486.171 298.61 486.891 297.208 487.578 295.982C487.956 295.421 488.302 295.034 488.614 294.822C488.614 294.822 489.067 294.818 488.996 294.714C489.171 294.748 489.346 294.781 489.346 294.781C489.766 294.952 490.256 295.226 490.676 295.397C491.167 295.672 490.992 295.639 491.553 296.017C492.115 296.396 492.746 296.879 493.412 297.187C495.27 298.357 497.474 299.14 499.699 298.388C503.314 296.997 504.493 292.244 505.651 289.026C507.288 284.722 508.33 280.215 509.722 275.774C512.334 267.312 515.05 258.78 520.182 251.343C522.591 247.73 525.388 244.463 528.571 241.541C530.751 239.604 533.485 237.14 536.587 237.008C537.773 236.963 538.438 237.271 539.278 237.613C539.278 237.613 539.523 237.75 539.698 237.784C539.768 237.888 539.943 237.921 540.084 238.129L540.226 238.337C540.367 238.545 540.508 238.753 540.579 238.857C540.579 238.857 540.579 238.857 540.649 238.961C540.791 239.169 540.757 239.344 540.899 239.552C540.899 239.552 540.936 239.83 541.007 239.934C541.077 240.038 540.973 240.109 541.044 240.213C541.126 241.677 541.197 241.781 541.034 243.107C540.637 245.657 539.954 247.336 539.067 249.611C538.076 251.956 537.015 254.197 535.778 256.404C533.651 260.433 531.312 264.15 529.184 268.178C525.583 275.184 521.953 282.817 520.871 290.847C520.345 294.548 520.414 298.453 522.396 301.819C523.422 303.554 524.827 304.727 526.544 305.689C528.19 306.546 530.008 306.984 531.55 307.912C534.46 309.735 533.789 312.775 533.047 315.711C532.205 319.171 530.627 322.218 528.314 324.853C523.619 330.473 517.13 334.121 511.309 338.531C504.657 343.505 499.584 349.686 495.812 357.112C492.073 364.363 489.736 372.334 487.677 380.267C486.598 384.496 485.518 388.725 484.788 393.021C484.092 397.142 484.027 401.746 482.386 405.596C480.987 409.13 477.659 411.39 475.557 414.338C473.938 416.653 472.672 419.489 471.789 422.217C469.148 407.14 468.004 391.806 469.826 376.586C470.837 368.452 472.65 360.38 475.407 352.58C478.54 343.765 483.073 335.671 488.167 327.955C493.915 319.187 500.329 310.728 505.411 301.652C506.269 300.005 503.853 298.91 502.925 300.453C492.985 316.475 480.173 330.953 473.351 348.657C467.279 364.333 465.157 381.124 465.685 397.789C466.045 407.271 467.313 416.745 469.067 426.041C469.249 426.981 469.985 427.393 470.613 427.423C470.547 427.772 470.48 428.121 470.588 428.504C464.603 421.93 457.986 414.873 451.369 407.816ZM287.508 456.796C286.493 456.421 285.408 455.943 284.498 455.497C284.078 455.326 284.007 455.222 283.621 454.877C283.621 454.877 283.479 454.669 283.305 454.636L283.234 454.532C283.234 454.532 283.234 454.532 283.163 454.428L283.093 454.324C283.301 454.182 283.542 453.866 283.542 453.866C283.854 453.654 284.27 453.372 284.582 453.16C285.381 452.769 285.589 452.628 286.666 452.2C287.744 451.773 288.75 451.241 289.861 450.638C292.082 449.434 294.263 447.497 293.262 444.681C291.547 439.918 285.992 438.676 281.559 438.191C270.913 437.062 260.161 439.805 249.645 437.525C244.613 436.383 239.437 434.579 235.259 431.337C234.382 430.717 233.397 429.714 232.798 429.057L232.727 428.953C232.69 428.674 232.723 428.499 232.965 428.183C234.068 426.674 237.029 426.335 238.876 426.145C244.17 425.436 249.476 426.088 254.645 426.985C259.743 427.778 264.808 428.746 269.906 429.538C275.075 430.435 280.415 430.912 285.672 429.925C290.651 428.976 295.513 426.737 296.968 421.493C298.118 417.369 296.685 413.022 296.301 408.875C296.144 406.854 295.995 405.74 296.607 403.956C296.574 404.13 296.915 403.291 296.949 403.116C296.949 403.116 297.052 403.045 296.982 402.941C297.119 402.696 297.223 402.625 297.431 402.484C297.881 402.027 298.434 401.499 299.129 401.179C306.354 397.943 314.459 399.582 321.36 403.254C324.969 405.211 327.987 407.416 331.254 410.213C332.801 411.594 334.418 413.08 335.931 414.636C336.529 415.294 337.302 415.984 337.971 416.746C338.886 417.645 339.027 417.853 339.767 418.718C347.867 427.959 354.237 438.68 363.236 447.006C365.626 449.182 368.087 451.463 370.614 453.394C373.528 455.67 377.037 458.151 380.838 458.153C385.442 458.218 388.022 454.185 389.243 450.164C390.531 445.794 390.001 440.986 389.962 436.453C389.913 434.815 389.96 432.199 390.751 430.902C390.784 430.727 390.992 430.586 391.096 430.515C391.096 430.515 391.096 430.515 391.2 430.444L391.304 430.374C391.408 430.303 391.512 430.233 391.583 430.337C391.757 430.37 392.593 430.258 392.419 430.225C392.593 430.258 393.467 430.425 393.816 430.492C398.186 431.779 402.442 436.032 405.888 439.315C414.434 447.645 419.93 458.199 426.883 467.764C428.296 469.844 430.091 471.816 432.607 472.387C434.075 472.758 435.921 472.568 437.061 471.338C437.994 470.248 438.677 468.569 439.118 467.205C439.935 464.826 440.086 462.14 440.345 459.836C440.412 459.487 440.441 458.859 440.474 458.684C440.441 458.859 440.749 458.194 440.853 458.123C440.957 458.052 441.269 457.841 441.373 457.77L441.477 457.699C441.652 457.733 441.756 457.662 441.756 457.662C441.93 457.695 442.35 457.866 442.454 457.795C443.049 458 443.61 458.378 444.101 458.653C444.171 458.757 444.662 459.032 444.803 459.24C445.119 459.481 445.506 459.827 445.822 460.068C446.524 460.655 447.227 461.241 447.896 462.003C450.71 464.803 453.49 467.778 456.271 470.753C460.565 475.285 464.721 480.061 469.118 484.522C473.587 489.086 478.504 493.194 483.559 497.056C491.245 502.778 499.207 508.01 507.372 512.647C505.276 512.247 503.039 511.639 500.873 511.134C497.588 510.326 494.169 510.216 490.921 509.686C487.324 509.089 484.069 507.652 480.639 506.183C477.138 504.609 473.567 502.931 469.995 501.253C462.885 497.722 455.776 494.192 448.666 490.661C441.382 487.097 434.235 483.288 426.847 479.795C420.124 476.61 413.13 474.369 406.099 471.849C391.023 466.434 376.562 459.689 361.656 453.855C345.07 447.337 327.976 442.533 311.049 436.855C309.44 436.276 308.137 438.833 309.85 439.342C324.889 444.477 340.2 448.67 355.035 454.4C370.22 460.197 384.892 467.254 400.077 473.052C407.004 475.642 414.068 477.987 420.858 480.823C428.242 483.863 435.285 487.743 442.465 491.377C449.716 495.116 457 498.68 464.285 502.244C471.149 505.637 478.121 509.412 485.431 511.895C488.998 513.12 492.766 513.296 496.467 513.822C499.993 514.315 503.212 515.473 506.705 516.14C509.254 516.537 511.799 516.48 514.311 516.598C514.801 516.872 515.292 517.147 515.782 517.422C516.028 517.559 516.273 517.697 516.518 517.834C516.032 518.013 515.578 518.017 515.092 518.195C508.341 519.892 502.163 523.328 495.733 525.72C489.614 527.9 483.35 529.419 476.8 530.068C471.364 530.569 465.575 530.549 460.706 528.08C454.507 524.995 452.702 517.862 449.723 512.134C446.815 506.509 442.235 501.109 436.698 497.879C430.915 494.511 423.383 494.611 416.829 494.807C410.379 494.932 404.07 495.266 397.753 494.693C390.983 494.123 383.93 493.138 377.731 490.053C375.245 488.854 372.16 486.997 371.267 484.564C370.515 482.339 371.045 479.091 370.988 476.546C370.977 475.186 369.709 473.767 368.383 473.604C365.484 473.141 362.59 473.131 359.658 472.843C356.797 472.658 354.002 472.124 351.345 471.345C345.753 469.824 340.364 467.708 334.838 465.838C329.416 463.897 324.094 461.432 318.639 459.666C312.834 457.833 306.975 457.709 301.119 458.039C296.59 458.531 291.882 458.537 287.508 456.796Z" fill="#10934B"/>
</g>
<defs>
<clipPath id="clip0_104_197">
<rect width="427.039" height="881.823" fill="white" transform="translate(0 378.698) rotate(-62.4242)"/>
</clipPath>
</defs>
</svg>
