<svg width="30" height="30" viewBox="0 0 30 30" fill="none" xmlns="http://www.w3.org/2000/svg">
<path d="M26.35 17.5V17.4997C26.3466 16.3807 25.4268 15.525 24.375 15.525H17.5C16.3724 15.525 15.525 16.4487 15.525 17.5V24.375L15.525 24.3753C15.5284 25.4937 16.4481 26.35 17.5 26.35H24.375C25.505 26.35 26.35 25.4262 26.35 24.375V17.5ZM14.475 17.5L14.475 17.4997C14.4716 16.3807 13.5518 15.525 12.5 15.525H5.625C4.49745 15.525 3.65 16.4487 3.65 17.5L3.65 24.375L3.65 24.3753C3.65335 25.4937 4.57313 26.35 5.625 26.35H12.5C13.63 26.35 14.475 25.4262 14.475 24.375V17.5ZM26.35 5.625V5.6247C26.3466 4.5057 25.4268 3.65 24.375 3.65H17.5C16.3724 3.65 15.525 4.57371 15.525 5.625V12.5L15.525 12.5003C15.5284 13.6187 16.4481 14.475 17.5 14.475H24.375C25.505 14.475 26.35 13.5512 26.35 12.5V5.625ZM14.475 5.625L14.475 5.6247C14.4716 4.5057 13.5518 3.65 12.5 3.65H5.625C4.49745 3.65 3.65 4.57371 3.65 5.625L3.65 12.5L3.65 12.5003C3.65335 13.6187 4.57313 14.475 5.625 14.475H12.5C13.63 14.475 14.475 13.5512 14.475 12.5V5.625ZM17.5 16.975H24.375C24.6929 16.975 24.9 17.2285 24.9 17.5V24.375C24.9 24.6876 24.6459 24.9 24.375 24.9H17.5C17.1874 24.9 16.975 24.6459 16.975 24.375V17.5C16.975 17.195 17.2301 16.975 17.5 16.975ZM5.625 16.975H12.5C12.8179 16.975 13.025 17.2285 13.025 17.5V24.375C13.025 24.6876 12.7709 24.9 12.5 24.9H5.625C5.31237 24.9 5.1 24.6459 5.1 24.375V17.5C5.1 17.195 5.35506 16.975 5.625 16.975ZM17.5 5.1H24.375C24.6929 5.1 24.9 5.35346 24.9 5.625V12.5C24.9 12.8126 24.6459 13.025 24.375 13.025H17.5C17.1874 13.025 16.975 12.7709 16.975 12.5V5.625C16.975 5.32001 17.2301 5.1 17.5 5.1ZM5.625 5.1H12.5C12.8179 5.1 13.025 5.35346 13.025 5.625V12.5C13.025 12.8126 12.7709 13.025 12.5 13.025H5.625C5.31237 13.025 5.1 12.7709 5.1 12.5V5.625C5.1 5.32001 5.35506 5.1 5.625 5.1Z" fill="white" stroke="white" stroke-width="0.2"/>
</svg>
