<svg width="17" height="17" viewBox="0 0 17 17" fill="none" xmlns="http://www.w3.org/2000/svg">
<g clip-path="url(#clip0_104_323)">
<path d="M0.85 8.5C0.85 12.7185 4.28149 16.15 8.5 16.15C12.7185 16.15 16.15 12.7185 16.15 8.5C16.15 4.28149 12.7185 0.85 8.5 0.85C4.28149 0.85 0.85 4.28149 0.85 8.5ZM2.0875 8.5C2.0875 4.96411 4.96411 2.0875 8.5 2.0875C12.0359 2.0875 14.9125 4.96411 14.9125 8.5C14.9125 12.0359 12.0359 14.9125 8.5 14.9125C4.96411 14.9125 2.0875 12.0359 2.0875 8.5Z" fill="#FAA432" stroke="#FAA432" stroke-width="0.3"/>
<path d="M5.21875 9.11875H11.7812C12.1228 9.11875 12.4 8.84159 12.4 8.5C12.4 8.15841 12.1228 7.88125 11.7812 7.88125H5.21875C4.87716 7.88125 4.6 8.15841 4.6 8.5C4.6 8.84159 4.87716 9.11875 5.21875 9.11875Z" fill="#FAA432" stroke="#FAA432" stroke-width="0.3"/>
</g>
<defs>
<clipPath id="clip0_104_323">
<rect width="17" height="17" fill="white"/>
</clipPath>
</defs>
</svg>
