<svg width="20" height="20" viewBox="0 0 20 20" fill="none" xmlns="http://www.w3.org/2000/svg">
<path d="M16.7877 10.7499L10.4938 17.0445C10.3961 17.1422 10.2632 17.1974 10.125 17.1974H3.38408C2.91961 17.1974 2.68676 16.6357 3.01543 16.3076C4.94033 14.3809 9.32448 9.99493 9.32448 9.99493C9.32448 9.99493 4.93972 5.61017 3.01543 3.68344C2.68661 3.35538 2.91961 2.7937 3.38408 2.7937H10.125C10.2634 2.7937 10.3961 2.84894 10.4938 2.94659L13.3502 5.80304L16.7877 9.23993C17.2043 9.6571 17.2043 10.3328 16.7877 10.7499Z" fill="#FAA432"/>
<path d="M12.8456 10.7499L6.55166 17.0445C6.454 17.1422 6.32125 17.1974 6.183 17.1974H3.38408C2.91961 17.1974 2.68676 16.6357 3.01543 16.3076C4.94033 14.3809 9.32448 9.99493 9.32448 9.99493C9.32448 9.99493 4.93972 5.61017 3.01543 3.68344C2.68661 3.35538 2.91961 2.7937 3.38408 2.7937H6.183C6.32125 2.7937 6.45415 2.84894 6.55181 2.94659L12.8458 9.23978C13.2623 9.6571 13.2623 10.3328 12.8456 10.7499Z" fill="#0D9B4D"/>
<path d="M12.8456 10.7499L6.55167 17.0445C6.45401 17.1422 6.32126 17.1974 6.18301 17.1974H4.54315C4.6814 17.1974 4.81415 17.1422 4.9118 17.0445L11.3878 10.5681C11.8044 10.1507 11.8044 9.83899 11.3878 9.42181L4.9118 2.94659C4.81415 2.84894 4.6814 2.7937 4.54315 2.7937H6.18301C6.32126 2.7937 6.45401 2.84894 6.55167 2.94659L12.8456 9.23993C13.2623 9.6571 13.2623 10.3328 12.8456 10.7499Z" fill="#FFA816"/>
<path d="M16.9948 9.03271L13.5574 5.59583L10.701 2.73938C10.5493 2.58771 10.3394 2.50073 10.125 2.50073H3.3841C3.04826 2.50073 2.75987 2.6936 2.63139 3.00397C2.50321 3.31403 2.57096 3.65384 2.80808 3.8905C4.47175 5.5563 8.01728 9.10199 8.91023 9.99493C8.01942 10.8862 4.48304 14.4241 2.80839 16.1003C2.57096 16.3374 2.50321 16.6772 2.63139 16.9871C2.75987 17.2975 3.04826 17.4904 3.3841 17.4904H10.125C10.3394 17.4904 10.5493 17.4034 10.701 17.2517L16.9949 10.9572C16.9949 10.9572 16.9949 10.9572 16.9949 10.957C17.5247 10.4265 17.5247 9.56342 16.9948 9.03271ZM16.5804 10.543L16.5805 10.5429L10.2866 16.8374C10.244 16.88 10.1851 16.9044 10.125 16.9044H3.3841C3.24235 16.9044 3.1865 16.7962 3.17292 16.7631C3.15919 16.7302 3.12241 16.6148 3.22266 16.5147C5.14756 14.588 9.53172 10.202 9.53172 10.202C9.64616 10.0876 9.64616 9.90216 9.53172 9.78772C9.48777 9.74393 5.12498 5.38098 3.22236 3.47607C3.12241 3.37628 3.15919 3.26093 3.17292 3.22781C3.1865 3.1947 3.24235 3.08667 3.3841 3.08667H10.125C10.1851 3.08667 10.244 3.11108 10.2866 3.15366L13.1432 6.01025L16.5804 9.44684C16.8822 9.74911 16.8822 10.2408 16.5804 10.543Z" fill="white"/>
</svg>
