<svg width="22" height="22" viewBox="0 0 22 22" fill="none" xmlns="http://www.w3.org/2000/svg">
<g clip-path="url(#clip0_104_4030)">
<path d="M22.0428 7.39062V10.8281C22.0428 11.3028 21.6581 11.6875 21.1835 11.6875H20.6183L20.2563 14.9097C20.2069 15.3487 19.835 15.673 19.4033 15.6732C19.3712 15.6732 19.339 15.6713 19.3063 15.6677C18.8346 15.6148 18.4952 15.1893 18.5483 14.7178L18.9961 10.7323C19.0449 10.2976 19.4125 9.96875 19.8501 9.96875H20.3243V8.24999H1.76172V9.96875H16.4141C16.8888 9.96875 17.2735 10.3536 17.2735 10.8281C17.2735 11.3028 16.8888 11.6875 16.4141 11.6875H3.21293L4.06156 18.7671C4.16495 19.6304 4.89861 20.2813 5.76806 20.2813H16.3867C17.2626 20.2813 17.9969 19.6248 18.0947 18.7544C18.1476 18.2827 18.5729 17.9435 19.0446 17.9964C19.5162 18.0494 19.8556 18.4747 19.8028 18.9464C19.607 20.6871 18.1385 22 16.3867 22H5.76806C4.02917 22 2.56185 20.698 2.35489 18.9716L1.48192 11.6875H0.902345C0.427674 11.6875 0.0429688 11.3028 0.0429688 10.8281V7.39062C0.0429688 6.91594 0.427674 6.53124 0.902345 6.53124H3.95045L8.49155 0.35061C8.77252 -0.0317452 9.3103 -0.114158 9.69283 0.166986C10.0753 0.447961 10.1576 0.985743 9.87662 1.36827L6.08328 6.53124H16.0344L12.2409 1.36827C11.9599 0.985743 12.0422 0.447961 12.4247 0.166986C12.8072 -0.114158 13.345 -0.0319131 13.6262 0.35061L18.1671 6.53124H21.1835C21.6581 6.53124 22.0428 6.91611 22.0428 7.39062ZM10.1836 14.2656V17.7031C10.1836 18.1778 10.5683 18.5625 11.043 18.5625C11.5175 18.5625 11.9024 18.1778 11.9024 17.7031V14.2656C11.9024 13.791 11.5175 13.4063 11.043 13.4063C10.5683 13.4063 10.1836 13.791 10.1836 14.2656ZM13.6211 14.2656V17.7031C13.6211 18.1778 14.0058 18.5625 14.4805 18.5625C14.955 18.5625 15.3399 18.1778 15.3399 17.7031V14.2656C15.3399 13.791 14.955 13.4063 14.4805 13.4063C14.0058 13.4063 13.6211 13.791 13.6211 14.2656ZM6.74611 14.2656V17.7031C6.74611 18.1778 7.13081 18.5625 7.60548 18.5625C8.07999 18.5625 8.46486 18.1778 8.46486 17.7031V14.2656C8.46486 13.791 8.07999 13.4063 7.60548 13.4063C7.13081 13.4063 6.74611 13.791 6.74611 14.2656Z" fill="white"/>
</g>
<defs>
<clipPath id="clip0_104_4030">
<rect width="22" height="22" fill="white"/>
</clipPath>
</defs>
</svg>
