<svg width="30" height="30" viewBox="0 0 30 30" fill="none" xmlns="http://www.w3.org/2000/svg">
<g clip-path="url(#clip0_104_20)">
<path d="M11.1599 26.4665V26.4665C11.1599 27.3446 10.4481 28.0564 9.56993 28.0564C8.69181 28.0564 7.97998 27.3446 7.97998 26.4665C7.97998 25.5884 8.69181 24.8765 9.56993 24.8765C10.4481 24.8765 11.1599 25.5884 11.1599 26.4665ZM9.56993 23.1845C7.75733 23.1845 6.28799 24.6539 6.28799 26.4664C6.28799 28.279 7.7574 29.7484 9.56993 29.7484C11.3825 29.7484 12.8519 28.279 12.8519 26.4664C12.8519 24.6539 11.3825 23.1845 9.56993 23.1845Z" fill="#222222" stroke="#222222" stroke-width="0.3"/>
<path d="M24.3838 26.4665V26.4665C24.3838 27.3446 23.6719 28.0564 22.7938 28.0564C21.9157 28.0564 21.2039 27.3446 21.2039 26.4665C21.2039 25.5884 21.9157 24.8765 22.7938 24.8765C23.6719 24.8765 24.3838 25.5884 24.3838 26.4665ZM22.7938 23.1845C20.9812 23.1845 19.5119 24.6539 19.5119 26.4664C19.5119 28.279 20.9813 29.7484 22.7938 29.7484C24.6064 29.7484 26.0758 28.279 26.0758 26.4664C26.0758 24.6539 24.6064 23.1845 22.7938 23.1845Z" fill="#222222" stroke="#222222" stroke-width="0.3"/>
<path d="M29.9722 4.96705L29.9721 4.9671C30.1453 5.16962 30.1963 5.44922 30.1065 5.69941L28.4382 12.6853C28.4382 12.6854 28.4382 12.6855 28.4381 12.6855L28.4381 12.6856L28.2922 12.6508C27.9193 14.2263 26.5955 15.3967 24.9862 15.574L29.9722 4.96705ZM29.9722 4.96705L29.9688 4.9633C29.7988 4.77767 29.5664 4.66147 29.316 4.63688L29.3161 4.63635L29.3034 4.63617L6.75599 4.32446L29.9722 4.96705ZM26.7892 12.3023L26.7892 12.3022L26.7886 12.305C26.577 13.2549 25.7705 13.9556 24.8004 14.0325L24.8004 14.0325L24.7968 14.0329L10.4402 15.5168L7.3076 6.01803L28.2412 6.32537L26.7892 12.3023Z" fill="#222222" stroke="#222222" stroke-width="0.3"/>
</g>
<defs>
<clipPath id="clip0_104_20">
<rect width="30" height="30" fill="white"/>
</clipPath>
</defs>
</svg>
