<svg width="50" height="51" viewBox="0 0 50 51" fill="none" xmlns="http://www.w3.org/2000/svg">
<g clip-path="url(#clip0_104_138)">
<path d="M40.485 17.7657C39.1503 16.514 37.5775 15.5182 35.8437 14.8568C38.4411 12.9947 40.1367 9.95093 40.1367 6.51831V0.170654H33.7891C28.1351 0.170654 23.5352 4.77056 23.5352 10.4246V11.7709L19.33 7.56587L17.2585 9.63745L21.8166 14.1956C20.9236 14.0238 20.0128 13.9368 19.0984 13.9402C15.4024 13.951 12.0342 15.403 9.51504 17.7657C3.37617 19.4708 0 22.0929 0 25.1707V33.9597C0 35.9183 1.36992 38.7078 7.89658 40.8743C8.31006 41.0115 8.73594 41.143 9.17266 41.269C9.88027 42.2548 10.671 43.1867 11.5286 44.0443L15.8793 48.3951C17.0244 49.5401 18.5468 50.1707 20.166 50.1707C21.7853 50.1707 23.3076 49.5401 24.4527 48.3951C24.7545 48.0933 25.2456 48.0933 25.5474 48.3951C26.6924 49.5401 28.2147 50.1707 29.834 50.1707C31.4532 50.1707 32.9756 49.5401 34.1207 48.3951L38.4714 44.0444C39.329 43.1868 40.1196 42.2549 40.8273 41.269C41.2641 41.143 41.6899 41.0115 42.1034 40.8743C48.6301 38.7078 50 35.9183 50 33.9597V25.1707C50 22.0929 46.6238 19.4708 40.485 17.7657ZM26.4648 10.4246C26.4648 6.38599 29.7505 3.10034 33.7891 3.10034H37.207V6.51831C37.207 10.5569 33.9214 13.8425 29.8828 13.8425H26.4648V10.4246ZM19.1069 16.8699C20.9459 16.861 22.7021 17.2902 24.3229 18.1349L25 18.4878L25.6771 18.1349C27.2878 17.2954 29.0309 16.8698 30.8588 16.8698C30.8701 16.8698 30.8817 16.8698 30.8932 16.8698C37.0669 16.888 42.0898 21.9867 42.0898 28.2356C42.0898 28.4861 42.0843 28.7378 42.0745 28.9894C41.7901 29.0955 41.4934 29.2007 41.1803 29.3046C36.8801 30.7322 31.1338 31.5183 25 31.5183C18.8662 31.5183 13.1199 30.7322 8.81963 29.3047C8.50664 29.2008 8.20977 29.0956 7.92539 28.9895C7.91562 28.7379 7.91006 28.4862 7.91006 28.2357C7.91016 21.9867 12.9331 16.888 19.1069 16.8699ZM6.41025 21.9852C5.58281 23.6941 5.0835 25.5923 4.99541 27.5956C3.51982 26.6726 2.92969 25.7917 2.92969 25.1707C2.92969 24.2851 4.03242 23.1 6.41025 21.9852ZM32.0491 46.3234C31.4574 46.9151 30.6707 47.241 29.834 47.241C28.9973 47.241 28.2105 46.9151 27.6188 46.3235C26.1747 44.8793 23.825 44.8793 22.3811 46.3235C21.7895 46.9151 21.0027 47.241 20.166 47.241C19.3293 47.241 18.5426 46.9151 17.9509 46.3235L13.9798 42.3524C17.356 42.9305 21.1111 43.2371 25 43.2371C28.8889 43.2371 32.6439 42.9305 36.0201 42.3524L32.0491 46.3234ZM47.0703 33.9597C47.0703 34.9648 45.5277 36.6506 41.1804 38.0938C36.8801 39.5212 31.1338 40.3074 25 40.3074C18.8662 40.3074 13.1199 39.5212 8.81963 38.0938C4.47227 36.6506 2.92969 34.9648 2.92969 33.9597V29.7512C3.72354 30.3011 4.71758 30.844 5.95703 31.3628V34.8386H8.88672V32.3958C9.81338 32.6717 10.7928 32.9213 11.8164 33.1441V36.4011H14.7461V33.6891C15.6966 33.8378 16.6751 33.9652 17.6758 34.0711V37.0847H20.6055V34.3147C21.5685 34.3736 22.5464 34.4131 23.5352 34.4328V37.3777H26.4648V34.4329C27.4536 34.4132 28.4315 34.3737 29.3945 34.3148V37.0847H32.3242V34.0711C33.3249 33.9653 34.3034 33.8378 35.2539 33.6891V36.4011H38.1836V33.1441C39.2072 32.9213 40.1866 32.6717 41.1133 32.3958V34.8386H44.043V31.3628C45.2824 30.844 46.2765 30.3011 47.0703 29.7512V33.9597ZM45.0046 27.5957C44.9165 25.5924 44.4172 23.6942 43.5897 21.9853C45.9676 23.1 47.0703 24.2851 47.0703 25.1707C47.0703 25.7917 46.4802 26.6726 45.0046 27.5957Z" fill="#FEE431"/>
</g>
<defs>
<clipPath id="clip0_104_138">
<rect width="50" height="50" fill="white" transform="translate(0 0.170654)"/>
</clipPath>
</defs>
</svg>
