<svg width="20" height="19" viewBox="0 0 20 19" fill="none" xmlns="http://www.w3.org/2000/svg">
<path fill-rule="evenodd" clip-rule="evenodd" d="M10.5257 1.62731L12.2451 6.91911H17.8093H19.5106L18.1342 7.91911L13.6327 11.1896L15.3521 16.4814L15.8779 18.0994L14.5015 17.0994L10 13.8289L5.49854 17.0994L4.12215 18.0994L4.64788 16.4814L6.36729 11.1896L1.86582 7.91911L0.489441 6.91911H2.19074H7.75487L9.47427 1.62731L10 0.00927734L10.5257 1.62731ZM12.2451 7.91911H16.4329L13.0449 10.3806L12.4571 10.8077L12.6817 11.4986L13.9757 15.4814L10.5878 13.0199L10 12.5929V3.24535L11.2941 7.22812L11.5186 7.91911H12.2451Z" fill="#FAA432"/>
</svg>
