<svg width="20" height="19" viewBox="0 0 20 19" fill="none" xmlns="http://www.w3.org/2000/svg">
<path fill-rule="evenodd" clip-rule="evenodd" d="M10.5257 1.61803L12.2451 6.90983H17.8092H19.5105L18.1341 7.90983L13.6327 11.1803L15.3521 16.4721L15.8778 18.0902L14.5014 17.0902L9.99994 13.8197L5.49847 17.0902L4.12209 18.0902L4.64782 16.4721L6.36723 11.1803L1.86576 7.90983L0.48938 6.90983H2.19068H7.7548L9.47421 1.61803L9.99994 0L10.5257 1.61803ZM12.2451 7.90983H16.4328L13.0449 10.3713L12.4571 10.7984L12.6816 11.4894L13.9757 15.4721L10.5877 13.0106L9.99994 12.5836V3.23607L11.294 7.21885L11.5185 7.90983H12.2451Z" fill="#FAA432"/>
</svg>
