<svg width="24" height="22" viewBox="0 0 24 22" fill="none" xmlns="http://www.w3.org/2000/svg">
<path fill-rule="evenodd" clip-rule="evenodd" d="M12.5257 1.61803L14.6941 8.2918H21.7113H23.4126L22.0362 9.2918L16.3592 13.4164L18.5276 20.0902L19.0534 21.7082L17.677 20.7082L11.9999 16.5836L6.32289 20.7082L4.9465 21.7082L5.47224 20.0902L7.64067 13.4164L1.96363 9.2918L0.58725 8.2918H2.28855H9.30576L11.4742 1.61803L11.9999 0L12.5257 1.61803ZM14.6941 9.2918H20.3349L15.7714 12.6074L15.1836 13.0344L15.4081 13.7254L17.1512 19.0902L12.5877 15.7746L11.9999 15.3475L11.9999 3.6L11.5602 4.58932L11.9999 3.23607L13.743 8.60081L13.9676 9.2918H14.6941ZM7.15985 18.864L6.86451 19.0412L6.84862 19.0902L7.15985 18.864ZM4.81625 10.1283L4.19993 9.6L3.89172 9.2918H3.66493L4.81625 10.1283Z" fill="#FAA432"/>
</svg>
