<svg width="20" height="19" viewBox="0 0 20 19" fill="none" xmlns="http://www.w3.org/2000/svg">
<path fill-rule="evenodd" clip-rule="evenodd" d="M10.5257 1.61803L12.2451 6.90983H17.8093H19.5106L18.1342 7.90983L13.6327 11.1803L15.3521 16.4721L15.8779 18.0902L14.5015 17.0902L10 13.8197L5.49854 17.0902L4.12215 18.0902L4.64788 16.4721L6.36729 11.1803L1.86582 7.90983L0.489441 6.90983H2.19074H7.75487L9.47427 1.61803L10 0L10.5257 1.61803ZM12.2451 7.90983H16.4329L13.0449 10.3713L12.4571 10.7984L12.6817 11.4894L13.9757 15.4721L10.5878 13.0106L10 12.5836V3.23607L11.2941 7.21885L11.5186 7.90983H12.2451Z" fill="#FAA432"/>
</svg>
