<svg width="465" height="690" viewBox="0 0 465 690" fill="none" xmlns="http://www.w3.org/2000/svg">
<path d="M315.122 392.439C319.099 396.67 323.902 400.402 329.491 402.255C334.367 403.874 341.533 405.218 344.814 400.097C346.783 397.024 346.253 393.944 344.869 390.734C343.467 387.646 341.923 384.662 340.258 381.659C338.178 378.093 336.099 374.527 334.02 370.961C338.402 376.627 343.207 381.984 348.293 387.134C350.991 389.92 353.708 392.584 356.565 395.144C359.197 397.545 362.074 399.983 365.362 401.36C372.201 404.029 380.002 401.222 382.933 394.298C384.666 390.314 384.727 385.825 383.895 381.45C386.029 383.025 388.322 384.375 390.914 385.396C395.734 387.381 400.862 388.164 406.102 388.215C410.591 388.275 415.916 388.589 420.007 386.34C424.625 383.921 427.577 378.5 425.984 373.383C424.561 368.793 420.725 364.459 417.369 361.073C415.639 359.309 413.89 357.668 411.879 356.111C415.693 357.318 419.544 358.281 423.451 358.878C432.853 360.314 443.745 359.353 452.294 354.911C456.368 352.784 459.942 349.832 462.078 345.66C464.374 341.262 464.706 335.816 463.424 331.122C462.282 326.324 459.601 321.792 455.381 319.148C451.284 316.524 446.634 315.064 441.891 314.215C439.223 313.682 436.537 313.272 433.814 313.106C436.461 312.136 439.005 311.025 441.463 309.651C445.255 307.731 449.084 305.567 452.255 302.803C455.285 300.142 458.061 296.693 458.206 292.467C458.455 288.382 456.676 284.486 453.874 281.56C447.735 275.125 438.907 274.027 430.465 274.487C428.071 274.621 425.78 274.896 423.451 275.415C423.733 275.208 423.892 274.982 424.174 274.776C428.986 270.263 432.342 264.653 433.837 258.134C435.079 252.451 434.217 245.823 429.978 241.677C425.409 237.231 417.981 237.596 412.189 238.711C408.443 239.513 404.678 240.437 400.998 241.625C403.24 239.218 405.397 236.549 407.084 233.683C409.821 228.853 409.983 222.881 409.319 217.407C409.063 214.994 408.3 212.628 406.711 210.761C405.018 208.753 402.707 207.526 400.199 206.768C394.713 205.056 388.995 205.682 383.465 206.712C380.122 207.326 376.743 208.184 373.485 209.061C372.049 209.466 370.594 209.994 369.036 210.381C367.68 207.8 365.377 205.699 362.325 205.233C354.492 204.162 347.118 209.908 342.175 215.275C336.031 221.959 332.406 230.151 328.641 238.447C327.713 240.43 326.767 242.534 325.84 244.517C327.215 239.604 328.205 234.757 328.725 229.714C329.125 226.277 329.421 222.699 328.967 219.131C328.559 216.07 327.42 212.897 324.498 211.576C319.349 209.291 313.541 213.777 310.362 217.414C305.841 222.471 302.91 229.396 300.56 235.784C297.958 243.008 296.05 250.588 294.754 258.262C291.881 275.44 291.657 293.273 293.901 310.484C289.733 311.596 286.12 313.169 282.93 316.055C281.467 317.456 280.107 318.997 278.973 320.698C278.832 320.802 278.795 321.046 278.654 321.149C278.635 321.272 278.513 321.253 278.494 321.375C278.176 321.826 277.979 322.296 277.782 322.766C277.764 322.888 277.764 322.888 277.623 322.991C277.604 323.113 277.463 323.217 277.445 323.339C276.855 324.748 276.387 326.176 276.145 327.763C275.875 330.346 276.094 333.003 277.12 335.284C270.419 338.259 264.714 342.885 258.493 346.808C251.568 351.248 244.558 355.426 237.632 359.866C226.241 367.372 214.934 375.141 203.956 383.211C207.941 377.572 211.474 371.614 214.416 365.441C220.262 353.34 224.107 340.433 227.116 327.274C230.144 313.992 232.824 300.532 233.635 287.037C234.096 279.111 233.664 271.299 233.251 263.364C233.078 259.589 232.783 255.796 232.976 252.077C233.169 248.358 232.592 244.772 231.264 241.195C230.257 238.792 227.514 238.749 225.77 240.356C222.843 243.158 222.341 248.079 221.641 251.846C220.614 256.936 218.958 262.056 217.686 267.11C216.144 273.121 214.742 279.029 212.851 284.863C211.083 290.715 208.826 296.493 206.222 302.093C195.89 324.754 182.757 346.114 173.261 369.028C167.914 381.955 164.342 395.528 161.991 409.288C161.804 410.509 162.284 411.457 163.064 412.076C162.53 413.119 161.977 414.284 161.425 415.449C160.872 416.614 160.46 417.676 160.029 418.859C160.011 418.982 159.973 419.226 159.833 419.329C150.49 428.148 141.579 437.408 133.43 447.408C117.947 466.16 103.799 485.99 90.2241 506.157C95.7328 494.629 100.997 483.063 105.933 471.197C115.514 448.546 124.766 425.594 132.694 402.316C136.597 390.667 140.152 378.841 143.096 366.921C146.078 354.757 148.328 342.481 150.596 330.083C152.35 320.23 153.86 310.34 155.352 300.572C155.408 300.206 155.567 299.98 155.745 299.633C156.354 298.101 157.31 296.748 158.041 295.235C159.569 292.595 159.913 289.524 161.215 286.724C162.658 283.821 164.589 280.992 166.379 278.267C169.961 272.816 174.34 267.862 178.598 262.89C183.156 257.589 187.507 252.006 192.168 246.845C196.529 242.014 201.097 237.463 205.026 232.191C209.096 226.815 212.141 220.783 215.064 214.732C218.006 208.559 220.722 202.227 223.316 195.876C226.144 188.811 228.972 181.746 232.148 174.86C233.824 171.242 235.483 167.747 236.915 164.093C238.348 160.438 239.658 156.765 241.439 153.288C242.132 152.02 241.52 150.302 240.251 149.609C239.002 148.793 237.565 149.199 236.524 150.289C233.401 153.56 229.516 156.091 226.045 159.184C222.274 162.607 218.728 166.188 215.079 169.629C208.044 176.427 201.093 183.487 195.045 191.184C189.156 198.656 184.029 206.869 179.39 215.157C174.61 223.548 170.074 231.977 166.234 240.761C164.145 245.44 162.282 250.278 160.419 255.116C161.25 243.124 161.575 231.179 160.66 219.169C159.801 206.793 158.435 194.465 157.313 182.174C157.133 180.897 157.094 179.517 156.914 178.24C157.618 177.723 158.218 177.065 158.696 176.388C163.626 176.016 168.686 174.79 173.38 173.507C180.28 171.687 186.804 169.06 193.073 165.644C196.076 163.979 199.22 162.21 202.016 160.263C204.812 158.316 207.683 155.881 209.163 152.733C209.894 151.22 210.033 149.492 209.909 147.849C209.671 145.314 207.463 144.227 205.199 143.507C201.507 142.318 197.677 142.858 193.968 143.416C187.302 144.522 180.938 146.924 175.054 150.273C183.113 135.136 187.958 118.134 190.427 101.144C191.629 92.4561 192.464 83.7126 192.041 75.0268C191.656 66.0968 189.975 57.4688 187.523 48.9731C184.837 39.5668 181.361 30.4149 176.412 21.9127C174.041 17.8023 171.389 13.8988 168.333 10.1836C166.969 8.47602 165.587 6.89057 164.205 5.30512C162.841 3.59757 161.234 1.85273 159.11 1.02874C158.171 0.635393 156.809 0.552405 155.927 1.41732C147.503 9.127 141.711 19.2377 136.896 29.4976C131.706 40.5748 127.23 51.886 124.896 63.8991C122.469 76.5227 121.939 89.8109 122.723 102.675C123.564 115.173 125.766 127.754 129.948 139.638C132.209 146.105 135.081 152.666 138.412 158.672C139.494 160.586 140.698 162.52 142.043 164.349C135.417 159.464 128.688 154.438 120.694 151.968C116.392 150.687 111.667 149.715 107.207 150.284C105.038 150.577 103.02 151.519 101.125 152.478C98.9659 153.523 97.935 155.365 97.9657 157.619C97.5826 159.309 97.8099 161.093 98.9479 162.641C100.208 164.208 101.449 165.897 102.991 167.257C106.074 169.977 109.917 171.813 113.675 173.387C122.046 176.664 131.099 177.921 140.031 179.16C142.107 179.477 144.183 179.794 146.418 179.886C147.901 179.987 149.611 180.248 151.235 180.246C151.575 190.294 152.666 200.331 153.391 210.313C154.41 222.463 154.958 234.416 154.352 246.568C153.555 264.064 151.499 281.617 149.077 299.114C148.048 302.581 147.141 306.065 146.356 309.569C145.988 307.888 145.517 306.067 145.149 304.387C142.818 294.285 140.243 284.146 136.476 274.45C132.709 264.754 127.768 255.378 120.979 247.47C113.899 239.017 105.674 231.514 96.6515 225.138C91.4639 221.472 86.0795 218.276 80.395 215.409C74.2408 212.345 67.7305 209.977 60.9219 209.562C58.9497 209.385 57.4863 210.786 57.5543 212.796C57.6698 215.312 59.1843 217.668 60.614 219.76C62.1658 221.871 63.699 224.104 65.2508 226.216C68.8344 231.386 72.3807 236.8 75.7014 242.055C82.3616 252.443 88.3553 263.104 94.0675 273.972C100.024 284.877 105.858 295.763 112.359 306.377C115.558 311.613 118.878 316.868 122.321 322.142C125.557 327.134 128.634 332.351 132.292 337.033C133.862 339.022 135.433 341.011 136.037 343.602C136.622 346.316 136.822 349.095 136.901 351.856C136.941 354.861 136.475 357.913 135.887 360.947C135.28 364.103 135.021 367.437 134.414 370.593C134.265 371.569 134.642 372.377 135.196 372.836C133.56 379.458 131.699 385.921 129.574 392.469C122.154 415.7 113.287 438.585 104.335 461.207C101.647 468.169 98.7159 475.093 95.7844 482.017C95.859 481.529 96.0557 481.059 96.1489 480.448C99.7834 464.011 100.995 447.078 100.3 430.355C99.7288 415.274 97.6926 399.97 93.9201 385.4C90.3833 371.741 85.1288 358.694 77.4528 346.776C72.9092 339.71 67.5212 333.265 61.2888 327.441C54.7273 321.316 47.669 315.99 41.1076 309.865C40.1206 308.965 38.3739 308.948 37.248 309.776C35.9813 310.707 35.7576 312.172 36.1816 313.486C38.3307 320.686 41.1276 327.736 43.6803 334.747C46.2516 341.637 48.9451 348.546 50.85 355.708C54.6412 370.156 53.2874 385.568 51.4351 400.153C49.5268 415.105 47.3929 429.897 48.3302 445.034C49.2758 459.297 51.668 473.906 56.2002 487.592C58.5748 494.952 61.5786 502.283 65.0047 509.303C65.8612 511.058 66.8584 512.71 67.8743 514.239C68.8902 515.769 69.6246 517.505 70.2369 519.223C71.3292 521.888 72.2808 524.658 73.1102 527.408C72.0691 528.499 71.7046 530.067 72.5136 531.315C71.8201 532.584 71.1266 533.852 70.4331 535.121C70.2551 535.468 70.1992 535.835 70.1433 536.201C54.8813 559.234 39.7414 582.286 22.4681 603.763C19.8331 607.109 17.0947 610.314 14.4597 613.66C14.6564 613.19 14.8344 612.843 15.0311 612.373C21.1653 597.567 22.931 581.094 21.9836 565.206C20.8851 548.67 16.3036 532.853 10.6707 517.374C7.6753 509.17 4.29498 501.032 0.755273 493.12C-2.68098 485.348 -6.25798 477.68 -10.5014 470.285C-15.2434 462.065 -21.1114 454.671 -27.8052 447.777C-30.9359 444.55 -34.2259 441.549 -37.516 438.547C-40.8247 435.668 -44.3962 432.874 -48.8952 432.062C-50.6045 431.801 -52.4715 433.39 -52.122 435.193C-50.3867 441.83 -48.9888 449.04 -47.9572 456.195C-47.0105 463.086 -46.2044 470.081 -44.8914 477.029C-42.2652 490.924 -37.3108 504.3 -34.2811 518.006C-31.27 531.835 -29.1882 546.022 -26.1771 559.851C-23.166 573.68 -19.263 587.395 -17.1439 601.338C-16.6043 605.168 -16.0834 609.121 -15.8067 613.037C-15.5113 616.83 -15.4788 620.708 -15.0614 624.521C-14.7474 628.192 -14.1519 631.656 -12.5423 635.026C-11.8741 636.377 -11.1872 637.607 -10.7631 638.921C-10.6783 639.184 -10.5087 639.709 -10.4425 640.094C-10.7613 640.545 -10.958 641.015 -11.0512 641.626C-11.1258 642.114 -11.0596 642.499 -10.89 643.025C-20.5314 653.797 -30.1541 664.447 -39.6734 675.238C-42.2525 678.218 -44.8129 681.075 -47.392 684.055C-50.1118 687.138 -45.1208 691.274 -42.3823 688.069C-26.9266 670.313 -10.8977 652.894 4.68007 635.157C7.32711 634.186 10.0403 633.601 12.4432 632.594C20.4216 629.439 28.2117 625.881 36.3784 623.129C44.2823 620.463 52.1488 618.041 59.883 614.849C67.6173 611.657 75.1818 607.939 82.3326 603.658C111.584 586.385 136.009 562.252 163.934 543.026C179.848 532.087 197.221 523.87 213.408 513.597C215.341 512.393 214.652 509.539 212.896 508.771C210.462 507.525 207.308 508.542 204.651 508.761C201.101 509.094 197.515 509.671 194.032 510.388C187.225 511.598 180.4 512.93 173.781 514.543C160.178 517.713 146.951 521.691 133.96 526.579C121.372 531.279 109.021 536.89 97.1492 543.448C85.4182 549.903 74.3742 557.588 63.744 565.835C59.6438 568.958 55.6471 572.22 51.7725 575.502C59.9571 563.633 67.8975 551.726 75.8566 539.697C81.8844 530.497 88.0157 521.438 94.1656 512.256C96.1919 510.442 98.4438 508.786 100.677 507.253C103.332 505.41 106.402 504.129 109.537 503.234C116.7 501.329 124.541 501.526 131.969 501.161C140.514 500.842 148.993 500.137 157.443 498.804C165.508 497.537 173.629 495.903 181.326 492.955C188.76 490.092 195.855 486.178 202.639 481.841C209.686 477.419 216.32 472.435 222.953 467.451C229.446 462.57 236.061 457.707 242.657 452.967C250.098 447.606 257.191 442.067 263.785 435.702C270.502 429.356 276.805 422.447 283.089 415.66C285.03 413.583 282.932 410.139 280.256 410.48C276.951 410.85 273.901 412.008 270.831 413.289C267.762 414.569 264.712 415.728 261.746 417.149C255.729 419.729 249.628 422.046 243.272 423.574C236.654 425.187 229.884 426.153 223.059 427.484C216.234 428.816 209.559 430.796 202.885 432.775C190.183 436.583 177.152 438.466 164.874 443.589C152.842 448.748 141.402 455.748 130.621 463.347C129.373 464.156 128.229 465.106 127.103 465.933C128.2 464.477 129.315 462.898 130.535 461.46C139.996 449.41 149.871 437.924 160.875 427.235C171.737 416.649 183.342 406.926 195.258 397.626C207.155 388.447 219.362 379.691 231.879 371.357C244.979 362.487 258.558 354.565 271.554 345.554C274.613 343.522 277.69 341.368 280.938 339.74C281.078 339.637 281.219 339.533 281.482 339.448C283.926 341.446 286.97 342.785 290.041 343.129C293.845 343.585 297.591 342.783 300.753 340.892C301.175 340.581 301.598 340.271 302.123 340.101C301.974 341.078 301.844 341.933 301.694 342.91C300.903 348.911 300.703 355.128 301.414 361.109C302.526 372.649 307.187 383.856 315.122 392.439ZM149.904 48.2265C151.362 41.952 152.698 35.6588 153.667 29.3097C154.264 25.4026 154.983 21.5141 155.842 17.5222C155.842 17.5222 155.842 17.5222 155.823 17.6443C157.331 22.4975 158.295 27.6424 159.277 32.6653C161.459 43.7436 162.889 54.8323 163.916 66.1091C164.906 77.6302 165.369 89.3209 164.594 100.947C163.733 112.311 162.628 123.637 161.524 134.963C160.726 143.463 159.805 151.943 159.496 160.517C158.12 156.434 156.622 152.332 155.369 148.267C152.136 137.528 148.903 126.789 146.703 115.833C144.521 104.754 143.983 93.5518 144.702 82.2918C145.704 70.8248 147.456 59.3476 149.904 48.2265ZM178.374 155.528C182.466 153.279 186.887 151.331 191.44 150.152C193.787 149.511 196.2 149.254 198.491 148.979C200.397 148.771 202.022 148.769 203.572 149.255C203.356 149.847 203.019 150.42 202.419 151.078C201.199 152.517 199.633 153.777 197.981 154.774C194.903 156.928 191.619 158.8 188.231 160.532C180.929 164.165 173.307 166.624 165.43 168.295C164.904 168.465 164.275 168.494 163.749 168.663C164.884 166.962 166.159 165.158 167.152 163.56C170.623 160.467 174.283 157.777 178.374 155.528ZM158.47 7.67796C158.78 8.10018 159.231 8.41896 159.542 8.84118C160.491 9.98576 161.563 11.149 162.616 12.4343C164.948 15.1643 167.121 18.1199 169.153 21.179C172.991 27.1376 176.144 33.4915 178.611 40.2405C183.632 54.0014 186.709 68.2152 186.2 83.0059C185.587 97.6558 183.068 112.514 178.445 126.427C176.124 133.444 173.315 140.387 169.81 146.974C167.711 150.901 165.386 154.67 163.062 158.438C163.439 151.873 164.08 145.224 164.702 138.697C165.807 127.371 166.911 116.045 167.875 104.822C168.858 93.477 168.705 82.2085 167.941 70.8468C167.158 59.6073 165.746 48.3965 163.827 37.2333C162.75 31.1964 161.532 25.263 160.051 19.4143C159.429 16.9453 158.336 14.2797 157.732 11.6885C157.788 11.3222 157.966 10.9746 158.004 10.7304C158.238 10.0165 157.946 9.47214 157.476 9.27546C157.569 8.66497 158.029 8.11041 158.47 7.67796ZM124.056 169.224C120.571 168.317 117.002 167.147 113.732 165.649C111.054 164.365 108.395 162.96 106.496 160.67C105.96 160.089 105.498 159.019 104.822 158.541C104.7 158.522 104.718 158.4 104.718 158.4C104.756 158.156 104.793 157.911 104.708 157.649C105.112 157.46 105.553 157.028 105.815 156.943C108.378 155.71 111.345 155.913 114.154 156.342C121.357 157.442 127.681 161.032 133.668 165.194C136.947 167.444 140.134 170.305 143.555 172.452C137.027 171.83 130.453 170.701 124.056 169.224ZM145.66 157.03C142.546 152.056 140.258 146.584 138.073 141.253C133.638 130.205 131.183 118.46 129.987 106.658C128.846 94.4891 128.879 81.9996 130.743 69.7898C132.552 57.9464 136.38 46.7861 141.167 35.8971C144.613 28.0522 148.464 20.0189 153.631 13.1862C151.106 23.1712 149.925 33.3613 147.645 43.3835C145.075 54.486 143.116 65.6817 141.992 77.13C140.925 88.212 140.853 99.3211 142.546 110.325C144.136 121.188 147.143 131.768 150.291 142.244C152.12 148.271 153.967 154.175 156.058 160.117C156.482 161.431 156.888 162.868 157.312 164.182C156.271 165.272 155.089 166.466 154.17 167.575C151.217 164.001 148.068 160.896 145.66 157.03ZM169.151 246.204C173.01 237.298 177.564 228.747 182.241 220.215C186.72 212.153 191.566 204.147 197.192 196.76C203.118 189.044 209.947 181.965 216.841 175.271C220.791 171.501 224.758 167.609 228.811 163.98C229.533 163.34 230.256 162.701 230.978 162.062C229.835 164.636 228.833 167.107 227.568 169.662C224.73 175.976 222.014 182.308 219.42 188.659C216.826 195.01 214.232 201.361 211.412 207.552C208.611 213.622 205.792 219.813 202.089 225.245C198.385 230.677 193.902 235.49 189.419 240.303C184.635 245.445 180.322 250.784 175.764 256.085C172.866 259.516 169.865 262.806 167.07 266.377C170.37 261.134 173.425 255.853 176.499 250.45C179.273 245.376 181.925 240.283 184.821 235.228C187.717 230.173 190.961 225.295 194.308 220.559C197.992 215.249 201.78 210.08 205.136 204.47C205.97 203.098 203.677 201.748 202.74 202.98C196.064 212.331 189.285 221.541 183.408 231.389C177.531 241.237 172.435 251.703 166.436 261.533C164.093 265.423 161.505 269.276 158.918 273.129C162.185 264.007 165.433 255.007 169.151 246.204ZM121.893 308.582C115.233 298.194 109.117 287.515 103.142 276.732C97.2041 265.705 91.1256 254.781 84.6435 244.045C80.9462 237.983 76.9861 232.006 73.026 226.028C71.079 223.232 69.2541 220.455 67.2885 217.781C66.7712 217.077 66.1319 216.355 65.5111 215.51C69.2589 216.332 72.9134 217.765 76.4085 219.423C81.1908 221.653 85.8985 224.371 90.3247 227.296C98.9516 232.986 106.904 239.823 113.73 247.487C120.471 254.889 125.561 263.288 129.421 272.373C133.3 281.337 136.109 290.762 138.289 300.216C139.563 305.783 141.1 311.265 142.129 316.795C142.762 320.015 143.254 323.339 143.239 326.71C142.866 329.152 142.493 331.594 142.102 334.158C141.934 335.257 142.395 336.327 143.175 336.946C142.97 338.289 142.643 339.613 142.438 340.957C142.221 339.924 141.882 338.872 141.383 338.047C141.195 337.643 140.884 337.221 140.696 336.817C140.527 336.292 140.357 335.766 140.309 335.259C139.687 332.79 138.642 330.631 137.757 328.247C135.798 323.075 134.346 317.855 132.772 312.617C131.198 307.379 129.605 302.263 127.486 297.317C125.142 292.211 122.414 287.171 119.647 282.376C116.505 276.773 113.08 271.377 109.938 265.775C108.959 264.001 106.304 265.845 107.404 267.637C112.918 277.35 119.098 286.79 123.908 297.02C128.323 306.565 130.476 317.015 133.962 326.918C133.359 325.951 132.757 324.985 132.033 324C128.553 318.97 125.214 313.837 121.893 308.582ZM4.63482 619.906C4.95177 617.831 5.02453 615.718 5.09728 613.605C5.15798 609.116 5.60362 604.561 5.90852 600.11C6.21342 595.658 6.01128 591.254 5.6684 586.954C5.00128 578.231 3.98652 569.33 2.28669 560.824C0.634378 552.825 -1.64705 544.855 -4.33209 537.073C-7.31906 527.996 -10.8317 519.088 -14.2223 510.199C-14.8532 508.604 -17.3782 509.592 -16.7472 511.188C-11.0584 526.3 -5.10673 541.328 -1.52063 557.119C0.253774 565.136 1.27695 573.164 2.03729 581.277C2.50226 585.596 2.82649 590.018 2.90654 594.404C2.98658 598.789 2.43749 603.203 2.13259 607.655C1.80905 612.228 2.40636 617.317 0.965297 621.845C0.300684 623.743 -0.486019 625.622 -0.662227 627.594C-1.28113 628.374 -1.88139 629.032 -2.50029 629.812C-2.94116 630.245 -3.25992 630.696 -3.7008 631.128L-3.84155 631.232C-3.98229 631.335 -4.00093 631.457 -4.14167 631.561C-4.88266 632.322 -5.50156 633.102 -6.12047 633.882C-7.04313 631.742 -7.98446 629.724 -8.38145 627.415C-8.87348 624.091 -8.98057 620.701 -9.20977 617.293C-9.42032 613.762 -9.7716 610.335 -10.1043 606.786C-11.8011 592.533 -15.7042 578.818 -18.8187 564.848C-21.9519 551 -24.1745 536.917 -27.1482 522.844C-28.5834 515.878 -30.2628 508.874 -32.3271 501.937C-34.3066 495.263 -36.4082 488.57 -38.1248 481.81C-39.9552 474.159 -40.997 466.253 -42.1609 458.329C-43.0601 451.945 -44.3257 445.504 -45.3471 439.101C-43.6461 440.235 -42.0011 441.736 -40.5816 443.077C-37.6206 445.778 -34.7816 448.461 -31.98 451.387C-26.1324 457.278 -20.9886 463.686 -16.7079 470.837C-12.5307 477.847 -9.16058 485.234 -5.79049 492.62C-2.25078 500.532 1.14818 508.548 4.14357 516.752C9.81375 531.987 14.592 547.335 15.9905 563.541C17.2754 578.856 15.7436 594.615 10.1538 609.129C8.72111 612.784 6.90351 616.505 4.63482 619.906ZM94.9791 551.113C117.642 537.707 142.836 528.185 168.314 521.705C175.599 519.818 182.969 518.195 190.424 516.834C193.644 516.202 196.723 515.672 199.925 515.162C188.298 521.757 176.5 527.828 165.268 535.108C150.977 544.421 137.739 555.019 124.482 565.739C111.103 576.44 97.724 587.142 83.2257 596.173C69.1311 605.016 53.822 611.174 38.0703 616.141C29.3966 618.94 21.0994 622.546 12.7174 625.889C15.1557 623.012 17.7348 620.033 20.1917 617.034C20.6512 616.48 21.1107 615.925 21.5702 615.371C24.1409 613.264 26.815 611.299 29.5925 609.474C37.2588 604.272 45.1506 599.23 53.0051 594.432C61.2632 589.446 69.6433 584.478 78.2118 579.914C86.3766 575.539 93.3 569.474 100.552 563.709C108.968 556.873 117.262 550.018 125.141 542.6C126.323 541.406 124.894 539.314 123.59 540.489C116.385 546.76 108.936 552.995 101.402 558.966C94.1306 564.853 86.9071 571.246 78.8084 576.007C74.8201 578.397 70.5028 580.486 66.5145 582.876C62.2634 585.35 58.0122 587.825 53.8832 590.318C45.7658 595.201 37.7333 600.346 29.9263 605.651C29.6448 605.858 29.5041 605.962 29.2226 606.169C31.6982 603.048 34.1738 599.928 36.5273 596.789C54.2656 579.631 73.5827 563.589 94.9791 551.113ZM91.6174 475.758C89.9376 485.122 87.2997 494.215 84.5396 503.29C83.5292 506.634 82.5188 509.978 81.4897 513.444C81.157 509.895 80.6836 506.449 80.351 502.9C79.6466 494.421 78.8015 486.046 78.2191 477.586C76.9511 460.524 76.5564 443.472 76.2837 426.438C76.1321 416.794 75.9804 407.15 75.8287 397.506C75.7607 395.496 72.5778 395.885 72.6458 397.894C72.9846 415.313 73.0605 432.817 73.6622 450.152C73.9444 458.941 74.3486 467.749 74.9971 476.594C75.5607 485.176 76.3873 493.674 77.0917 502.153C77.4532 506.331 77.9554 510.406 78.3356 514.462C78.4782 515.983 78.48 517.608 78.8668 519.166C78.6701 519.636 78.492 519.984 78.2954 520.453C76.9011 516.492 75.2441 512.616 73.024 509.153C71.2178 506.253 69.9559 503.062 68.694 499.871C67.2913 496.783 66.0294 493.591 64.7675 490.4C59.7944 477.146 56.9614 462.97 55.6308 448.773C54.9655 441.674 54.7038 434.387 55.1747 427.212C55.7201 419.549 56.7726 411.838 57.8065 404.25C59.7148 389.298 61.4721 373.698 58.6474 358.648C57.0324 350.405 53.9811 342.568 51.0519 334.749C49.4694 330.384 47.8682 326.141 46.2671 321.898C49.3689 324.496 52.4707 327.094 55.4317 329.795C60.9213 334.756 65.848 340.131 70.1744 346.165C78.2065 357.387 83.8646 370.245 87.5794 383.557C91.4638 397.394 93.5084 411.825 94.454 426.089C95.5338 442.746 94.7449 459.368 91.6174 475.758ZM130.301 471.17C135.527 467.22 141.064 463.692 146.582 460.287C152.099 456.881 157.58 453.72 163.474 451.121C169.387 448.401 175.47 446.206 181.703 444.659C188.078 443.009 194.396 441.724 200.771 440.074C207.145 438.423 213.35 436.247 219.687 434.841C226.286 433.35 232.915 432.488 239.496 431.119C246.848 429.618 254.029 427.591 260.993 424.531C263.8 423.335 266.747 422.036 269.553 420.84C266.73 423.783 263.907 426.725 261.102 429.545C255.39 435.045 249.367 440.123 243.015 444.9C236.259 449.866 229.419 454.569 222.766 459.676C216.274 464.556 209.762 469.56 203.062 474.159C196.522 478.533 189.775 482.625 182.67 485.789C175.302 489.037 167.632 490.989 159.811 492.294C151.587 493.787 143.333 494.65 135.033 495.007C126.976 495.401 118.768 495.147 110.91 496.696C109.633 496.876 108.441 497.319 107.268 497.639C110.776 494.302 114.388 491.105 118.31 488.33C124.765 483.694 132.011 480.427 139.342 477.423C147.32 474.268 155.675 471.921 164.096 469.958C172.255 468.08 180.328 465.94 187.959 462.607C196.782 458.831 205.143 453.986 213.759 449.929C215.251 449.157 214.347 446.895 212.752 447.526C204.736 450.925 197.097 455.131 189.185 458.671C181.272 462.21 173.162 464.595 164.722 466.68C156.423 468.661 148.209 470.906 140.127 473.92C132.571 476.764 125.062 480.116 118.259 484.574C116.589 485.694 114.9 486.935 113.192 488.299C114.271 486.964 115.368 485.507 116.568 484.191C120.6 479.059 125.216 475.016 130.301 471.17ZM190.385 390.259C185.865 395.317 180.93 399.811 175.752 404.268C175.048 404.785 174.448 405.443 173.866 405.979C184.606 386.378 195.364 366.655 203.548 345.79C206.001 339.542 208.192 333.38 210.523 327.114C211.15 325.46 208.698 324.336 208.071 325.99C203.669 336.812 199.597 347.935 194.848 358.58C189.939 369.451 184.335 379.965 178.732 390.479C175.583 396.37 172.434 402.262 169.182 408.013C169.079 407.872 168.853 407.712 168.75 407.572C170.831 396.395 173.646 385.329 177.888 374.732C182.382 363.299 188.042 352.418 193.702 341.538C199.361 330.657 205.143 319.795 210.455 308.736C213.182 303.155 215.664 297.537 217.676 291.722C219.707 285.785 221.372 279.792 222.915 273.78C224.364 268.379 225.795 263.1 227.245 257.699C227.284 259.079 227.341 260.338 227.521 261.614C227.858 268.413 228.457 275.126 228.286 281.972C227.841 295.523 225.302 308.879 222.396 322.18C219.584 334.87 216.18 347.344 210.756 359.135C205.407 370.438 198.563 380.888 190.385 390.259ZM375.88 393.845C374.361 395.612 371.611 396.442 369.084 395.806C366.191 395.114 363.888 393.014 361.669 391.176C359.037 388.774 356.424 386.251 353.811 383.728C348.706 378.701 344.023 373.363 339.622 367.818C334.394 361.147 329.465 354.147 324.537 347.147C321.969 343.507 319.505 340.007 317.078 336.263C316.269 335.015 315.46 333.767 314.651 332.519C317.921 334.017 321.068 335.498 324.338 336.996C330.962 340.257 337.248 344.091 343.235 348.253C347.52 351.282 351.702 354.169 355.988 357.198C360.029 360.189 364.033 363.424 367.774 366.744C369.541 368.263 371.168 369.886 372.897 371.649C373.208 372.072 373.415 372.353 373.725 372.775C376.444 377.064 378.206 382.706 377.845 387.523C377.857 389.899 377.418 391.956 375.88 393.845ZM409.108 288.343C409.004 288.202 408.986 288.324 409.108 288.343C409.071 288.587 408.911 288.813 408.893 288.935C408.199 290.203 406.932 291.134 405.806 291.962C403.01 293.909 400.129 295.593 397.041 296.996C390.443 300.111 383.572 302.561 376.447 304.221C369.058 305.967 361.622 307.205 354.186 308.444C345.07 310.051 335.972 311.535 326.959 313.282C324.772 313.698 322.706 314.132 320.519 314.548C322.978 313.174 325.577 311.697 328.054 310.201C334.52 306.316 340.967 302.552 347.603 299.192C354.482 295.87 361.635 293.214 368.872 290.82C376.091 288.549 383.479 286.803 390.963 286.072C394.39 285.721 397.902 285.632 401.358 285.91C402.035 286.388 403.011 286.537 403.819 286.161C404.307 286.235 404.795 286.31 405.284 286.385C405.772 286.459 406.12 286.637 406.608 286.712C407.078 286.909 407.67 287.124 408.139 287.321C408.384 287.358 408.487 287.499 408.713 287.658C408.572 287.761 408.901 288.062 409.108 288.343C409.126 288.221 409.126 288.221 409.108 288.343C409.004 288.202 409.004 288.202 409.108 288.343ZM327.754 301.534C324.15 303.857 320.65 306.322 317.15 308.786C319.908 305.459 322.665 302.131 325.3 298.785C330.551 292.215 335.333 285.449 340.114 278.682C343.912 274.265 347.692 269.969 351.594 265.692C356.536 260.324 361.808 255.257 368.321 251.878C371.447 250.231 374.638 248.97 377.896 248.093C380.768 247.282 384.27 246.442 387.248 247.397C393.429 249.465 387.927 258.495 385.329 261.597C380.893 266.917 375.226 271.3 369.615 275.316C363.441 279.745 356.976 283.631 350.51 287.517C342.937 292.108 335.242 296.68 327.754 301.534ZM326.95 321.527C335.429 320.823 343.926 319.996 352.471 319.677C369.561 319.038 386.719 320.409 403.457 323.714C407.815 324.629 412.295 325.563 416.56 327.089C418.684 327.913 420.666 328.841 422.63 329.89C423.551 330.406 424.612 330.818 425.514 331.455C426.295 332.074 427.056 332.815 427.714 333.415C427.968 334.204 427.79 334.552 426.787 335.398C425.342 336.677 423.709 337.552 421.991 338.164C418.415 339.492 414.34 339.994 410.546 340.29C401.823 340.957 392.836 340.084 384.092 339.249C375.123 338.254 366.191 337.015 357.334 335.288C348.702 333.72 339.949 332.133 331.663 329.119C326.806 327.378 322.09 325.533 317.158 324.28C315.486 323.775 313.674 323.373 311.879 322.849C312.771 322.736 313.541 322.603 314.415 322.612C318.489 322.11 322.771 321.889 326.95 321.527ZM417.708 371.12C418.743 372.528 420.191 374.498 420.278 376.385C420.298 377.888 419.164 379.589 418.019 380.539C416.875 381.488 415.335 381.753 413.795 382.018C411.504 382.293 409.232 382.445 406.978 382.476C402.471 382.537 397.794 382.073 393.529 380.547C388.569 378.665 384.565 375.43 380.739 371.847C375.026 360.979 363.366 354.701 353.686 347.725C349.297 344.556 344.889 341.509 340.341 338.565C345.394 339.837 350.626 340.761 355.839 341.807C364.94 343.571 373.976 344.951 383.207 345.861C384.306 346.029 385.424 346.074 386.523 346.242C387.454 347.509 388.967 348.24 390.479 348.97C392.584 349.916 394.388 351.192 396.193 352.467C400.375 355.354 404.294 358.327 408.298 361.562C411.766 364.216 415.037 367.339 417.708 371.12ZM434.976 319.406C442.358 320.158 452.37 321.687 456.144 328.886C457.979 332.414 458.547 336.874 457.34 340.688C456.311 344.154 453.928 346.664 450.888 348.574C444.122 352.789 434.714 353.851 426.947 353.165C418.814 352.422 411.083 349.868 403.511 347.087C405.887 347.075 408.141 347.044 410.413 346.891C414.714 346.549 419.051 345.962 423.135 344.586C426.936 343.417 431.291 341.084 433.353 337.4C434.365 335.681 434.419 333.69 433.966 331.746C433.325 329.399 431.126 327.439 429.096 326.005C427.291 324.73 425.064 323.765 423.082 322.838C421.691 322.125 420.16 321.517 418.61 321.03C418.995 320.964 419.38 320.898 419.784 320.71C424.947 319.624 429.811 318.867 434.976 319.406ZM425.092 281.038C431.88 279.95 440.359 279.246 446.523 283.061C448.919 284.552 451.307 286.915 452.015 289.647C452.807 292.642 451.298 295.16 449.112 297.2C446.485 299.673 443.182 301.668 440.057 303.314C436.65 305.168 432.896 306.844 429.198 308.153C420.731 311.233 411.877 312.755 403.09 314.662C402.057 314.879 401.072 315.603 400.801 316.561C397.278 315.899 393.86 315.377 390.3 314.958C381.716 313.897 373.057 313.325 364.343 313.118C376.557 310.86 388.724 308.095 400.062 302.58C403.45 300.848 406.838 299.116 409.934 296.84C412.768 294.649 415.75 291.481 415.455 287.688C415.416 286.308 414.955 285.238 414.23 284.252C417.788 283.046 421.364 281.718 425.092 281.038ZM400.337 246.772C403.125 245.698 406.12 244.906 408.974 244.217C413.912 242.972 420.653 241.377 425.445 244.358C429.091 246.664 429.444 251.716 428.848 255.623C428.027 260.995 425.413 265.844 421.689 269.773C417.365 274.361 411.63 276.733 405.792 278.966C405.125 279.239 404.685 279.671 404.488 280.141C402.168 279.787 399.811 279.677 398.064 279.66C389.716 279.509 381.51 280.88 373.315 283.002C371.23 283.559 369.146 284.115 367.044 284.794C375.095 279.526 382.836 273.836 389.176 266.683C391.595 263.928 393.827 260.771 394.997 257.201C395.895 254.589 396.258 251.396 395.673 248.683L395.813 248.58C397.428 247.827 398.882 247.299 400.337 246.772ZM369.803 224.992C370.551 221.732 370.951 218.295 370.599 214.868L370.722 214.886C372.017 214.584 373.209 214.142 374.383 213.821C376.852 213.199 379.443 212.595 382.015 212.113C386.653 211.197 391.395 210.421 396.138 211.271C398.091 211.569 400.111 212.252 401.549 213.471C402.884 214.55 403.393 216.127 403.657 217.667C404.385 221.901 404.372 226.897 402.395 230.843C401.167 233.154 399.348 235.25 397.669 237.243C395.85 239.339 393.908 241.417 391.985 243.372C387.127 240.006 379.616 241.733 374.482 243.448C368.173 245.484 362.167 248.815 357.007 253.149C357.345 252.576 357.701 251.881 358.16 251.326C362.959 242.813 367.757 234.3 369.803 224.992ZM310.534 270.292C307.698 278.23 305.697 286.421 303.941 294.649C303.063 298.763 302.203 302.755 301.447 306.888C301.186 308.597 300.785 310.41 300.505 312.242C300.261 312.204 300.035 312.045 299.791 312.008C299.791 312.008 299.791 312.008 299.669 311.989C300.251 311.453 300.644 310.514 300.567 309.377C298.645 294.965 298.507 280.325 300.34 265.862C302.062 252.131 305.305 238.258 312.043 226.042C313.393 223.75 314.902 221.231 316.91 219.539C317.773 218.796 318.617 218.175 319.584 217.573C320.128 217.281 321.057 216.923 321.686 216.895C321.686 216.895 321.931 216.932 322.071 216.828C322.071 216.828 322.193 216.847 322.316 216.866C322.814 217.691 323.05 218.602 323.23 219.879C323.618 223.062 323.152 226.114 322.79 229.308C321.115 243.545 315.327 256.905 310.534 270.292ZM308.007 311.388C307.388 312.168 306.788 312.826 306.169 313.606C306.244 313.118 306.44 312.648 306.515 312.16C307.496 308.186 308.234 304.176 309.441 300.362C312.164 291.532 316.089 283.01 319.3 274.255C322.511 265.499 326.192 256.94 329.995 248.4C331.887 244.191 333.779 239.982 335.671 235.773C337.385 231.911 339.203 228.19 341.49 224.666C345.372 218.887 350.689 212.702 357.73 210.778C359.044 210.354 360.847 210.005 362.256 210.595C363.44 211.026 364.126 212.255 364.588 213.325C365.728 216.498 365.009 220.386 364.28 223.523C362.449 232.24 357.847 240.283 353.424 247.979C348.859 255.778 343.825 263.381 338.809 270.861C337.019 273.587 335.125 276.171 333.212 278.878C328.495 284.405 324.022 289.969 319.53 295.655C316.717 299.349 313.904 303.043 311.195 306.877C310.238 308.23 309.123 309.809 308.007 311.388ZM307.343 347.646C307.482 345.918 307.725 344.33 307.986 342.621C308.898 344.01 309.811 345.398 310.864 346.684C314.4 351.347 317.851 355.747 320.824 360.824C323.901 366.042 326.837 371.363 329.894 376.703C332.764 381.639 335.897 386.49 338.344 391.737C338.805 392.807 339.511 393.914 339.709 395.069C339.945 395.98 339.626 396.431 339.167 396.985C339.326 396.76 339.026 397.089 339.026 397.089C338.885 397.192 338.763 397.174 338.763 397.174C338.763 397.174 338.763 397.174 338.641 397.155C338.378 397.24 338.256 397.221 338.012 397.184C337.261 397.194 336.021 397.13 334.922 396.962C330.038 396.216 325.697 393.554 322.078 390.253C314.84 383.65 310.021 374.293 308.123 364.632C307.093 359.102 306.852 353.318 307.343 347.646Z" fill="#10934B"/>
</svg>
