<svg width="50" height="51" viewBox="0 0 50 51" fill="none" xmlns="http://www.w3.org/2000/svg">
<g clip-path="url(#clip0_104_169)">
<path d="M39.8465 21.381C39.6372 21.1717 39.4235 20.9686 39.2071 20.7694L40.7838 5.00249C40.9071 3.76948 40.501 2.5353 39.6694 1.61646C38.8379 0.697607 37.6504 0.170654 36.4112 0.170654H13.5888C12.3496 0.170654 11.1619 0.697607 10.3305 1.61646C9.49902 2.53521 9.09277 3.76938 9.21611 5.00249L10.7929 20.7694C10.5765 20.9687 10.3629 21.1718 10.1536 21.381C6.18789 25.3466 4.00391 30.6193 4.00391 36.2275C4.00391 41.1206 5.72441 45.8847 8.84854 49.6423L9.28779 50.1707H40.7122L41.1515 49.6423C44.2756 45.8848 45.9961 41.1207 45.9961 36.2275C45.9961 30.6193 43.8121 25.3466 39.8465 21.381ZM12.5027 3.58228C12.784 3.27153 13.1697 3.10034 13.5889 3.10034H36.4112C36.8304 3.10034 37.2161 3.27153 37.4974 3.58228C37.7786 3.89302 37.9104 4.2939 37.8688 4.71099L36.476 18.6387C35.5833 18.0538 34.6508 17.5403 33.6854 17.1014L34.7924 6.03003H15.2074L16.3146 17.1013C15.3492 17.5403 14.4167 18.0537 13.524 18.6387L12.1313 4.71089C12.0896 4.2938 12.2214 3.89302 12.5027 3.58228ZM31.5553 8.95972L30.8459 16.0532C28.9697 15.5125 27.0065 15.2314 25 15.2314C22.9935 15.2314 21.0303 15.5125 19.1541 16.0532L18.4447 8.95972H31.5553ZM39.3213 47.241H10.6787C8.25889 44.096 6.93359 40.2117 6.93359 36.2275C6.93359 26.2657 15.0382 18.1611 25 18.1611C34.9619 18.1611 43.0664 26.2657 43.0664 36.2275C43.0664 40.2118 41.7411 44.096 39.3213 47.241Z" fill="#FEE431"/>
<path d="M25 29.0769C21.7691 29.0769 19.1406 31.7054 19.1406 34.9363C19.1406 38.1671 21.7691 40.7957 25 40.7957C28.2309 40.7957 30.8594 38.1671 30.8594 34.9363C30.8594 31.7054 28.2309 29.0769 25 29.0769ZM25 37.866C23.3846 37.866 22.0703 36.5517 22.0703 34.9363C22.0703 33.3208 23.3846 32.0066 25 32.0066C26.6154 32.0066 27.9297 33.3208 27.9297 34.9363C27.9297 36.5517 26.6154 37.866 25 37.866Z" fill="#FEE431"/>
</g>
<defs>
<clipPath id="clip0_104_169">
<rect width="50" height="50" fill="white" transform="translate(0 0.170654)"/>
</clipPath>
</defs>
</svg>
